G04 #@! TF.GenerationSoftware,KiCad,Pcbnew,(5.1.2)-2*
G04 #@! TF.CreationDate,2020-01-14T07:35:24-06:00*
G04 #@! TF.ProjectId,PIC18F4550DevelopmentBoard,50494331-3846-4343-9535-30446576656c,rev?*
G04 #@! TF.SameCoordinates,PX60e4b00PY6d01460*
G04 #@! TF.FileFunction,Copper,L2,Bot*
G04 #@! TF.FilePolarity,Positive*
%FSLAX46Y46*%
G04 Gerber Fmt 4.6, Leading zero omitted, Abs format (unit mm)*
G04 Created by KiCad (PCBNEW (5.1.2)-2) date 2020-01-14 07:35:24*
%MOMM*%
%LPD*%
G04 APERTURE LIST*
%ADD10O,1.700000X1.700000*%
%ADD11R,1.700000X1.700000*%
%ADD12C,1.600000*%
%ADD13C,1.200000*%
%ADD14R,1.800000X1.800000*%
%ADD15C,1.800000*%
%ADD16R,2.400000X2.400000*%
%ADD17O,2.400000X2.400000*%
%ADD18C,1.700000*%
%ADD19C,3.500000*%
%ADD20O,1.600000X1.600000*%
%ADD21R,2.000000X1.905000*%
%ADD22O,2.000000X1.905000*%
%ADD23R,1.600000X1.600000*%
%ADD24C,1.500000*%
%ADD25C,1.400000*%
%ADD26C,1.200000*%
%ADD27C,1.000000*%
%ADD28C,1.400000*%
%ADD29C,0.254000*%
G04 APERTURE END LIST*
D10*
X22860000Y7620000D03*
D11*
X20320000Y7620000D03*
D12*
X15875000Y33735000D03*
X15875000Y38735000D03*
D10*
X48260000Y15240000D03*
X50800000Y15240000D03*
X53340000Y15240000D03*
D11*
X55880000Y15240000D03*
D10*
X33020000Y15240000D03*
D11*
X35560000Y15240000D03*
D10*
X40640000Y48260000D03*
D11*
X38100000Y48260000D03*
D13*
X15875000Y43180000D03*
X15875000Y45180000D03*
X28035000Y38100000D03*
X26035000Y38100000D03*
D14*
X21590000Y33655000D03*
D15*
X21590000Y36195000D03*
D16*
X26035000Y33020000D03*
D17*
X26035000Y17780000D03*
D10*
X66040000Y48260000D03*
X68580000Y48260000D03*
X71120000Y48260000D03*
X73660000Y48260000D03*
X76200000Y48260000D03*
D11*
X78740000Y48260000D03*
X63500000Y15240000D03*
D10*
X66040000Y15240000D03*
X68580000Y15240000D03*
X71120000Y15240000D03*
X73660000Y15240000D03*
X76200000Y15240000D03*
X78740000Y15240000D03*
X81280000Y15240000D03*
D11*
X17780000Y17780000D03*
D18*
X17780000Y20280000D03*
X15780000Y20280000D03*
X15780000Y17780000D03*
D19*
X13070000Y13010000D03*
X13070000Y25050000D03*
D11*
X45720000Y48260000D03*
D10*
X48260000Y48260000D03*
X50800000Y48260000D03*
D11*
X43180000Y15240000D03*
D10*
X40640000Y15240000D03*
X61595000Y48260000D03*
X59055000Y48260000D03*
D11*
X56515000Y48260000D03*
X93345000Y24765000D03*
D10*
X93345000Y22225000D03*
X93345000Y19685000D03*
X93345000Y17145000D03*
X93345000Y14605000D03*
X93345000Y12065000D03*
D11*
X26670000Y46990000D03*
D10*
X26670000Y49530000D03*
X32385000Y49530000D03*
D11*
X32385000Y46990000D03*
D12*
X21590000Y39370000D03*
D20*
X21590000Y49530000D03*
X72390000Y36195000D03*
D12*
X62230000Y36195000D03*
X83820000Y20320000D03*
D20*
X73660000Y20320000D03*
X70485000Y31115000D03*
D12*
X80645000Y31115000D03*
D18*
X93400000Y50950000D03*
X93400000Y44450000D03*
X88900000Y50950000D03*
X88900000Y44450000D03*
X88900000Y32385000D03*
X88900000Y38885000D03*
X93400000Y32385000D03*
X93400000Y38885000D03*
D21*
X9525000Y41275000D03*
D22*
X9525000Y43815000D03*
X9525000Y46355000D03*
D23*
X81280000Y39564999D03*
D20*
X33020000Y24324999D03*
X78740000Y39564999D03*
X35560000Y24324999D03*
X76200000Y39564999D03*
X38100000Y24324999D03*
X73660000Y39564999D03*
X40640000Y24324999D03*
X71120000Y39564999D03*
X43180000Y24324999D03*
X68580000Y39564999D03*
X45720000Y24324999D03*
X66040000Y39564999D03*
X48260000Y24324999D03*
X63500000Y39564999D03*
X50800000Y24324999D03*
X60960000Y39564999D03*
X53340000Y24324999D03*
X58420000Y39564999D03*
X55880000Y24324999D03*
X55880000Y39564999D03*
X58420000Y24324999D03*
X53340000Y39564999D03*
X60960000Y24324999D03*
X50800000Y39564999D03*
X63500000Y24324999D03*
X48260000Y39564999D03*
X66040000Y24324999D03*
X45720000Y39564999D03*
X68580000Y24324999D03*
X43180000Y39564999D03*
X71120000Y24324999D03*
X40640000Y39564999D03*
X73660000Y24324999D03*
X38100000Y39564999D03*
X76200000Y24324999D03*
X35560000Y39564999D03*
X78740000Y24324999D03*
X33020000Y39564999D03*
X81280000Y24324999D03*
D24*
X49530000Y29210000D03*
X49530000Y34090000D03*
D12*
X67230000Y33020000D03*
X62230000Y33020000D03*
X62230000Y29210000D03*
X67230000Y29210000D03*
X57110000Y34290000D03*
X54610000Y34290000D03*
X54610000Y29210000D03*
X57110000Y29210000D03*
X38100000Y36830000D03*
X38100000Y31830000D03*
D25*
X85725000Y12065000D03*
X85725000Y44450000D03*
D26*
X61595000Y36830000D02*
X62230000Y36195000D01*
X56515000Y36830000D02*
X61595000Y36830000D01*
X55880000Y39564999D02*
X55880000Y37465000D01*
X55880000Y37465000D02*
X56515000Y36830000D01*
X60960000Y27940000D02*
X62230000Y29210000D01*
X60960000Y24324999D02*
X60960000Y27940000D01*
X62230000Y29210000D02*
X62230000Y33020000D01*
X62230000Y33020000D02*
X62230000Y36195000D01*
X20458630Y49530000D02*
X21590000Y49530000D01*
X11725000Y46355000D02*
X14900000Y49530000D01*
X9525000Y46355000D02*
X11725000Y46355000D01*
X19685000Y48260000D02*
X18415000Y49530000D01*
X15875000Y38735000D02*
X19685000Y42545000D01*
X14900000Y49530000D02*
X18415000Y49530000D01*
X18415000Y49530000D02*
X20458630Y49530000D01*
X21590000Y49530000D02*
X26670000Y49530000D01*
X26670000Y46990000D02*
X26670000Y49530000D01*
X19685000Y42545000D02*
X19685000Y48260000D01*
X93345000Y14605000D02*
X87630000Y14605000D01*
X83820000Y18415000D02*
X83820000Y20320000D01*
X60960000Y24324999D02*
X60960000Y13970000D01*
X60960000Y13970000D02*
X62865000Y12065000D01*
X81915000Y12065000D02*
X86042500Y16192500D01*
X62865000Y12065000D02*
X81915000Y12065000D01*
X87630000Y14605000D02*
X86042500Y16192500D01*
X86042500Y16192500D02*
X83820000Y18415000D01*
X55880000Y39564999D02*
X55880000Y42545000D01*
X55880000Y42545000D02*
X53975000Y44450000D01*
X53975000Y44450000D02*
X53975000Y49530000D01*
X53975000Y49530000D02*
X52070000Y51435000D01*
X28575000Y51435000D02*
X26670000Y49530000D01*
X52070000Y51435000D02*
X28575000Y51435000D01*
X26035000Y40640000D02*
X24130000Y42545000D01*
X24130000Y42545000D02*
X19685000Y42545000D01*
X26035000Y38100000D02*
X26035000Y40640000D01*
X26035000Y33020000D02*
X26035000Y38100000D01*
D27*
X50800000Y39564999D02*
X50800000Y35360000D01*
X50800000Y34290000D02*
X50265000Y34825000D01*
X54610000Y34290000D02*
X50800000Y34290000D01*
X50800000Y35360000D02*
X50265000Y34825000D01*
X50265000Y34825000D02*
X49530000Y34090000D01*
X48260000Y39564999D02*
X48260000Y36830000D01*
X48260000Y36830000D02*
X46990000Y35560000D01*
X46990000Y35560000D02*
X46990000Y29845000D01*
X47625000Y29210000D02*
X49530000Y29210000D01*
X46990000Y29845000D02*
X47625000Y29210000D01*
X49530000Y29210000D02*
X54610000Y29210000D01*
X38100000Y39564999D02*
X38100000Y36830000D01*
D26*
X21590000Y39370000D02*
X21590000Y36195000D01*
X17780000Y17780000D02*
X26035000Y17780000D01*
X66040000Y48260000D02*
X66040000Y39564999D01*
X68580000Y48260000D02*
X68580000Y39564999D01*
X71120000Y48260000D02*
X71120000Y39564999D01*
X73660000Y48260000D02*
X73660000Y39564999D01*
X76200000Y48260000D02*
X76200000Y39564999D01*
X78740000Y48260000D02*
X78740000Y39564999D01*
X63500000Y24324999D02*
X63500000Y15240000D01*
X66040000Y24324999D02*
X66040000Y15240000D01*
X68580000Y24324999D02*
X68580000Y15240000D01*
X71120000Y24324999D02*
X71120000Y15240000D01*
X73660000Y24324999D02*
X73660000Y20320000D01*
X73660000Y20320000D02*
X73660000Y15240000D01*
X73660000Y24324999D02*
X73660000Y26035000D01*
X73660000Y26035000D02*
X76200000Y28575000D01*
X76200000Y28575000D02*
X86995000Y28575000D01*
X86995000Y28575000D02*
X88900000Y30480000D01*
X88900000Y30480000D02*
X88900000Y32385000D01*
X76200000Y24324999D02*
X76200000Y15240000D01*
X78740000Y24324999D02*
X78740000Y15240000D01*
X93345000Y22225000D02*
X88900000Y22225000D01*
X88900000Y22225000D02*
X84455000Y26670000D01*
X84455000Y26670000D02*
X79375000Y26670000D01*
X78740000Y26035000D02*
X78740000Y24324999D01*
X79375000Y26670000D02*
X78740000Y26035000D01*
X81280000Y24324999D02*
X81280000Y22860000D01*
X81280000Y22860000D02*
X81280000Y15240000D01*
X93345000Y19685000D02*
X88265000Y19685000D01*
X85090000Y22860000D02*
X81280000Y22860000D01*
X88265000Y19685000D02*
X85090000Y22860000D01*
D27*
X17780000Y20280000D02*
X22820000Y20280000D01*
X22820000Y20280000D02*
X29210000Y26670000D01*
X29210000Y26670000D02*
X37465000Y26670000D01*
X38100000Y26035000D02*
X38100000Y24324999D01*
X37465000Y26670000D02*
X38100000Y26035000D01*
X15780000Y22765000D02*
X15780000Y20280000D01*
X40640000Y26035000D02*
X38100000Y28575000D01*
X40640000Y24324999D02*
X40640000Y26035000D01*
X38100000Y28575000D02*
X28575000Y28575000D01*
X28575000Y28575000D02*
X23495000Y23495000D01*
X23495000Y23495000D02*
X16510000Y23495000D01*
X16510000Y23495000D02*
X15780000Y22765000D01*
D26*
X45720000Y47625000D02*
X45720000Y48260000D01*
X40640000Y39564999D02*
X40640000Y42545000D01*
X40640000Y42545000D02*
X45720000Y47625000D01*
X43180000Y39564999D02*
X43180000Y41910000D01*
X48260000Y46990000D02*
X48260000Y48260000D01*
X43180000Y41910000D02*
X48260000Y46990000D01*
X50800000Y46355000D02*
X50800000Y48260000D01*
X45720000Y39564999D02*
X45720000Y41275000D01*
X45720000Y41275000D02*
X50800000Y46355000D01*
X43180000Y17290000D02*
X45720000Y19830000D01*
X43180000Y15240000D02*
X43180000Y17290000D01*
X45720000Y19830000D02*
X45720000Y24324999D01*
X40640000Y15240000D02*
X40640000Y17780000D01*
X43180000Y20320000D02*
X43180000Y24324999D01*
X40640000Y17780000D02*
X43180000Y20320000D01*
X40640000Y46355000D02*
X40640000Y48260000D01*
X35560000Y39564999D02*
X35560000Y41275000D01*
X35560000Y41275000D02*
X40640000Y46355000D01*
X33020000Y39564999D02*
X33020000Y41910000D01*
X33020000Y41910000D02*
X38100000Y46990000D01*
X38100000Y46990000D02*
X38100000Y48260000D01*
X33020000Y24324999D02*
X33020000Y15240000D01*
X35560000Y24324999D02*
X35560000Y15240000D01*
X48260000Y24324999D02*
X48260000Y15240000D01*
X50800000Y24324999D02*
X50800000Y15240000D01*
X53340000Y24324999D02*
X53340000Y15240000D01*
X55880000Y24324999D02*
X55880000Y15240000D01*
X63500000Y46355000D02*
X63500000Y39564999D01*
X61595000Y48260000D02*
X63500000Y46355000D01*
X59055000Y48260000D02*
X59055000Y46990000D01*
X60960000Y45085000D02*
X60960000Y39564999D01*
X59055000Y46990000D02*
X60960000Y45085000D01*
X58420000Y44305000D02*
X58420000Y39564999D01*
X56515000Y48260000D02*
X56515000Y46210000D01*
X56515000Y46210000D02*
X58420000Y44305000D01*
X81280000Y37564999D02*
X81280000Y39564999D01*
X79910001Y36195000D02*
X81280000Y37564999D01*
X72390000Y36195000D02*
X79910001Y36195000D01*
X81280000Y41564999D02*
X84165001Y44450000D01*
X81280000Y39564999D02*
X81280000Y41564999D01*
X84165001Y44450000D02*
X88900000Y44450000D01*
X93345000Y12065000D02*
X85725000Y12065000D01*
X80645000Y31115000D02*
X82550000Y31115000D01*
X82550000Y31115000D02*
X86995000Y35560000D01*
X86995000Y35560000D02*
X92075000Y35560000D01*
X93400000Y34235000D02*
X93400000Y32385000D01*
X92075000Y35560000D02*
X93400000Y34235000D01*
D28*
X13970000Y41275000D02*
X15875000Y43180000D01*
X9525000Y41275000D02*
X12065000Y41275000D01*
X12065000Y41275000D02*
X13970000Y41275000D01*
X7125000Y41275000D02*
X9525000Y41275000D01*
X5715000Y39865000D02*
X7125000Y41275000D01*
X5715000Y13970000D02*
X5715000Y39865000D01*
X12065000Y7620000D02*
X5715000Y13970000D01*
X20320000Y7620000D02*
X12065000Y7620000D01*
D29*
G36*
X102108000Y3302000D02*
G01*
X2667000Y3302000D01*
X2667000Y7195279D01*
X4215000Y7195279D01*
X4215000Y6774721D01*
X4297047Y6362244D01*
X4457988Y5973698D01*
X4691637Y5624017D01*
X4989017Y5326637D01*
X5338698Y5092988D01*
X5727244Y4932047D01*
X6139721Y4850000D01*
X6560279Y4850000D01*
X6972756Y4932047D01*
X7361302Y5092988D01*
X7710983Y5326637D01*
X8008363Y5624017D01*
X8242012Y5973698D01*
X8402953Y6362244D01*
X8485000Y6774721D01*
X8485000Y7195279D01*
X8402953Y7607756D01*
X8242012Y7996302D01*
X8008363Y8345983D01*
X7710983Y8643363D01*
X7361302Y8877012D01*
X6972756Y9037953D01*
X6560279Y9120000D01*
X6139721Y9120000D01*
X5727244Y9037953D01*
X5338698Y8877012D01*
X4989017Y8643363D01*
X4691637Y8345983D01*
X4457988Y7996302D01*
X4297047Y7607756D01*
X4215000Y7195279D01*
X2667000Y7195279D01*
X2667000Y39865000D01*
X4373541Y39865000D01*
X4380001Y39799411D01*
X4380000Y14035579D01*
X4373541Y13970000D01*
X4380000Y13904422D01*
X4399317Y13708295D01*
X4475653Y13456647D01*
X4599618Y13224726D01*
X4766445Y13021445D01*
X4817392Y12979634D01*
X11074639Y6722386D01*
X11116445Y6671445D01*
X11319725Y6504618D01*
X11551646Y6380653D01*
X11803294Y6304317D01*
X12064999Y6278541D01*
X12130578Y6285000D01*
X19060019Y6285000D01*
X19115506Y6239463D01*
X19225820Y6180498D01*
X19345518Y6144188D01*
X19470000Y6131928D01*
X21170000Y6131928D01*
X21294482Y6144188D01*
X21414180Y6180498D01*
X21524494Y6239463D01*
X21621185Y6318815D01*
X21700537Y6415506D01*
X21759502Y6525820D01*
X21795812Y6645518D01*
X21808072Y6770000D01*
X21808072Y7493000D01*
X21923032Y7493000D01*
X21923076Y7343023D01*
X21995114Y7165560D01*
X22100389Y7005561D01*
X22234856Y6869175D01*
X22393347Y6761642D01*
X22569771Y6687096D01*
X22583024Y6683084D01*
X22733000Y6683320D01*
X22733000Y7493000D01*
X22987000Y7493000D01*
X22987000Y6683320D01*
X23136976Y6683084D01*
X23150229Y6687096D01*
X23326653Y6761642D01*
X23485144Y6869175D01*
X23619611Y7005561D01*
X23724886Y7165560D01*
X23736949Y7195279D01*
X95655000Y7195279D01*
X95655000Y6774721D01*
X95737047Y6362244D01*
X95897988Y5973698D01*
X96131637Y5624017D01*
X96429017Y5326637D01*
X96778698Y5092988D01*
X97167244Y4932047D01*
X97579721Y4850000D01*
X98000279Y4850000D01*
X98412756Y4932047D01*
X98801302Y5092988D01*
X99150983Y5326637D01*
X99448363Y5624017D01*
X99682012Y5973698D01*
X99842953Y6362244D01*
X99925000Y6774721D01*
X99925000Y7195279D01*
X99842953Y7607756D01*
X99682012Y7996302D01*
X99448363Y8345983D01*
X99150983Y8643363D01*
X98801302Y8877012D01*
X98412756Y9037953D01*
X98000279Y9120000D01*
X97579721Y9120000D01*
X97167244Y9037953D01*
X96778698Y8877012D01*
X96429017Y8643363D01*
X96131637Y8345983D01*
X95897988Y7996302D01*
X95737047Y7607756D01*
X95655000Y7195279D01*
X23736949Y7195279D01*
X23796924Y7343023D01*
X23796968Y7493000D01*
X22987000Y7493000D01*
X22733000Y7493000D01*
X21923032Y7493000D01*
X21808072Y7493000D01*
X21808072Y7747000D01*
X21923032Y7747000D01*
X22733000Y7747000D01*
X22733000Y8556680D01*
X22987000Y8556680D01*
X22987000Y7747000D01*
X23796968Y7747000D01*
X23796924Y7896977D01*
X23724886Y8074440D01*
X23619611Y8234439D01*
X23485144Y8370825D01*
X23326653Y8478358D01*
X23150229Y8552904D01*
X23136976Y8556916D01*
X22987000Y8556680D01*
X22733000Y8556680D01*
X22583024Y8556916D01*
X22569771Y8552904D01*
X22393347Y8478358D01*
X22234856Y8370825D01*
X22100389Y8234439D01*
X21995114Y8074440D01*
X21923076Y7896977D01*
X21923032Y7747000D01*
X21808072Y7747000D01*
X21808072Y8470000D01*
X21795812Y8594482D01*
X21759502Y8714180D01*
X21700537Y8824494D01*
X21621185Y8921185D01*
X21524494Y9000537D01*
X21414180Y9059502D01*
X21294482Y9095812D01*
X21170000Y9108072D01*
X19470000Y9108072D01*
X19345518Y9095812D01*
X19225820Y9059502D01*
X19115506Y9000537D01*
X19060019Y8955000D01*
X12617975Y8955000D01*
X9960910Y11612065D01*
X11851671Y11612065D01*
X12066650Y11412942D01*
X12397500Y11247885D01*
X12754193Y11150545D01*
X13123023Y11124664D01*
X13489815Y11171234D01*
X13840474Y11288467D01*
X14073350Y11412942D01*
X14288329Y11612065D01*
X13070000Y12830395D01*
X11851671Y11612065D01*
X9960910Y11612065D01*
X8615998Y12956977D01*
X11184664Y12956977D01*
X11231234Y12590185D01*
X11348467Y12239526D01*
X11472942Y12006650D01*
X11672065Y11791671D01*
X12890395Y13010000D01*
X13249605Y13010000D01*
X14467935Y11791671D01*
X14667058Y12006650D01*
X14832115Y12337500D01*
X14929455Y12694193D01*
X14955336Y13063023D01*
X14908766Y13429815D01*
X14791533Y13780474D01*
X14667058Y14013350D01*
X14467935Y14228329D01*
X13249605Y13010000D01*
X12890395Y13010000D01*
X11672065Y14228329D01*
X11472942Y14013350D01*
X11307885Y13682500D01*
X11210545Y13325807D01*
X11184664Y12956977D01*
X8615998Y12956977D01*
X7165040Y14407935D01*
X11851671Y14407935D01*
X13070000Y13189605D01*
X14288329Y14407935D01*
X14073350Y14607058D01*
X13742500Y14772115D01*
X13385807Y14869455D01*
X13016977Y14895336D01*
X12650185Y14848766D01*
X12299526Y14731533D01*
X12066650Y14607058D01*
X11851671Y14407935D01*
X7165040Y14407935D01*
X7050000Y14522974D01*
X7050000Y17691316D01*
X14802286Y17691316D01*
X14838374Y17502278D01*
X14910648Y17323913D01*
X14917791Y17310549D01*
X15024492Y17204097D01*
X15600395Y17780000D01*
X15024492Y18355903D01*
X14917791Y18249451D01*
X14842772Y18072222D01*
X14803771Y17883762D01*
X14802286Y17691316D01*
X7050000Y17691316D01*
X7050000Y20426260D01*
X14295000Y20426260D01*
X14295000Y20133740D01*
X14352068Y19846842D01*
X14464010Y19576589D01*
X14626525Y19333368D01*
X14833368Y19126525D01*
X15076589Y18964010D01*
X15346842Y18852068D01*
X15633740Y18795000D01*
X15926260Y18795000D01*
X16213158Y18852068D01*
X16361529Y18913525D01*
X16340498Y18874180D01*
X16304188Y18754482D01*
X16291928Y18630000D01*
X16291928Y18599633D01*
X16249451Y18642209D01*
X16072222Y18717228D01*
X15883762Y18756229D01*
X15691316Y18757714D01*
X15502278Y18721626D01*
X15323913Y18649352D01*
X15310549Y18642209D01*
X15204097Y18535508D01*
X15780000Y17959605D01*
X15794143Y17973747D01*
X15973748Y17794142D01*
X15959605Y17780000D01*
X15973748Y17765857D01*
X15794143Y17586252D01*
X15780000Y17600395D01*
X15204097Y17024492D01*
X15310549Y16917791D01*
X15487778Y16842772D01*
X15676238Y16803771D01*
X15868684Y16802286D01*
X16057722Y16838374D01*
X16236087Y16910648D01*
X16249451Y16917791D01*
X16291928Y16960367D01*
X16291928Y16930000D01*
X16304188Y16805518D01*
X16340498Y16685820D01*
X16399463Y16575506D01*
X16478815Y16478815D01*
X16575506Y16399463D01*
X16685820Y16340498D01*
X16805518Y16304188D01*
X16930000Y16291928D01*
X18630000Y16291928D01*
X18754482Y16304188D01*
X18874180Y16340498D01*
X18984494Y16399463D01*
X19081185Y16478815D01*
X19135501Y16545000D01*
X24674703Y16545000D01*
X24731181Y16476181D01*
X25010596Y16246871D01*
X25329378Y16076479D01*
X25675277Y15971552D01*
X25944861Y15945000D01*
X26125139Y15945000D01*
X26394723Y15971552D01*
X26740622Y16076479D01*
X27059404Y16246871D01*
X27338819Y16476181D01*
X27568129Y16755596D01*
X27738521Y17074378D01*
X27843448Y17420277D01*
X27878878Y17780000D01*
X27843448Y18139723D01*
X27738521Y18485622D01*
X27568129Y18804404D01*
X27338819Y19083819D01*
X27059404Y19313129D01*
X26740622Y19483521D01*
X26394723Y19588448D01*
X26125139Y19615000D01*
X25944861Y19615000D01*
X25675277Y19588448D01*
X25329378Y19483521D01*
X25010596Y19313129D01*
X24731181Y19083819D01*
X24674703Y19015000D01*
X19135501Y19015000D01*
X19081185Y19081185D01*
X19003426Y19145000D01*
X22764249Y19145000D01*
X22820000Y19139509D01*
X22875751Y19145000D01*
X22875752Y19145000D01*
X23042499Y19161423D01*
X23256447Y19226324D01*
X23453623Y19331716D01*
X23626449Y19473551D01*
X23661996Y19516865D01*
X29680133Y25535000D01*
X32239608Y25535000D01*
X32218899Y25523931D01*
X32000392Y25344607D01*
X31821068Y25126100D01*
X31687818Y24876807D01*
X31605764Y24606308D01*
X31578057Y24324999D01*
X31605764Y24043690D01*
X31687818Y23773191D01*
X31785000Y23591376D01*
X31785001Y16075968D01*
X31779294Y16069014D01*
X31641401Y15811034D01*
X31556487Y15531111D01*
X31527815Y15240000D01*
X31556487Y14948889D01*
X31641401Y14668966D01*
X31779294Y14410986D01*
X31964866Y14184866D01*
X32190986Y13999294D01*
X32448966Y13861401D01*
X32728889Y13776487D01*
X32947050Y13755000D01*
X33092950Y13755000D01*
X33311111Y13776487D01*
X33591034Y13861401D01*
X33849014Y13999294D01*
X34075134Y14184866D01*
X34099607Y14214687D01*
X34120498Y14145820D01*
X34179463Y14035506D01*
X34258815Y13938815D01*
X34355506Y13859463D01*
X34465820Y13800498D01*
X34585518Y13764188D01*
X34710000Y13751928D01*
X36410000Y13751928D01*
X36534482Y13764188D01*
X36654180Y13800498D01*
X36764494Y13859463D01*
X36861185Y13938815D01*
X36940537Y14035506D01*
X36999502Y14145820D01*
X37035812Y14265518D01*
X37048072Y14390000D01*
X37048072Y16090000D01*
X37035812Y16214482D01*
X36999502Y16334180D01*
X36940537Y16444494D01*
X36861185Y16541185D01*
X36795000Y16595501D01*
X36795000Y23591376D01*
X36830000Y23656857D01*
X36901068Y23523898D01*
X37080392Y23305391D01*
X37298899Y23126067D01*
X37548192Y22992817D01*
X37818691Y22910763D01*
X38029508Y22889999D01*
X38170492Y22889999D01*
X38381309Y22910763D01*
X38651808Y22992817D01*
X38901101Y23126067D01*
X39119608Y23305391D01*
X39298932Y23523898D01*
X39370000Y23656857D01*
X39441068Y23523898D01*
X39620392Y23305391D01*
X39838899Y23126067D01*
X40088192Y22992817D01*
X40358691Y22910763D01*
X40569508Y22889999D01*
X40710492Y22889999D01*
X40921309Y22910763D01*
X41191808Y22992817D01*
X41441101Y23126067D01*
X41659608Y23305391D01*
X41838932Y23523898D01*
X41910000Y23656857D01*
X41945001Y23591375D01*
X41945000Y20831554D01*
X39809621Y18696174D01*
X39762499Y18657502D01*
X39608168Y18469449D01*
X39529266Y18321833D01*
X39493489Y18254899D01*
X39422870Y18022102D01*
X39399025Y17780000D01*
X39405001Y17719325D01*
X39405000Y16075967D01*
X39399294Y16069014D01*
X39261401Y15811034D01*
X39176487Y15531111D01*
X39147815Y15240000D01*
X39176487Y14948889D01*
X39261401Y14668966D01*
X39399294Y14410986D01*
X39584866Y14184866D01*
X39810986Y13999294D01*
X40068966Y13861401D01*
X40348889Y13776487D01*
X40567050Y13755000D01*
X40712950Y13755000D01*
X40931111Y13776487D01*
X41211034Y13861401D01*
X41469014Y13999294D01*
X41695134Y14184866D01*
X41719607Y14214687D01*
X41740498Y14145820D01*
X41799463Y14035506D01*
X41878815Y13938815D01*
X41975506Y13859463D01*
X42085820Y13800498D01*
X42205518Y13764188D01*
X42330000Y13751928D01*
X44030000Y13751928D01*
X44154482Y13764188D01*
X44274180Y13800498D01*
X44384494Y13859463D01*
X44481185Y13938815D01*
X44560537Y14035506D01*
X44619502Y14145820D01*
X44655812Y14265518D01*
X44668072Y14390000D01*
X44668072Y16090000D01*
X44655812Y16214482D01*
X44619502Y16334180D01*
X44560537Y16444494D01*
X44481185Y16541185D01*
X44415000Y16595501D01*
X44415000Y16778447D01*
X46550381Y18913827D01*
X46597502Y18952498D01*
X46751833Y19140551D01*
X46866511Y19355099D01*
X46937130Y19587898D01*
X46955000Y19769335D01*
X46955000Y19769344D01*
X46960974Y19829999D01*
X46955000Y19890654D01*
X46955000Y23591376D01*
X46990000Y23656857D01*
X47025000Y23591376D01*
X47025001Y16075968D01*
X47019294Y16069014D01*
X46881401Y15811034D01*
X46796487Y15531111D01*
X46767815Y15240000D01*
X46796487Y14948889D01*
X46881401Y14668966D01*
X47019294Y14410986D01*
X47204866Y14184866D01*
X47430986Y13999294D01*
X47688966Y13861401D01*
X47968889Y13776487D01*
X48187050Y13755000D01*
X48332950Y13755000D01*
X48551111Y13776487D01*
X48831034Y13861401D01*
X49089014Y13999294D01*
X49315134Y14184866D01*
X49500706Y14410986D01*
X49530000Y14465791D01*
X49559294Y14410986D01*
X49744866Y14184866D01*
X49970986Y13999294D01*
X50228966Y13861401D01*
X50508889Y13776487D01*
X50727050Y13755000D01*
X50872950Y13755000D01*
X51091111Y13776487D01*
X51371034Y13861401D01*
X51629014Y13999294D01*
X51855134Y14184866D01*
X52040706Y14410986D01*
X52070000Y14465791D01*
X52099294Y14410986D01*
X52284866Y14184866D01*
X52510986Y13999294D01*
X52768966Y13861401D01*
X53048889Y13776487D01*
X53267050Y13755000D01*
X53412950Y13755000D01*
X53631111Y13776487D01*
X53911034Y13861401D01*
X54169014Y13999294D01*
X54395134Y14184866D01*
X54419607Y14214687D01*
X54440498Y14145820D01*
X54499463Y14035506D01*
X54578815Y13938815D01*
X54675506Y13859463D01*
X54785820Y13800498D01*
X54905518Y13764188D01*
X55030000Y13751928D01*
X56730000Y13751928D01*
X56854482Y13764188D01*
X56974180Y13800498D01*
X57084494Y13859463D01*
X57181185Y13938815D01*
X57260537Y14035506D01*
X57319502Y14145820D01*
X57355812Y14265518D01*
X57368072Y14390000D01*
X57368072Y16090000D01*
X57355812Y16214482D01*
X57319502Y16334180D01*
X57260537Y16444494D01*
X57181185Y16541185D01*
X57115000Y16595501D01*
X57115000Y23591376D01*
X57212182Y23773191D01*
X57294236Y24043690D01*
X57295439Y24055914D01*
X57532906Y24055914D01*
X57602447Y23888021D01*
X57703406Y23736921D01*
X57831903Y23608420D01*
X57983001Y23507457D01*
X58150916Y23437912D01*
X58293000Y23438803D01*
X58293000Y24197999D01*
X58547000Y24197999D01*
X58547000Y23438803D01*
X58689084Y23437912D01*
X58856999Y23507457D01*
X59008097Y23608420D01*
X59136594Y23736921D01*
X59237553Y23888021D01*
X59307094Y24055914D01*
X59306517Y24197999D01*
X58547000Y24197999D01*
X58293000Y24197999D01*
X57533483Y24197999D01*
X57532906Y24055914D01*
X57295439Y24055914D01*
X57321943Y24324999D01*
X57295440Y24594084D01*
X57532906Y24594084D01*
X57533483Y24451999D01*
X58293000Y24451999D01*
X58293000Y25211195D01*
X58547000Y25211195D01*
X58547000Y24451999D01*
X59306517Y24451999D01*
X59307094Y24594084D01*
X59237553Y24761977D01*
X59136594Y24913077D01*
X59008097Y25041578D01*
X58856999Y25142541D01*
X58689084Y25212086D01*
X58547000Y25211195D01*
X58293000Y25211195D01*
X58150916Y25212086D01*
X57983001Y25142541D01*
X57831903Y25041578D01*
X57703406Y24913077D01*
X57602447Y24761977D01*
X57532906Y24594084D01*
X57295440Y24594084D01*
X57294236Y24606308D01*
X57212182Y24876807D01*
X57078932Y25126100D01*
X56899608Y25344607D01*
X56681101Y25523931D01*
X56431808Y25657181D01*
X56161309Y25739235D01*
X55950492Y25759999D01*
X55809508Y25759999D01*
X55598691Y25739235D01*
X55328192Y25657181D01*
X55078899Y25523931D01*
X54860392Y25344607D01*
X54681068Y25126100D01*
X54610000Y24993141D01*
X54538932Y25126100D01*
X54359608Y25344607D01*
X54141101Y25523931D01*
X53891808Y25657181D01*
X53621309Y25739235D01*
X53410492Y25759999D01*
X53269508Y25759999D01*
X53058691Y25739235D01*
X52788192Y25657181D01*
X52538899Y25523931D01*
X52320392Y25344607D01*
X52141068Y25126100D01*
X52070000Y24993141D01*
X51998932Y25126100D01*
X51819608Y25344607D01*
X51601101Y25523931D01*
X51351808Y25657181D01*
X51081309Y25739235D01*
X50870492Y25759999D01*
X50729508Y25759999D01*
X50518691Y25739235D01*
X50248192Y25657181D01*
X49998899Y25523931D01*
X49780392Y25344607D01*
X49601068Y25126100D01*
X49530000Y24993141D01*
X49458932Y25126100D01*
X49279608Y25344607D01*
X49061101Y25523931D01*
X48811808Y25657181D01*
X48541309Y25739235D01*
X48330492Y25759999D01*
X48189508Y25759999D01*
X47978691Y25739235D01*
X47708192Y25657181D01*
X47458899Y25523931D01*
X47240392Y25344607D01*
X47061068Y25126100D01*
X46990000Y24993141D01*
X46918932Y25126100D01*
X46739608Y25344607D01*
X46521101Y25523931D01*
X46271808Y25657181D01*
X46001309Y25739235D01*
X45790492Y25759999D01*
X45649508Y25759999D01*
X45438691Y25739235D01*
X45168192Y25657181D01*
X44918899Y25523931D01*
X44700392Y25344607D01*
X44521068Y25126100D01*
X44450000Y24993141D01*
X44378932Y25126100D01*
X44199608Y25344607D01*
X43981101Y25523931D01*
X43731808Y25657181D01*
X43461309Y25739235D01*
X43250492Y25759999D01*
X43109508Y25759999D01*
X42898691Y25739235D01*
X42628192Y25657181D01*
X42378899Y25523931D01*
X42160392Y25344607D01*
X41981068Y25126100D01*
X41910000Y24993141D01*
X41838932Y25126100D01*
X41775000Y25204001D01*
X41775000Y25979259D01*
X41780490Y26035001D01*
X41775000Y26090743D01*
X41775000Y26090752D01*
X41758577Y26257499D01*
X41693676Y26471447D01*
X41588284Y26668623D01*
X41446449Y26841449D01*
X41403141Y26876991D01*
X38941996Y29338135D01*
X38906449Y29381449D01*
X38733623Y29523284D01*
X38536447Y29628676D01*
X38322499Y29693577D01*
X38155752Y29710000D01*
X38155751Y29710000D01*
X38100000Y29715491D01*
X38044249Y29710000D01*
X28630751Y29710000D01*
X28575000Y29715491D01*
X28519248Y29710000D01*
X28352501Y29693577D01*
X28138553Y29628676D01*
X27941377Y29523284D01*
X27768551Y29381449D01*
X27733009Y29338141D01*
X23024869Y24630000D01*
X16565751Y24630000D01*
X16510000Y24635491D01*
X16454248Y24630000D01*
X16287501Y24613577D01*
X16073553Y24548676D01*
X15876377Y24443284D01*
X15703551Y24301449D01*
X15668004Y24258135D01*
X15016865Y23606996D01*
X14973551Y23571449D01*
X14831716Y23398623D01*
X14763674Y23271323D01*
X14726324Y23201446D01*
X14661423Y22987498D01*
X14639509Y22765000D01*
X14645000Y22709248D01*
X14645001Y21245108D01*
X14626525Y21226632D01*
X14464010Y20983411D01*
X14352068Y20713158D01*
X14295000Y20426260D01*
X7050000Y20426260D01*
X7050000Y23652065D01*
X11851671Y23652065D01*
X12066650Y23452942D01*
X12397500Y23287885D01*
X12754193Y23190545D01*
X13123023Y23164664D01*
X13489815Y23211234D01*
X13840474Y23328467D01*
X14073350Y23452942D01*
X14288329Y23652065D01*
X13070000Y24870395D01*
X11851671Y23652065D01*
X7050000Y23652065D01*
X7050000Y24996977D01*
X11184664Y24996977D01*
X11231234Y24630185D01*
X11348467Y24279526D01*
X11472942Y24046650D01*
X11672065Y23831671D01*
X12890395Y25050000D01*
X13249605Y25050000D01*
X14467935Y23831671D01*
X14667058Y24046650D01*
X14832115Y24377500D01*
X14929455Y24734193D01*
X14955336Y25103023D01*
X14908766Y25469815D01*
X14791533Y25820474D01*
X14667058Y26053350D01*
X14467935Y26268329D01*
X13249605Y25050000D01*
X12890395Y25050000D01*
X11672065Y26268329D01*
X11472942Y26053350D01*
X11307885Y25722500D01*
X11210545Y25365807D01*
X11184664Y24996977D01*
X7050000Y24996977D01*
X7050000Y26447935D01*
X11851671Y26447935D01*
X13070000Y25229605D01*
X14288329Y26447935D01*
X14073350Y26647058D01*
X13742500Y26812115D01*
X13385807Y26909455D01*
X13016977Y26935336D01*
X12650185Y26888766D01*
X12299526Y26771533D01*
X12066650Y26647058D01*
X11851671Y26447935D01*
X7050000Y26447935D01*
X7050000Y31110358D01*
X37559963Y31110358D01*
X37660344Y31008801D01*
X37829001Y30938807D01*
X38008071Y30903061D01*
X38190674Y30902938D01*
X38369793Y30938441D01*
X38538543Y31008206D01*
X38539656Y31008801D01*
X38640037Y31110358D01*
X38100000Y31650395D01*
X37559963Y31110358D01*
X7050000Y31110358D01*
X7050000Y32755000D01*
X20562386Y32755000D01*
X20564838Y32730104D01*
X20572100Y32706164D01*
X20583893Y32684101D01*
X20599763Y32664763D01*
X20619101Y32648893D01*
X20641164Y32637100D01*
X20665104Y32629838D01*
X20690000Y32627386D01*
X21431250Y32628000D01*
X21463000Y32659750D01*
X21463000Y33528000D01*
X21717000Y33528000D01*
X21717000Y32659750D01*
X21748750Y32628000D01*
X22490000Y32627386D01*
X22514896Y32629838D01*
X22538836Y32637100D01*
X22560899Y32648893D01*
X22580237Y32664763D01*
X22596107Y32684101D01*
X22607900Y32706164D01*
X22615162Y32730104D01*
X22617614Y32755000D01*
X22617000Y33496250D01*
X22585250Y33528000D01*
X21717000Y33528000D01*
X21463000Y33528000D01*
X20594750Y33528000D01*
X20563000Y33496250D01*
X20562386Y32755000D01*
X7050000Y32755000D01*
X7050000Y33015358D01*
X15334963Y33015358D01*
X15435344Y32913801D01*
X15604001Y32843807D01*
X15783071Y32808061D01*
X15965674Y32807938D01*
X16144793Y32843441D01*
X16313543Y32913206D01*
X16314656Y32913801D01*
X16415037Y33015358D01*
X15875000Y33555395D01*
X15334963Y33015358D01*
X7050000Y33015358D01*
X7050000Y33644326D01*
X14947938Y33644326D01*
X14983441Y33465207D01*
X15053206Y33296457D01*
X15053801Y33295344D01*
X15155358Y33194963D01*
X15695395Y33735000D01*
X16054605Y33735000D01*
X16594642Y33194963D01*
X16696199Y33295344D01*
X16766193Y33464001D01*
X16801939Y33643071D01*
X16802062Y33825674D01*
X16766559Y34004793D01*
X16696794Y34173543D01*
X16696199Y34174656D01*
X16594642Y34275037D01*
X16054605Y33735000D01*
X15695395Y33735000D01*
X15155358Y34275037D01*
X15053801Y34174656D01*
X14983807Y34005999D01*
X14948061Y33826929D01*
X14947938Y33644326D01*
X7050000Y33644326D01*
X7050000Y34454642D01*
X15334963Y34454642D01*
X15875000Y33914605D01*
X16415037Y34454642D01*
X16314656Y34556199D01*
X16145999Y34626193D01*
X15966929Y34661939D01*
X15784326Y34662062D01*
X15605207Y34626559D01*
X15436457Y34556794D01*
X15435344Y34556199D01*
X15334963Y34454642D01*
X7050000Y34454642D01*
X7050000Y36346184D01*
X20055000Y36346184D01*
X20055000Y36043816D01*
X20113989Y35747257D01*
X20229701Y35467905D01*
X20397688Y35216495D01*
X20611495Y35002688D01*
X20862905Y34834701D01*
X21142257Y34718989D01*
X21327783Y34682086D01*
X20690000Y34682614D01*
X20665104Y34680162D01*
X20641164Y34672900D01*
X20619101Y34661107D01*
X20599763Y34645237D01*
X20583893Y34625899D01*
X20572100Y34603836D01*
X20564838Y34579896D01*
X20562386Y34555000D01*
X20563000Y33813750D01*
X20594750Y33782000D01*
X21463000Y33782000D01*
X21463000Y33802000D01*
X21717000Y33802000D01*
X21717000Y33782000D01*
X22585250Y33782000D01*
X22617000Y33813750D01*
X22617614Y34555000D01*
X22615162Y34579896D01*
X22607900Y34603836D01*
X22596107Y34625899D01*
X22580237Y34645237D01*
X22560899Y34661107D01*
X22538836Y34672900D01*
X22514896Y34680162D01*
X22490000Y34682614D01*
X21852217Y34682086D01*
X22037743Y34718989D01*
X22317095Y34834701D01*
X22568505Y35002688D01*
X22782312Y35216495D01*
X22950299Y35467905D01*
X23066011Y35747257D01*
X23125000Y36043816D01*
X23125000Y36346184D01*
X23066011Y36642743D01*
X22950299Y36922095D01*
X22825000Y37109618D01*
X22825000Y38635377D01*
X22861680Y38690273D01*
X22969853Y38951426D01*
X23025000Y39228665D01*
X23025000Y39511335D01*
X22969853Y39788574D01*
X22861680Y40049727D01*
X22704637Y40284759D01*
X22504759Y40484637D01*
X22269727Y40641680D01*
X22008574Y40749853D01*
X21731335Y40805000D01*
X21448665Y40805000D01*
X21171426Y40749853D01*
X20910273Y40641680D01*
X20675241Y40484637D01*
X20475363Y40284759D01*
X20318320Y40049727D01*
X20210147Y39788574D01*
X20155000Y39511335D01*
X20155000Y39228665D01*
X20210147Y38951426D01*
X20318320Y38690273D01*
X20355000Y38635377D01*
X20355001Y37109619D01*
X20229701Y36922095D01*
X20113989Y36642743D01*
X20055000Y36346184D01*
X7050000Y36346184D01*
X7050000Y39312026D01*
X7677975Y39940000D01*
X8017447Y39940000D01*
X8073815Y39871315D01*
X8170506Y39791963D01*
X8280820Y39732998D01*
X8400518Y39696688D01*
X8525000Y39684428D01*
X10525000Y39684428D01*
X10649482Y39696688D01*
X10769180Y39732998D01*
X10879494Y39791963D01*
X10976185Y39871315D01*
X11032553Y39940000D01*
X13904421Y39940000D01*
X13970000Y39933541D01*
X14035579Y39940000D01*
X14231706Y39959317D01*
X14483354Y40035653D01*
X14715275Y40159618D01*
X14918555Y40326445D01*
X14960365Y40377391D01*
X16865359Y42282383D01*
X16990382Y42434725D01*
X17114346Y42666645D01*
X17190683Y42918294D01*
X17216459Y43180000D01*
X17190683Y43441705D01*
X17114346Y43693354D01*
X16990382Y43925274D01*
X16823554Y44128554D01*
X16620274Y44295382D01*
X16388354Y44419346D01*
X16136705Y44495683D01*
X16129925Y44496351D01*
X16195104Y44523350D01*
X16271072Y44604323D01*
X15875000Y45000395D01*
X15478928Y44604323D01*
X15554896Y44523350D01*
X15626051Y44496939D01*
X15613294Y44495683D01*
X15361645Y44419346D01*
X15129725Y44295382D01*
X14977383Y44170359D01*
X13417026Y42610000D01*
X11032553Y42610000D01*
X10976185Y42678685D01*
X10879494Y42758037D01*
X10769180Y42817002D01*
X10649482Y42853312D01*
X10525000Y42865572D01*
X10073326Y42865572D01*
X10201876Y42940105D01*
X10360466Y43079701D01*
X10488775Y43247554D01*
X10581872Y43437214D01*
X10611438Y43521865D01*
X10612525Y43688000D01*
X9652000Y43688000D01*
X9652000Y43668000D01*
X9398000Y43668000D01*
X9398000Y43688000D01*
X8437475Y43688000D01*
X8438562Y43521865D01*
X8468128Y43437214D01*
X8561225Y43247554D01*
X8689534Y43079701D01*
X8848124Y42940105D01*
X8976674Y42865572D01*
X8525000Y42865572D01*
X8400518Y42853312D01*
X8280820Y42817002D01*
X8170506Y42758037D01*
X8073815Y42678685D01*
X8017447Y42610000D01*
X7190578Y42610000D01*
X7124999Y42616459D01*
X6925725Y42596832D01*
X6863294Y42590683D01*
X6611646Y42514347D01*
X6379725Y42390382D01*
X6176445Y42223555D01*
X6134641Y42172616D01*
X4817387Y40855361D01*
X4766446Y40813555D01*
X4689252Y40719493D01*
X4599618Y40610274D01*
X4475654Y40378354D01*
X4399317Y40126705D01*
X4373541Y39865000D01*
X2667000Y39865000D01*
X2667000Y46355000D01*
X7882319Y46355000D01*
X7912970Y46043796D01*
X8003745Y45744551D01*
X8151155Y45468765D01*
X8349537Y45227037D01*
X8591265Y45028655D01*
X8867051Y44881245D01*
X9086220Y44814761D01*
X9030901Y44795869D01*
X8848124Y44689895D01*
X8689534Y44550299D01*
X8561225Y44382446D01*
X8468128Y44192786D01*
X8438562Y44108135D01*
X8437475Y43942000D01*
X9398000Y43942000D01*
X9398000Y43962000D01*
X9652000Y43962000D01*
X9652000Y43942000D01*
X10612525Y43942000D01*
X10611438Y44108135D01*
X10581872Y44192786D01*
X10488775Y44382446D01*
X10360466Y44550299D01*
X10201876Y44689895D01*
X10019099Y44795869D01*
X9963780Y44814761D01*
X10182949Y44881245D01*
X10458735Y45028655D01*
X10570039Y45120000D01*
X11664335Y45120000D01*
X11725000Y45114025D01*
X11785665Y45120000D01*
X11967102Y45137870D01*
X12199901Y45208489D01*
X12229760Y45224449D01*
X15145835Y45224449D01*
X15151174Y45081342D01*
X15184329Y44942027D01*
X15218350Y44859896D01*
X15299323Y44783928D01*
X15695395Y45180000D01*
X16054605Y45180000D01*
X16450677Y44783928D01*
X16531650Y44859896D01*
X16581482Y44994152D01*
X16604165Y45135551D01*
X16598826Y45278658D01*
X16565671Y45417973D01*
X16531650Y45500104D01*
X16450677Y45576072D01*
X16054605Y45180000D01*
X15695395Y45180000D01*
X15299323Y45576072D01*
X15218350Y45500104D01*
X15168518Y45365848D01*
X15145835Y45224449D01*
X12229760Y45224449D01*
X12414449Y45323167D01*
X12602502Y45477498D01*
X12641178Y45524625D01*
X12872230Y45755677D01*
X15478928Y45755677D01*
X15875000Y45359605D01*
X16271072Y45755677D01*
X16195104Y45836650D01*
X16060848Y45886482D01*
X15919449Y45909165D01*
X15776342Y45903826D01*
X15637027Y45870671D01*
X15554896Y45836650D01*
X15478928Y45755677D01*
X12872230Y45755677D01*
X15411554Y48295000D01*
X17903447Y48295000D01*
X18450001Y47748445D01*
X18450000Y43056554D01*
X15521180Y40127734D01*
X15456426Y40114853D01*
X15195273Y40006680D01*
X14960241Y39849637D01*
X14760363Y39649759D01*
X14603320Y39414727D01*
X14495147Y39153574D01*
X14440000Y38876335D01*
X14440000Y38593665D01*
X14495147Y38316426D01*
X14603320Y38055273D01*
X14760363Y37820241D01*
X14960241Y37620363D01*
X15195273Y37463320D01*
X15456426Y37355147D01*
X15733665Y37300000D01*
X16016335Y37300000D01*
X16293574Y37355147D01*
X16554727Y37463320D01*
X16789759Y37620363D01*
X16989637Y37820241D01*
X17146680Y38055273D01*
X17254853Y38316426D01*
X17267734Y38381180D01*
X20196554Y41310000D01*
X23618447Y41310000D01*
X24800001Y40128445D01*
X24800000Y38221637D01*
X24800000Y37978363D01*
X24800001Y37978358D01*
X24800000Y34854625D01*
X24710518Y34845812D01*
X24590820Y34809502D01*
X24480506Y34750537D01*
X24383815Y34671185D01*
X24304463Y34574494D01*
X24245498Y34464180D01*
X24209188Y34344482D01*
X24196928Y34220000D01*
X24196928Y31820000D01*
X24209188Y31695518D01*
X24245498Y31575820D01*
X24304463Y31465506D01*
X24383815Y31368815D01*
X24480506Y31289463D01*
X24590820Y31230498D01*
X24710518Y31194188D01*
X24835000Y31181928D01*
X27235000Y31181928D01*
X27359482Y31194188D01*
X27479180Y31230498D01*
X27589494Y31289463D01*
X27686185Y31368815D01*
X27765537Y31465506D01*
X27824502Y31575820D01*
X27860812Y31695518D01*
X27865126Y31739326D01*
X37172938Y31739326D01*
X37208441Y31560207D01*
X37278206Y31391457D01*
X37278801Y31390344D01*
X37380358Y31289963D01*
X37920395Y31830000D01*
X38279605Y31830000D01*
X38819642Y31289963D01*
X38921199Y31390344D01*
X38991193Y31559001D01*
X39026939Y31738071D01*
X39027062Y31920674D01*
X38991559Y32099793D01*
X38921794Y32268543D01*
X38921199Y32269656D01*
X38819642Y32370037D01*
X38279605Y31830000D01*
X37920395Y31830000D01*
X37380358Y32370037D01*
X37278801Y32269656D01*
X37208807Y32100999D01*
X37173061Y31921929D01*
X37172938Y31739326D01*
X27865126Y31739326D01*
X27873072Y31820000D01*
X27873072Y32549642D01*
X37559963Y32549642D01*
X38100000Y32009605D01*
X38640037Y32549642D01*
X38539656Y32651199D01*
X38370999Y32721193D01*
X38191929Y32756939D01*
X38009326Y32757062D01*
X37830207Y32721559D01*
X37661457Y32651794D01*
X37660344Y32651199D01*
X37559963Y32549642D01*
X27873072Y32549642D01*
X27873072Y34220000D01*
X27860812Y34344482D01*
X27824502Y34464180D01*
X27765537Y34574494D01*
X27686185Y34671185D01*
X27589494Y34750537D01*
X27479180Y34809502D01*
X27359482Y34845812D01*
X27270000Y34854625D01*
X27270000Y37524323D01*
X27638928Y37524323D01*
X27714896Y37443350D01*
X27849152Y37393518D01*
X27990551Y37370835D01*
X28133658Y37376174D01*
X28272973Y37409329D01*
X28355104Y37443350D01*
X28431072Y37524323D01*
X28035000Y37920395D01*
X27638928Y37524323D01*
X27270000Y37524323D01*
X27270000Y38144449D01*
X27305835Y38144449D01*
X27311174Y38001342D01*
X27344329Y37862027D01*
X27378350Y37779896D01*
X27459323Y37703928D01*
X27855395Y38100000D01*
X28214605Y38100000D01*
X28610677Y37703928D01*
X28691650Y37779896D01*
X28741482Y37914152D01*
X28764165Y38055551D01*
X28758826Y38198658D01*
X28725671Y38337973D01*
X28691650Y38420104D01*
X28610677Y38496072D01*
X28214605Y38100000D01*
X27855395Y38100000D01*
X27459323Y38496072D01*
X27378350Y38420104D01*
X27328518Y38285848D01*
X27305835Y38144449D01*
X27270000Y38144449D01*
X27270000Y38675677D01*
X27638928Y38675677D01*
X28035000Y38279605D01*
X28431072Y38675677D01*
X28355104Y38756650D01*
X28220848Y38806482D01*
X28079449Y38829165D01*
X27936342Y38823826D01*
X27797027Y38790671D01*
X27714896Y38756650D01*
X27638928Y38675677D01*
X27270000Y38675677D01*
X27270000Y39564999D01*
X31578057Y39564999D01*
X31605764Y39283690D01*
X31687818Y39013191D01*
X31821068Y38763898D01*
X32000392Y38545391D01*
X32218899Y38366067D01*
X32468192Y38232817D01*
X32738691Y38150763D01*
X32949508Y38129999D01*
X33090492Y38129999D01*
X33301309Y38150763D01*
X33571808Y38232817D01*
X33821101Y38366067D01*
X34039608Y38545391D01*
X34218932Y38763898D01*
X34290000Y38896857D01*
X34361068Y38763898D01*
X34540392Y38545391D01*
X34758899Y38366067D01*
X35008192Y38232817D01*
X35278691Y38150763D01*
X35489508Y38129999D01*
X35630492Y38129999D01*
X35841309Y38150763D01*
X36111808Y38232817D01*
X36361101Y38366067D01*
X36579608Y38545391D01*
X36758932Y38763898D01*
X36830000Y38896857D01*
X36901068Y38763898D01*
X36965000Y38685996D01*
X36965001Y37714285D01*
X36828320Y37509727D01*
X36720147Y37248574D01*
X36665000Y36971335D01*
X36665000Y36688665D01*
X36720147Y36411426D01*
X36828320Y36150273D01*
X36985363Y35915241D01*
X37185241Y35715363D01*
X37420273Y35558320D01*
X37681426Y35450147D01*
X37958665Y35395000D01*
X38241335Y35395000D01*
X38518574Y35450147D01*
X38779727Y35558320D01*
X39014759Y35715363D01*
X39214637Y35915241D01*
X39371680Y36150273D01*
X39479853Y36411426D01*
X39535000Y36688665D01*
X39535000Y36971335D01*
X39479853Y37248574D01*
X39371680Y37509727D01*
X39235000Y37714284D01*
X39235000Y38685997D01*
X39298932Y38763898D01*
X39370000Y38896857D01*
X39441068Y38763898D01*
X39620392Y38545391D01*
X39838899Y38366067D01*
X40088192Y38232817D01*
X40358691Y38150763D01*
X40569508Y38129999D01*
X40710492Y38129999D01*
X40921309Y38150763D01*
X41191808Y38232817D01*
X41441101Y38366067D01*
X41659608Y38545391D01*
X41838932Y38763898D01*
X41910000Y38896857D01*
X41981068Y38763898D01*
X42160392Y38545391D01*
X42378899Y38366067D01*
X42628192Y38232817D01*
X42898691Y38150763D01*
X43109508Y38129999D01*
X43250492Y38129999D01*
X43461309Y38150763D01*
X43731808Y38232817D01*
X43981101Y38366067D01*
X44199608Y38545391D01*
X44378932Y38763898D01*
X44450000Y38896857D01*
X44521068Y38763898D01*
X44700392Y38545391D01*
X44918899Y38366067D01*
X45168192Y38232817D01*
X45438691Y38150763D01*
X45649508Y38129999D01*
X45790492Y38129999D01*
X46001309Y38150763D01*
X46271808Y38232817D01*
X46521101Y38366067D01*
X46739608Y38545391D01*
X46918932Y38763898D01*
X46990000Y38896857D01*
X47061068Y38763898D01*
X47125000Y38685996D01*
X47125001Y37300133D01*
X46226865Y36401996D01*
X46183551Y36366449D01*
X46041716Y36193623D01*
X45950812Y36023551D01*
X45936324Y35996446D01*
X45871423Y35782498D01*
X45849509Y35560000D01*
X45855000Y35504248D01*
X45855001Y29900761D01*
X45849509Y29845000D01*
X45871423Y29622502D01*
X45936324Y29408554D01*
X45966908Y29351335D01*
X46041717Y29211377D01*
X46183552Y29038551D01*
X46226860Y29003009D01*
X46783008Y28446860D01*
X46818551Y28403551D01*
X46904642Y28332898D01*
X46991377Y28261716D01*
X47188553Y28156324D01*
X47402501Y28091423D01*
X47625000Y28069509D01*
X47680752Y28075000D01*
X48735714Y28075000D01*
X48873957Y27982629D01*
X49126011Y27878225D01*
X49393589Y27825000D01*
X49666411Y27825000D01*
X49933989Y27878225D01*
X50186043Y27982629D01*
X50324286Y28075000D01*
X53725716Y28075000D01*
X53930273Y27938320D01*
X54191426Y27830147D01*
X54468665Y27775000D01*
X54751335Y27775000D01*
X55028574Y27830147D01*
X55289727Y27938320D01*
X55524759Y28095363D01*
X55724637Y28295241D01*
X55855009Y28490358D01*
X56569963Y28490358D01*
X56670344Y28388801D01*
X56839001Y28318807D01*
X57018071Y28283061D01*
X57200674Y28282938D01*
X57379793Y28318441D01*
X57548543Y28388206D01*
X57549656Y28388801D01*
X57650037Y28490358D01*
X57110000Y29030395D01*
X56569963Y28490358D01*
X55855009Y28490358D01*
X55881680Y28530273D01*
X55989853Y28791426D01*
X56045000Y29068665D01*
X56045000Y29119326D01*
X56182938Y29119326D01*
X56218441Y28940207D01*
X56288206Y28771457D01*
X56288801Y28770344D01*
X56390358Y28669963D01*
X56930395Y29210000D01*
X57289605Y29210000D01*
X57829642Y28669963D01*
X57931199Y28770344D01*
X58001193Y28939001D01*
X58036939Y29118071D01*
X58037062Y29300674D01*
X58001559Y29479793D01*
X57931794Y29648543D01*
X57931199Y29649656D01*
X57829642Y29750037D01*
X57289605Y29210000D01*
X56930395Y29210000D01*
X56390358Y29750037D01*
X56288801Y29649656D01*
X56218807Y29480999D01*
X56183061Y29301929D01*
X56182938Y29119326D01*
X56045000Y29119326D01*
X56045000Y29351335D01*
X55989853Y29628574D01*
X55881680Y29889727D01*
X55855010Y29929642D01*
X56569963Y29929642D01*
X57110000Y29389605D01*
X57650037Y29929642D01*
X57549656Y30031199D01*
X57380999Y30101193D01*
X57201929Y30136939D01*
X57019326Y30137062D01*
X56840207Y30101559D01*
X56671457Y30031794D01*
X56670344Y30031199D01*
X56569963Y29929642D01*
X55855010Y29929642D01*
X55724637Y30124759D01*
X55524759Y30324637D01*
X55289727Y30481680D01*
X55028574Y30589853D01*
X54751335Y30645000D01*
X54468665Y30645000D01*
X54191426Y30589853D01*
X53930273Y30481680D01*
X53725716Y30345000D01*
X50324286Y30345000D01*
X50186043Y30437371D01*
X49933989Y30541775D01*
X49666411Y30595000D01*
X49393589Y30595000D01*
X49126011Y30541775D01*
X48873957Y30437371D01*
X48735714Y30345000D01*
X48125000Y30345000D01*
X48125000Y35089869D01*
X49023140Y35988008D01*
X49066449Y36023551D01*
X49208284Y36196377D01*
X49313676Y36393553D01*
X49372509Y36587498D01*
X49378577Y36607500D01*
X49382048Y36642743D01*
X49395000Y36774248D01*
X49395000Y36774255D01*
X49400490Y36829999D01*
X49395000Y36885743D01*
X49395000Y38685997D01*
X49458932Y38763898D01*
X49530000Y38896857D01*
X49601068Y38763898D01*
X49665000Y38685996D01*
X49665001Y35830132D01*
X49501855Y35666986D01*
X49458552Y35631448D01*
X49423014Y35588145D01*
X49289081Y35454212D01*
X49126011Y35421775D01*
X48873957Y35317371D01*
X48647114Y35165799D01*
X48454201Y34972886D01*
X48302629Y34746043D01*
X48198225Y34493989D01*
X48145000Y34226411D01*
X48145000Y33953589D01*
X48198225Y33686011D01*
X48302629Y33433957D01*
X48454201Y33207114D01*
X48647114Y33014201D01*
X48873957Y32862629D01*
X49126011Y32758225D01*
X49393589Y32705000D01*
X49666411Y32705000D01*
X49933989Y32758225D01*
X50186043Y32862629D01*
X50412886Y33014201D01*
X50571829Y33173144D01*
X50577501Y33171423D01*
X50744248Y33155000D01*
X50744257Y33155000D01*
X50799999Y33149510D01*
X50855741Y33155000D01*
X53725716Y33155000D01*
X53930273Y33018320D01*
X54191426Y32910147D01*
X54468665Y32855000D01*
X54751335Y32855000D01*
X55028574Y32910147D01*
X55289727Y33018320D01*
X55524759Y33175363D01*
X55724637Y33375241D01*
X55855009Y33570358D01*
X56569963Y33570358D01*
X56670344Y33468801D01*
X56839001Y33398807D01*
X57018071Y33363061D01*
X57200674Y33362938D01*
X57379793Y33398441D01*
X57548543Y33468206D01*
X57549656Y33468801D01*
X57650037Y33570358D01*
X57110000Y34110395D01*
X56569963Y33570358D01*
X55855009Y33570358D01*
X55881680Y33610273D01*
X55989853Y33871426D01*
X56045000Y34148665D01*
X56045000Y34199326D01*
X56182938Y34199326D01*
X56218441Y34020207D01*
X56288206Y33851457D01*
X56288801Y33850344D01*
X56390358Y33749963D01*
X56930395Y34290000D01*
X57289605Y34290000D01*
X57829642Y33749963D01*
X57931199Y33850344D01*
X58001193Y34019001D01*
X58036939Y34198071D01*
X58037062Y34380674D01*
X58001559Y34559793D01*
X57931794Y34728543D01*
X57931199Y34729656D01*
X57829642Y34830037D01*
X57289605Y34290000D01*
X56930395Y34290000D01*
X56390358Y34830037D01*
X56288801Y34729656D01*
X56218807Y34560999D01*
X56183061Y34381929D01*
X56182938Y34199326D01*
X56045000Y34199326D01*
X56045000Y34431335D01*
X55989853Y34708574D01*
X55881680Y34969727D01*
X55855010Y35009642D01*
X56569963Y35009642D01*
X57110000Y34469605D01*
X57650037Y35009642D01*
X57549656Y35111199D01*
X57380999Y35181193D01*
X57201929Y35216939D01*
X57019326Y35217062D01*
X56840207Y35181559D01*
X56671457Y35111794D01*
X56670344Y35111199D01*
X56569963Y35009642D01*
X55855010Y35009642D01*
X55724637Y35204759D01*
X55524759Y35404637D01*
X55289727Y35561680D01*
X55028574Y35669853D01*
X54751335Y35725000D01*
X54468665Y35725000D01*
X54191426Y35669853D01*
X53930273Y35561680D01*
X53725716Y35425000D01*
X51935000Y35425000D01*
X51935000Y38685997D01*
X51998932Y38763898D01*
X52132182Y39013191D01*
X52214236Y39283690D01*
X52215439Y39295914D01*
X52452906Y39295914D01*
X52522447Y39128021D01*
X52623406Y38976921D01*
X52751903Y38848420D01*
X52903001Y38747457D01*
X53070916Y38677912D01*
X53213000Y38678803D01*
X53213000Y39437999D01*
X53467000Y39437999D01*
X53467000Y38678803D01*
X53609084Y38677912D01*
X53776999Y38747457D01*
X53928097Y38848420D01*
X54056594Y38976921D01*
X54157553Y39128021D01*
X54227094Y39295914D01*
X54226517Y39437999D01*
X53467000Y39437999D01*
X53213000Y39437999D01*
X52453483Y39437999D01*
X52452906Y39295914D01*
X52215439Y39295914D01*
X52241943Y39564999D01*
X52215440Y39834084D01*
X52452906Y39834084D01*
X52453483Y39691999D01*
X53213000Y39691999D01*
X53213000Y40451195D01*
X53467000Y40451195D01*
X53467000Y39691999D01*
X54226517Y39691999D01*
X54227094Y39834084D01*
X54157553Y40001977D01*
X54056594Y40153077D01*
X53928097Y40281578D01*
X53776999Y40382541D01*
X53609084Y40452086D01*
X53467000Y40451195D01*
X53213000Y40451195D01*
X53070916Y40452086D01*
X52903001Y40382541D01*
X52751903Y40281578D01*
X52623406Y40153077D01*
X52522447Y40001977D01*
X52452906Y39834084D01*
X52215440Y39834084D01*
X52214236Y39846308D01*
X52132182Y40116807D01*
X51998932Y40366100D01*
X51819608Y40584607D01*
X51601101Y40763931D01*
X51351808Y40897181D01*
X51081309Y40979235D01*
X50870492Y40999999D01*
X50729508Y40999999D01*
X50518691Y40979235D01*
X50248192Y40897181D01*
X49998899Y40763931D01*
X49780392Y40584607D01*
X49601068Y40366100D01*
X49530000Y40233141D01*
X49458932Y40366100D01*
X49279608Y40584607D01*
X49061101Y40763931D01*
X48811808Y40897181D01*
X48541309Y40979235D01*
X48330492Y40999999D01*
X48189508Y40999999D01*
X47978691Y40979235D01*
X47708192Y40897181D01*
X47458899Y40763931D01*
X47240392Y40584607D01*
X47061068Y40366100D01*
X46990000Y40233141D01*
X46955000Y40298622D01*
X46955000Y40763447D01*
X51630381Y45438827D01*
X51677502Y45477498D01*
X51831833Y45665551D01*
X51946511Y45880099D01*
X52017130Y46112898D01*
X52035000Y46294335D01*
X52035000Y46294336D01*
X52040975Y46355000D01*
X52035000Y46415665D01*
X52035000Y47424033D01*
X52040706Y47430986D01*
X52178599Y47688966D01*
X52263513Y47968889D01*
X52292185Y48260000D01*
X52263513Y48551111D01*
X52178599Y48831034D01*
X52040706Y49089014D01*
X51855134Y49315134D01*
X51629014Y49500706D01*
X51371034Y49638599D01*
X51091111Y49723513D01*
X50872950Y49745000D01*
X50727050Y49745000D01*
X50508889Y49723513D01*
X50228966Y49638599D01*
X49970986Y49500706D01*
X49744866Y49315134D01*
X49559294Y49089014D01*
X49530000Y49034209D01*
X49500706Y49089014D01*
X49315134Y49315134D01*
X49089014Y49500706D01*
X48831034Y49638599D01*
X48551111Y49723513D01*
X48332950Y49745000D01*
X48187050Y49745000D01*
X47968889Y49723513D01*
X47688966Y49638599D01*
X47430986Y49500706D01*
X47204866Y49315134D01*
X47180393Y49285313D01*
X47159502Y49354180D01*
X47100537Y49464494D01*
X47021185Y49561185D01*
X46924494Y49640537D01*
X46814180Y49699502D01*
X46694482Y49735812D01*
X46570000Y49748072D01*
X44870000Y49748072D01*
X44745518Y49735812D01*
X44625820Y49699502D01*
X44515506Y49640537D01*
X44418815Y49561185D01*
X44339463Y49464494D01*
X44280498Y49354180D01*
X44244188Y49234482D01*
X44231928Y49110000D01*
X44231928Y47883482D01*
X39809621Y43461174D01*
X39762499Y43422502D01*
X39608168Y43234449D01*
X39494648Y43022068D01*
X39493489Y43019899D01*
X39422870Y42787102D01*
X39399025Y42545000D01*
X39405001Y42484325D01*
X39405000Y40298622D01*
X39370000Y40233141D01*
X39298932Y40366100D01*
X39119608Y40584607D01*
X38901101Y40763931D01*
X38651808Y40897181D01*
X38381309Y40979235D01*
X38170492Y40999999D01*
X38029508Y40999999D01*
X37818691Y40979235D01*
X37548192Y40897181D01*
X37298899Y40763931D01*
X37080392Y40584607D01*
X36901068Y40366100D01*
X36830000Y40233141D01*
X36795000Y40298622D01*
X36795000Y40763447D01*
X41470381Y45438827D01*
X41517502Y45477498D01*
X41671833Y45665551D01*
X41786511Y45880099D01*
X41857130Y46112898D01*
X41875000Y46294335D01*
X41875000Y46294336D01*
X41880975Y46355000D01*
X41875000Y46415665D01*
X41875000Y47424033D01*
X41880706Y47430986D01*
X42018599Y47688966D01*
X42103513Y47968889D01*
X42132185Y48260000D01*
X42103513Y48551111D01*
X42018599Y48831034D01*
X41880706Y49089014D01*
X41695134Y49315134D01*
X41469014Y49500706D01*
X41211034Y49638599D01*
X40931111Y49723513D01*
X40712950Y49745000D01*
X40567050Y49745000D01*
X40348889Y49723513D01*
X40068966Y49638599D01*
X39810986Y49500706D01*
X39584866Y49315134D01*
X39560393Y49285313D01*
X39539502Y49354180D01*
X39480537Y49464494D01*
X39401185Y49561185D01*
X39304494Y49640537D01*
X39194180Y49699502D01*
X39074482Y49735812D01*
X38950000Y49748072D01*
X37250000Y49748072D01*
X37125518Y49735812D01*
X37005820Y49699502D01*
X36895506Y49640537D01*
X36798815Y49561185D01*
X36719463Y49464494D01*
X36660498Y49354180D01*
X36624188Y49234482D01*
X36611928Y49110000D01*
X36611928Y47410000D01*
X36624188Y47285518D01*
X36629955Y47266508D01*
X32189621Y42826174D01*
X32142499Y42787502D01*
X31988168Y42599449D01*
X31879091Y42395379D01*
X31873489Y42384899D01*
X31802870Y42152102D01*
X31779025Y41910000D01*
X31785001Y41849325D01*
X31785000Y40298622D01*
X31687818Y40116807D01*
X31605764Y39846308D01*
X31578057Y39564999D01*
X27270000Y39564999D01*
X27270000Y40579335D01*
X27275975Y40640000D01*
X27252130Y40882102D01*
X27189034Y41090100D01*
X27181511Y41114901D01*
X27066833Y41329449D01*
X26912502Y41517502D01*
X26865380Y41556174D01*
X25046178Y43375375D01*
X25007502Y43422502D01*
X24819449Y43576833D01*
X24604901Y43691511D01*
X24372102Y43762130D01*
X24190665Y43780000D01*
X24130000Y43785975D01*
X24069335Y43780000D01*
X20920000Y43780000D01*
X20920000Y48199336D01*
X20925769Y48257909D01*
X21038192Y48197818D01*
X21308691Y48115764D01*
X21519508Y48095000D01*
X21660492Y48095000D01*
X21871309Y48115764D01*
X22141808Y48197818D01*
X22323623Y48295000D01*
X25373464Y48295000D01*
X25368815Y48291185D01*
X25289463Y48194494D01*
X25230498Y48084180D01*
X25194188Y47964482D01*
X25181928Y47840000D01*
X25181928Y46140000D01*
X25194188Y46015518D01*
X25230498Y45895820D01*
X25289463Y45785506D01*
X25368815Y45688815D01*
X25465506Y45609463D01*
X25575820Y45550498D01*
X25695518Y45514188D01*
X25820000Y45501928D01*
X27520000Y45501928D01*
X27644482Y45514188D01*
X27764180Y45550498D01*
X27874494Y45609463D01*
X27971185Y45688815D01*
X28050537Y45785506D01*
X28109502Y45895820D01*
X28145812Y46015518D01*
X28158072Y46140000D01*
X31407386Y46140000D01*
X31409838Y46115104D01*
X31417100Y46091164D01*
X31428893Y46069101D01*
X31444763Y46049763D01*
X31464101Y46033893D01*
X31486164Y46022100D01*
X31510104Y46014838D01*
X31535000Y46012386D01*
X32226250Y46013000D01*
X32258000Y46044750D01*
X32258000Y46863000D01*
X32512000Y46863000D01*
X32512000Y46044750D01*
X32543750Y46013000D01*
X33235000Y46012386D01*
X33259896Y46014838D01*
X33283836Y46022100D01*
X33305899Y46033893D01*
X33325237Y46049763D01*
X33341107Y46069101D01*
X33352900Y46091164D01*
X33360162Y46115104D01*
X33362614Y46140000D01*
X33362000Y46831250D01*
X33330250Y46863000D01*
X32512000Y46863000D01*
X32258000Y46863000D01*
X31439750Y46863000D01*
X31408000Y46831250D01*
X31407386Y46140000D01*
X28158072Y46140000D01*
X28158072Y47840000D01*
X31407386Y47840000D01*
X31408000Y47148750D01*
X31439750Y47117000D01*
X32258000Y47117000D01*
X32258000Y47935250D01*
X32512000Y47935250D01*
X32512000Y47117000D01*
X33330250Y47117000D01*
X33362000Y47148750D01*
X33362614Y47840000D01*
X33360162Y47864896D01*
X33352900Y47888836D01*
X33341107Y47910899D01*
X33325237Y47930237D01*
X33305899Y47946107D01*
X33283836Y47957900D01*
X33259896Y47965162D01*
X33235000Y47967614D01*
X32543750Y47967000D01*
X32512000Y47935250D01*
X32258000Y47935250D01*
X32226250Y47967000D01*
X31535000Y47967614D01*
X31510104Y47965162D01*
X31486164Y47957900D01*
X31464101Y47946107D01*
X31444763Y47930237D01*
X31428893Y47910899D01*
X31417100Y47888836D01*
X31409838Y47864896D01*
X31407386Y47840000D01*
X28158072Y47840000D01*
X28145812Y47964482D01*
X28109502Y48084180D01*
X28050537Y48194494D01*
X27971185Y48291185D01*
X27905000Y48345501D01*
X27905000Y48694033D01*
X27910706Y48700986D01*
X28048599Y48958966D01*
X28133513Y49238889D01*
X28134395Y49247841D01*
X28139578Y49253024D01*
X31448084Y49253024D01*
X31452096Y49239771D01*
X31526642Y49063347D01*
X31634175Y48904856D01*
X31770561Y48770389D01*
X31930560Y48665114D01*
X32108023Y48593076D01*
X32258000Y48593032D01*
X32258000Y49403000D01*
X32512000Y49403000D01*
X32512000Y48593032D01*
X32661977Y48593076D01*
X32839440Y48665114D01*
X32999439Y48770389D01*
X33135825Y48904856D01*
X33243358Y49063347D01*
X33317904Y49239771D01*
X33321916Y49253024D01*
X33321680Y49403000D01*
X32512000Y49403000D01*
X32258000Y49403000D01*
X31448320Y49403000D01*
X31448084Y49253024D01*
X28139578Y49253024D01*
X29086554Y50200000D01*
X31679671Y50200000D01*
X31634175Y50155144D01*
X31526642Y49996653D01*
X31452096Y49820229D01*
X31448084Y49806976D01*
X31448320Y49657000D01*
X32258000Y49657000D01*
X32258000Y49677000D01*
X32512000Y49677000D01*
X32512000Y49657000D01*
X33321680Y49657000D01*
X33321916Y49806976D01*
X33317904Y49820229D01*
X33243358Y49996653D01*
X33135825Y50155144D01*
X33090329Y50200000D01*
X51558447Y50200000D01*
X52740001Y49018445D01*
X52740000Y44510665D01*
X52734025Y44450000D01*
X52757870Y44207898D01*
X52769722Y44168827D01*
X52828489Y43975100D01*
X52943167Y43760552D01*
X53097498Y43572498D01*
X53144625Y43533822D01*
X54645001Y42033445D01*
X54645000Y40298622D01*
X54547818Y40116807D01*
X54465764Y39846308D01*
X54438057Y39564999D01*
X54465764Y39283690D01*
X54547818Y39013191D01*
X54645000Y38831376D01*
X54645001Y37525675D01*
X54639025Y37465000D01*
X54662870Y37222898D01*
X54731669Y36996101D01*
X54733490Y36990099D01*
X54848168Y36775551D01*
X55002499Y36587498D01*
X55049622Y36548825D01*
X55598817Y35999630D01*
X55637498Y35952498D01*
X55825551Y35798167D01*
X56040099Y35683489D01*
X56172940Y35643192D01*
X56272898Y35612870D01*
X56515000Y35589025D01*
X56575665Y35595000D01*
X60925296Y35595000D01*
X60958320Y35515273D01*
X60995001Y35460376D01*
X60995000Y33754623D01*
X60958320Y33699727D01*
X60850147Y33438574D01*
X60795000Y33161335D01*
X60795000Y32878665D01*
X60850147Y32601426D01*
X60958320Y32340273D01*
X60995001Y32285376D01*
X60995000Y29944623D01*
X60958320Y29889727D01*
X60850147Y29628574D01*
X60837266Y29563820D01*
X60129621Y28856174D01*
X60082499Y28817502D01*
X59928168Y28629449D01*
X59853823Y28490358D01*
X59813489Y28414899D01*
X59742870Y28182102D01*
X59719025Y27940000D01*
X59725001Y27879325D01*
X59725000Y25058622D01*
X59627818Y24876807D01*
X59545764Y24606308D01*
X59518057Y24324999D01*
X59545764Y24043690D01*
X59627818Y23773191D01*
X59725000Y23591376D01*
X59725001Y14030675D01*
X59719025Y13970000D01*
X59742870Y13727898D01*
X59813489Y13495101D01*
X59813490Y13495099D01*
X59928168Y13280551D01*
X60082499Y13092498D01*
X60129621Y13053826D01*
X61948826Y11234620D01*
X61987498Y11187498D01*
X62175551Y11033167D01*
X62390099Y10918489D01*
X62510588Y10881939D01*
X62622898Y10847870D01*
X62865000Y10824025D01*
X62925665Y10830000D01*
X81854335Y10830000D01*
X81915000Y10824025D01*
X81975665Y10830000D01*
X82157102Y10847870D01*
X82389901Y10918489D01*
X82604449Y11033167D01*
X82792502Y11187498D01*
X82831178Y11234625D01*
X86042500Y14445946D01*
X86713826Y13774620D01*
X86752498Y13727498D01*
X86940551Y13573167D01*
X87155099Y13458489D01*
X87387897Y13387870D01*
X87629999Y13364025D01*
X87690664Y13370000D01*
X92509033Y13370000D01*
X92515986Y13364294D01*
X92570791Y13335000D01*
X92515986Y13305706D01*
X92509033Y13300000D01*
X86231967Y13300000D01*
X86114405Y13348696D01*
X85856486Y13400000D01*
X85593514Y13400000D01*
X85335595Y13348696D01*
X85092641Y13248061D01*
X84873987Y13101962D01*
X84688038Y12916013D01*
X84541939Y12697359D01*
X84441304Y12454405D01*
X84390000Y12196486D01*
X84390000Y11933514D01*
X84441304Y11675595D01*
X84541939Y11432641D01*
X84688038Y11213987D01*
X84873987Y11028038D01*
X85092641Y10881939D01*
X85335595Y10781304D01*
X85593514Y10730000D01*
X85856486Y10730000D01*
X86114405Y10781304D01*
X86231967Y10830000D01*
X92509033Y10830000D01*
X92515986Y10824294D01*
X92773966Y10686401D01*
X93053889Y10601487D01*
X93272050Y10580000D01*
X93417950Y10580000D01*
X93636111Y10601487D01*
X93916034Y10686401D01*
X94174014Y10824294D01*
X94400134Y11009866D01*
X94585706Y11235986D01*
X94723599Y11493966D01*
X94808513Y11773889D01*
X94837185Y12065000D01*
X94808513Y12356111D01*
X94723599Y12636034D01*
X94585706Y12894014D01*
X94400134Y13120134D01*
X94174014Y13305706D01*
X94119209Y13335000D01*
X94174014Y13364294D01*
X94400134Y13549866D01*
X94585706Y13775986D01*
X94723599Y14033966D01*
X94808513Y14313889D01*
X94837185Y14605000D01*
X94808513Y14896111D01*
X94723599Y15176034D01*
X94585706Y15434014D01*
X94400134Y15660134D01*
X94174014Y15845706D01*
X93916034Y15983599D01*
X93636111Y16068513D01*
X93417950Y16090000D01*
X93272050Y16090000D01*
X93053889Y16068513D01*
X92773966Y15983599D01*
X92515986Y15845706D01*
X92509033Y15840000D01*
X88141554Y15840000D01*
X87113530Y16868024D01*
X92408084Y16868024D01*
X92412096Y16854771D01*
X92486642Y16678347D01*
X92594175Y16519856D01*
X92730561Y16385389D01*
X92890560Y16280114D01*
X93068023Y16208076D01*
X93218000Y16208032D01*
X93218000Y17018000D01*
X93472000Y17018000D01*
X93472000Y16208032D01*
X93621977Y16208076D01*
X93799440Y16280114D01*
X93959439Y16385389D01*
X94095825Y16519856D01*
X94203358Y16678347D01*
X94277904Y16854771D01*
X94281916Y16868024D01*
X94281680Y17018000D01*
X93472000Y17018000D01*
X93218000Y17018000D01*
X92408320Y17018000D01*
X92408084Y16868024D01*
X87113530Y16868024D01*
X86958668Y17022885D01*
X86920001Y17070001D01*
X86872885Y17108668D01*
X86559577Y17421976D01*
X92408084Y17421976D01*
X92408320Y17272000D01*
X93218000Y17272000D01*
X93472000Y17272000D01*
X94281680Y17272000D01*
X94281916Y17421976D01*
X94277904Y17435229D01*
X94203358Y17611653D01*
X94095825Y17770144D01*
X93959439Y17904611D01*
X93799440Y18009886D01*
X93621977Y18081924D01*
X93472000Y18081968D01*
X93472000Y17272000D01*
X93218000Y17272000D01*
X93218000Y18081968D01*
X93068023Y18081924D01*
X92890560Y18009886D01*
X92730561Y17904611D01*
X92594175Y17770144D01*
X92486642Y17611653D01*
X92412096Y17435229D01*
X92408084Y17421976D01*
X86559577Y17421976D01*
X85055000Y18926553D01*
X85055000Y19585377D01*
X85091680Y19640273D01*
X85199853Y19901426D01*
X85255000Y20178665D01*
X85255000Y20461335D01*
X85199853Y20738574D01*
X85091680Y20999727D01*
X84934637Y21234759D01*
X84734759Y21434637D01*
X84499727Y21591680D01*
X84419285Y21625000D01*
X84578447Y21625000D01*
X87348826Y18854620D01*
X87387498Y18807498D01*
X87575551Y18653167D01*
X87695553Y18589025D01*
X87790099Y18538489D01*
X88022897Y18467870D01*
X88264999Y18444025D01*
X88325664Y18450000D01*
X92509033Y18450000D01*
X92515986Y18444294D01*
X92773966Y18306401D01*
X93053889Y18221487D01*
X93272050Y18200000D01*
X93417950Y18200000D01*
X93636111Y18221487D01*
X93916034Y18306401D01*
X94174014Y18444294D01*
X94400134Y18629866D01*
X94585706Y18855986D01*
X94723599Y19113966D01*
X94808513Y19393889D01*
X94837185Y19685000D01*
X94808513Y19976111D01*
X94723599Y20256034D01*
X94585706Y20514014D01*
X94400134Y20740134D01*
X94174014Y20925706D01*
X94119209Y20955000D01*
X94174014Y20984294D01*
X94400134Y21169866D01*
X94585706Y21395986D01*
X94723599Y21653966D01*
X94808513Y21933889D01*
X94837185Y22225000D01*
X94808513Y22516111D01*
X94723599Y22796034D01*
X94585706Y23054014D01*
X94400134Y23280134D01*
X94370313Y23304607D01*
X94439180Y23325498D01*
X94549494Y23384463D01*
X94646185Y23463815D01*
X94725537Y23560506D01*
X94784502Y23670820D01*
X94820812Y23790518D01*
X94833072Y23915000D01*
X94833072Y25615000D01*
X94820812Y25739482D01*
X94784502Y25859180D01*
X94725537Y25969494D01*
X94646185Y26066185D01*
X94549494Y26145537D01*
X94439180Y26204502D01*
X94319482Y26240812D01*
X94195000Y26253072D01*
X92495000Y26253072D01*
X92370518Y26240812D01*
X92250820Y26204502D01*
X92140506Y26145537D01*
X92043815Y26066185D01*
X91964463Y25969494D01*
X91905498Y25859180D01*
X91869188Y25739482D01*
X91856928Y25615000D01*
X91856928Y23915000D01*
X91869188Y23790518D01*
X91905498Y23670820D01*
X91964463Y23560506D01*
X92043815Y23463815D01*
X92048464Y23460000D01*
X89411554Y23460000D01*
X85531553Y27340000D01*
X86934335Y27340000D01*
X86995000Y27334025D01*
X87055665Y27340000D01*
X87237102Y27357870D01*
X87469901Y27428489D01*
X87684449Y27543167D01*
X87872502Y27697498D01*
X87911178Y27744625D01*
X89730381Y29563827D01*
X89777502Y29602498D01*
X89931833Y29790551D01*
X90046511Y30005099D01*
X90117130Y30237898D01*
X90135000Y30419335D01*
X90135000Y30419336D01*
X90140975Y30480000D01*
X90135000Y30540665D01*
X90135000Y31560379D01*
X90215990Y31681589D01*
X90327932Y31951842D01*
X90385000Y32238740D01*
X90385000Y32531260D01*
X90327932Y32818158D01*
X90215990Y33088411D01*
X90053475Y33331632D01*
X89846632Y33538475D01*
X89603411Y33700990D01*
X89333158Y33812932D01*
X89046260Y33870000D01*
X88753740Y33870000D01*
X88466842Y33812932D01*
X88196589Y33700990D01*
X87953368Y33538475D01*
X87746525Y33331632D01*
X87584010Y33088411D01*
X87472068Y32818158D01*
X87415000Y32531260D01*
X87415000Y32238740D01*
X87472068Y31951842D01*
X87584010Y31681589D01*
X87665001Y31560378D01*
X87665000Y30991554D01*
X86483447Y29810000D01*
X81244285Y29810000D01*
X81324727Y29843320D01*
X81379623Y29880000D01*
X82489335Y29880000D01*
X82550000Y29874025D01*
X82610665Y29880000D01*
X82792102Y29897870D01*
X83024901Y29968489D01*
X83239449Y30083167D01*
X83427502Y30237498D01*
X83466178Y30284625D01*
X87506554Y34325000D01*
X91563447Y34325000D01*
X92165000Y33723446D01*
X92165001Y33209622D01*
X92084010Y33088411D01*
X91972068Y32818158D01*
X91915000Y32531260D01*
X91915000Y32238740D01*
X91972068Y31951842D01*
X92084010Y31681589D01*
X92246525Y31438368D01*
X92453368Y31231525D01*
X92696589Y31069010D01*
X92966842Y30957068D01*
X93253740Y30900000D01*
X93546260Y30900000D01*
X93833158Y30957068D01*
X94103411Y31069010D01*
X94346632Y31231525D01*
X94553475Y31438368D01*
X94715990Y31681589D01*
X94827932Y31951842D01*
X94885000Y32238740D01*
X94885000Y32531260D01*
X94827932Y32818158D01*
X94715990Y33088411D01*
X94635000Y33209621D01*
X94635000Y34174335D01*
X94640975Y34235000D01*
X94617130Y34477103D01*
X94561648Y34660000D01*
X94546511Y34709901D01*
X94431833Y34924449D01*
X94277502Y35112502D01*
X94230381Y35151173D01*
X92991178Y36390375D01*
X92952502Y36437502D01*
X92764449Y36591833D01*
X92549901Y36706511D01*
X92317102Y36777130D01*
X92135665Y36795000D01*
X92075000Y36800975D01*
X92014335Y36795000D01*
X87055662Y36795000D01*
X86994999Y36800975D01*
X86934336Y36795000D01*
X86934335Y36795000D01*
X86752898Y36777130D01*
X86520099Y36706511D01*
X86305551Y36591833D01*
X86117498Y36437502D01*
X86078826Y36390380D01*
X82038447Y32350000D01*
X81379623Y32350000D01*
X81324727Y32386680D01*
X81063574Y32494853D01*
X80786335Y32550000D01*
X80503665Y32550000D01*
X80226426Y32494853D01*
X79965273Y32386680D01*
X79730241Y32229637D01*
X79530363Y32029759D01*
X79373320Y31794727D01*
X79265147Y31533574D01*
X79210000Y31256335D01*
X79210000Y30973665D01*
X79265147Y30696426D01*
X79373320Y30435273D01*
X79530363Y30200241D01*
X79730241Y30000363D01*
X79965273Y29843320D01*
X80045715Y29810000D01*
X76260654Y29810000D01*
X76199999Y29815974D01*
X76139344Y29810000D01*
X76139335Y29810000D01*
X75957898Y29792130D01*
X75725099Y29721511D01*
X75510551Y29606833D01*
X75322498Y29452502D01*
X75283826Y29405380D01*
X72829621Y26951174D01*
X72782499Y26912502D01*
X72628168Y26724449D01*
X72586802Y26647058D01*
X72513489Y26509899D01*
X72442870Y26277102D01*
X72419025Y26035000D01*
X72425000Y25974335D01*
X72425000Y25058622D01*
X72390000Y24993141D01*
X72318932Y25126100D01*
X72139608Y25344607D01*
X71921101Y25523931D01*
X71671808Y25657181D01*
X71401309Y25739235D01*
X71190492Y25759999D01*
X71049508Y25759999D01*
X70838691Y25739235D01*
X70568192Y25657181D01*
X70318899Y25523931D01*
X70100392Y25344607D01*
X69921068Y25126100D01*
X69850000Y24993141D01*
X69778932Y25126100D01*
X69599608Y25344607D01*
X69381101Y25523931D01*
X69131808Y25657181D01*
X68861309Y25739235D01*
X68650492Y25759999D01*
X68509508Y25759999D01*
X68298691Y25739235D01*
X68028192Y25657181D01*
X67778899Y25523931D01*
X67560392Y25344607D01*
X67381068Y25126100D01*
X67310000Y24993141D01*
X67238932Y25126100D01*
X67059608Y25344607D01*
X66841101Y25523931D01*
X66591808Y25657181D01*
X66321309Y25739235D01*
X66110492Y25759999D01*
X65969508Y25759999D01*
X65758691Y25739235D01*
X65488192Y25657181D01*
X65238899Y25523931D01*
X65020392Y25344607D01*
X64841068Y25126100D01*
X64770000Y24993141D01*
X64698932Y25126100D01*
X64519608Y25344607D01*
X64301101Y25523931D01*
X64051808Y25657181D01*
X63781309Y25739235D01*
X63570492Y25759999D01*
X63429508Y25759999D01*
X63218691Y25739235D01*
X62948192Y25657181D01*
X62698899Y25523931D01*
X62480392Y25344607D01*
X62301068Y25126100D01*
X62230000Y24993141D01*
X62195000Y25058622D01*
X62195000Y27428447D01*
X62583820Y27817266D01*
X62648574Y27830147D01*
X62909727Y27938320D01*
X63144759Y28095363D01*
X63344637Y28295241D01*
X63475009Y28490358D01*
X66689963Y28490358D01*
X66790344Y28388801D01*
X66959001Y28318807D01*
X67138071Y28283061D01*
X67320674Y28282938D01*
X67499793Y28318441D01*
X67668543Y28388206D01*
X67669656Y28388801D01*
X67770037Y28490358D01*
X67230000Y29030395D01*
X66689963Y28490358D01*
X63475009Y28490358D01*
X63501680Y28530273D01*
X63609853Y28791426D01*
X63665000Y29068665D01*
X63665000Y29119326D01*
X66302938Y29119326D01*
X66338441Y28940207D01*
X66408206Y28771457D01*
X66408801Y28770344D01*
X66510358Y28669963D01*
X67050395Y29210000D01*
X67409605Y29210000D01*
X67949642Y28669963D01*
X68051199Y28770344D01*
X68121193Y28939001D01*
X68156939Y29118071D01*
X68157062Y29300674D01*
X68121559Y29479793D01*
X68051794Y29648543D01*
X68051199Y29649656D01*
X67949642Y29750037D01*
X67409605Y29210000D01*
X67050395Y29210000D01*
X66510358Y29750037D01*
X66408801Y29649656D01*
X66338807Y29480999D01*
X66303061Y29301929D01*
X66302938Y29119326D01*
X63665000Y29119326D01*
X63665000Y29351335D01*
X63609853Y29628574D01*
X63501680Y29889727D01*
X63475010Y29929642D01*
X66689963Y29929642D01*
X67230000Y29389605D01*
X67770037Y29929642D01*
X67669656Y30031199D01*
X67500999Y30101193D01*
X67321929Y30136939D01*
X67139326Y30137062D01*
X66960207Y30101559D01*
X66791457Y30031794D01*
X66790344Y30031199D01*
X66689963Y29929642D01*
X63475010Y29929642D01*
X63465000Y29944623D01*
X63465000Y30845916D01*
X69597913Y30845916D01*
X69667458Y30678001D01*
X69768421Y30526903D01*
X69896922Y30398406D01*
X70048022Y30297447D01*
X70215915Y30227906D01*
X70358000Y30228483D01*
X70358000Y30988000D01*
X70612000Y30988000D01*
X70612000Y30228483D01*
X70754085Y30227906D01*
X70921978Y30297447D01*
X71073078Y30398406D01*
X71201579Y30526903D01*
X71302542Y30678001D01*
X71372087Y30845916D01*
X71371196Y30988000D01*
X70612000Y30988000D01*
X70358000Y30988000D01*
X69598804Y30988000D01*
X69597913Y30845916D01*
X63465000Y30845916D01*
X63465000Y31384084D01*
X69597913Y31384084D01*
X69598804Y31242000D01*
X70358000Y31242000D01*
X70358000Y32001517D01*
X70612000Y32001517D01*
X70612000Y31242000D01*
X71371196Y31242000D01*
X71372087Y31384084D01*
X71302542Y31551999D01*
X71201579Y31703097D01*
X71073078Y31831594D01*
X70921978Y31932553D01*
X70754085Y32002094D01*
X70612000Y32001517D01*
X70358000Y32001517D01*
X70215915Y32002094D01*
X70048022Y31932553D01*
X69896922Y31831594D01*
X69768421Y31703097D01*
X69667458Y31551999D01*
X69597913Y31384084D01*
X63465000Y31384084D01*
X63465000Y32285377D01*
X63475009Y32300358D01*
X66689963Y32300358D01*
X66790344Y32198801D01*
X66959001Y32128807D01*
X67138071Y32093061D01*
X67320674Y32092938D01*
X67499793Y32128441D01*
X67668543Y32198206D01*
X67669656Y32198801D01*
X67770037Y32300358D01*
X67230000Y32840395D01*
X66689963Y32300358D01*
X63475009Y32300358D01*
X63501680Y32340273D01*
X63609853Y32601426D01*
X63665000Y32878665D01*
X63665000Y32929326D01*
X66302938Y32929326D01*
X66338441Y32750207D01*
X66408206Y32581457D01*
X66408801Y32580344D01*
X66510358Y32479963D01*
X67050395Y33020000D01*
X67409605Y33020000D01*
X67949642Y32479963D01*
X68051199Y32580344D01*
X68121193Y32749001D01*
X68156939Y32928071D01*
X68157062Y33110674D01*
X68121559Y33289793D01*
X68051794Y33458543D01*
X68051199Y33459656D01*
X67949642Y33560037D01*
X67409605Y33020000D01*
X67050395Y33020000D01*
X66510358Y33560037D01*
X66408801Y33459656D01*
X66338807Y33290999D01*
X66303061Y33111929D01*
X66302938Y32929326D01*
X63665000Y32929326D01*
X63665000Y33161335D01*
X63609853Y33438574D01*
X63501680Y33699727D01*
X63475010Y33739642D01*
X66689963Y33739642D01*
X67230000Y33199605D01*
X67770037Y33739642D01*
X67669656Y33841199D01*
X67500999Y33911193D01*
X67321929Y33946939D01*
X67139326Y33947062D01*
X66960207Y33911559D01*
X66791457Y33841794D01*
X66790344Y33841199D01*
X66689963Y33739642D01*
X63475010Y33739642D01*
X63465000Y33754623D01*
X63465000Y35460377D01*
X63501680Y35515273D01*
X63609853Y35776426D01*
X63665000Y36053665D01*
X63665000Y36336335D01*
X63609853Y36613574D01*
X63501680Y36874727D01*
X63344637Y37109759D01*
X63144759Y37309637D01*
X62909727Y37466680D01*
X62648574Y37574853D01*
X62583819Y37587734D01*
X62511179Y37660374D01*
X62472502Y37707502D01*
X62284449Y37861833D01*
X62069901Y37976511D01*
X61837102Y38047130D01*
X61655665Y38065000D01*
X61595000Y38070975D01*
X61534335Y38065000D01*
X57115000Y38065000D01*
X57115000Y38831376D01*
X57150000Y38896857D01*
X57221068Y38763898D01*
X57400392Y38545391D01*
X57618899Y38366067D01*
X57868192Y38232817D01*
X58138691Y38150763D01*
X58349508Y38129999D01*
X58490492Y38129999D01*
X58701309Y38150763D01*
X58971808Y38232817D01*
X59221101Y38366067D01*
X59439608Y38545391D01*
X59618932Y38763898D01*
X59690000Y38896857D01*
X59761068Y38763898D01*
X59940392Y38545391D01*
X60158899Y38366067D01*
X60408192Y38232817D01*
X60678691Y38150763D01*
X60889508Y38129999D01*
X61030492Y38129999D01*
X61241309Y38150763D01*
X61511808Y38232817D01*
X61761101Y38366067D01*
X61979608Y38545391D01*
X62158932Y38763898D01*
X62230000Y38896857D01*
X62301068Y38763898D01*
X62480392Y38545391D01*
X62698899Y38366067D01*
X62948192Y38232817D01*
X63218691Y38150763D01*
X63429508Y38129999D01*
X63570492Y38129999D01*
X63781309Y38150763D01*
X64051808Y38232817D01*
X64301101Y38366067D01*
X64519608Y38545391D01*
X64698932Y38763898D01*
X64770000Y38896857D01*
X64841068Y38763898D01*
X65020392Y38545391D01*
X65238899Y38366067D01*
X65488192Y38232817D01*
X65758691Y38150763D01*
X65969508Y38129999D01*
X66110492Y38129999D01*
X66321309Y38150763D01*
X66591808Y38232817D01*
X66841101Y38366067D01*
X67059608Y38545391D01*
X67238932Y38763898D01*
X67310000Y38896857D01*
X67381068Y38763898D01*
X67560392Y38545391D01*
X67778899Y38366067D01*
X68028192Y38232817D01*
X68298691Y38150763D01*
X68509508Y38129999D01*
X68650492Y38129999D01*
X68861309Y38150763D01*
X69131808Y38232817D01*
X69381101Y38366067D01*
X69599608Y38545391D01*
X69778932Y38763898D01*
X69850000Y38896857D01*
X69921068Y38763898D01*
X70100392Y38545391D01*
X70318899Y38366067D01*
X70568192Y38232817D01*
X70838691Y38150763D01*
X71049508Y38129999D01*
X71190492Y38129999D01*
X71401309Y38150763D01*
X71671808Y38232817D01*
X71921101Y38366067D01*
X72139608Y38545391D01*
X72318932Y38763898D01*
X72390000Y38896857D01*
X72461068Y38763898D01*
X72640392Y38545391D01*
X72858899Y38366067D01*
X73108192Y38232817D01*
X73378691Y38150763D01*
X73589508Y38129999D01*
X73730492Y38129999D01*
X73941309Y38150763D01*
X74211808Y38232817D01*
X74461101Y38366067D01*
X74679608Y38545391D01*
X74858932Y38763898D01*
X74930000Y38896857D01*
X75001068Y38763898D01*
X75180392Y38545391D01*
X75398899Y38366067D01*
X75648192Y38232817D01*
X75918691Y38150763D01*
X76129508Y38129999D01*
X76270492Y38129999D01*
X76481309Y38150763D01*
X76751808Y38232817D01*
X77001101Y38366067D01*
X77219608Y38545391D01*
X77398932Y38763898D01*
X77470000Y38896857D01*
X77541068Y38763898D01*
X77720392Y38545391D01*
X77938899Y38366067D01*
X78188192Y38232817D01*
X78458691Y38150763D01*
X78669508Y38129999D01*
X78810492Y38129999D01*
X79021309Y38150763D01*
X79291808Y38232817D01*
X79541101Y38366067D01*
X79759608Y38545391D01*
X79852419Y38658481D01*
X79854188Y38640517D01*
X79890498Y38520819D01*
X79949463Y38410505D01*
X80028815Y38313814D01*
X80045000Y38300531D01*
X80045000Y38076553D01*
X79398448Y37430000D01*
X73123623Y37430000D01*
X72941808Y37527182D01*
X72671309Y37609236D01*
X72460492Y37630000D01*
X72319508Y37630000D01*
X72108691Y37609236D01*
X71838192Y37527182D01*
X71588899Y37393932D01*
X71370392Y37214608D01*
X71191068Y36996101D01*
X71057818Y36746808D01*
X70975764Y36476309D01*
X70948057Y36195000D01*
X70975764Y35913691D01*
X71057818Y35643192D01*
X71191068Y35393899D01*
X71370392Y35175392D01*
X71588899Y34996068D01*
X71838192Y34862818D01*
X72108691Y34780764D01*
X72319508Y34760000D01*
X72460492Y34760000D01*
X72671309Y34780764D01*
X72941808Y34862818D01*
X73123623Y34960000D01*
X79849336Y34960000D01*
X79910001Y34954025D01*
X79970666Y34960000D01*
X80152103Y34977870D01*
X80384902Y35048489D01*
X80599450Y35163167D01*
X80787503Y35317498D01*
X80826179Y35364625D01*
X82110381Y36648826D01*
X82157502Y36687497D01*
X82311833Y36875550D01*
X82426511Y37090098D01*
X82467989Y37226833D01*
X82497130Y37322896D01*
X82520975Y37564998D01*
X82515000Y37625663D01*
X82515000Y38300531D01*
X82531185Y38313814D01*
X82610537Y38410505D01*
X82669502Y38520819D01*
X82705812Y38640517D01*
X82718072Y38764999D01*
X82718072Y39031260D01*
X87415000Y39031260D01*
X87415000Y38738740D01*
X87472068Y38451842D01*
X87584010Y38181589D01*
X87746525Y37938368D01*
X87953368Y37731525D01*
X88196589Y37569010D01*
X88466842Y37457068D01*
X88753740Y37400000D01*
X89046260Y37400000D01*
X89333158Y37457068D01*
X89603411Y37569010D01*
X89846632Y37731525D01*
X90053475Y37938368D01*
X90215990Y38181589D01*
X90327932Y38451842D01*
X90385000Y38738740D01*
X90385000Y39031260D01*
X91915000Y39031260D01*
X91915000Y38738740D01*
X91972068Y38451842D01*
X92084010Y38181589D01*
X92246525Y37938368D01*
X92453368Y37731525D01*
X92696589Y37569010D01*
X92966842Y37457068D01*
X93253740Y37400000D01*
X93546260Y37400000D01*
X93833158Y37457068D01*
X94103411Y37569010D01*
X94346632Y37731525D01*
X94553475Y37938368D01*
X94715990Y38181589D01*
X94827932Y38451842D01*
X94885000Y38738740D01*
X94885000Y39031260D01*
X94827932Y39318158D01*
X94715990Y39588411D01*
X94553475Y39831632D01*
X94346632Y40038475D01*
X94103411Y40200990D01*
X93833158Y40312932D01*
X93546260Y40370000D01*
X93253740Y40370000D01*
X92966842Y40312932D01*
X92696589Y40200990D01*
X92453368Y40038475D01*
X92246525Y39831632D01*
X92084010Y39588411D01*
X91972068Y39318158D01*
X91915000Y39031260D01*
X90385000Y39031260D01*
X90327932Y39318158D01*
X90215990Y39588411D01*
X90053475Y39831632D01*
X89846632Y40038475D01*
X89603411Y40200990D01*
X89333158Y40312932D01*
X89046260Y40370000D01*
X88753740Y40370000D01*
X88466842Y40312932D01*
X88196589Y40200990D01*
X87953368Y40038475D01*
X87746525Y39831632D01*
X87584010Y39588411D01*
X87472068Y39318158D01*
X87415000Y39031260D01*
X82718072Y39031260D01*
X82718072Y40364999D01*
X82705812Y40489481D01*
X82669502Y40609179D01*
X82610537Y40719493D01*
X82531185Y40816184D01*
X82515000Y40829467D01*
X82515000Y41053446D01*
X84676554Y43215000D01*
X85218033Y43215000D01*
X85335595Y43166304D01*
X85593514Y43115000D01*
X85856486Y43115000D01*
X86114405Y43166304D01*
X86231967Y43215000D01*
X88075379Y43215000D01*
X88196589Y43134010D01*
X88466842Y43022068D01*
X88753740Y42965000D01*
X89046260Y42965000D01*
X89333158Y43022068D01*
X89603411Y43134010D01*
X89846632Y43296525D01*
X90053475Y43503368D01*
X90181179Y43694492D01*
X92824097Y43694492D01*
X92930549Y43587791D01*
X93107778Y43512772D01*
X93296238Y43473771D01*
X93488684Y43472286D01*
X93677722Y43508374D01*
X93856087Y43580648D01*
X93869451Y43587791D01*
X93975903Y43694492D01*
X93400000Y44270395D01*
X92824097Y43694492D01*
X90181179Y43694492D01*
X90215990Y43746589D01*
X90327932Y44016842D01*
X90385000Y44303740D01*
X90385000Y44361316D01*
X92422286Y44361316D01*
X92458374Y44172278D01*
X92530648Y43993913D01*
X92537791Y43980549D01*
X92644492Y43874097D01*
X93220395Y44450000D01*
X93579605Y44450000D01*
X94155508Y43874097D01*
X94262209Y43980549D01*
X94337228Y44157778D01*
X94376229Y44346238D01*
X94377714Y44538684D01*
X94341626Y44727722D01*
X94269352Y44906087D01*
X94262209Y44919451D01*
X94155508Y45025903D01*
X93579605Y44450000D01*
X93220395Y44450000D01*
X92644492Y45025903D01*
X92537791Y44919451D01*
X92462772Y44742222D01*
X92423771Y44553762D01*
X92422286Y44361316D01*
X90385000Y44361316D01*
X90385000Y44596260D01*
X90327932Y44883158D01*
X90215990Y45153411D01*
X90181180Y45205508D01*
X92824097Y45205508D01*
X93400000Y44629605D01*
X93975903Y45205508D01*
X93869451Y45312209D01*
X93692222Y45387228D01*
X93503762Y45426229D01*
X93311316Y45427714D01*
X93122278Y45391626D01*
X92943913Y45319352D01*
X92930549Y45312209D01*
X92824097Y45205508D01*
X90181180Y45205508D01*
X90053475Y45396632D01*
X89846632Y45603475D01*
X89603411Y45765990D01*
X89333158Y45877932D01*
X89046260Y45935000D01*
X88753740Y45935000D01*
X88466842Y45877932D01*
X88196589Y45765990D01*
X88075379Y45685000D01*
X86231967Y45685000D01*
X86114405Y45733696D01*
X85856486Y45785000D01*
X85593514Y45785000D01*
X85335595Y45733696D01*
X85218033Y45685000D01*
X84225666Y45685000D01*
X84165001Y45690975D01*
X84104336Y45685000D01*
X83922899Y45667130D01*
X83690100Y45596511D01*
X83475552Y45481833D01*
X83287499Y45327502D01*
X83248822Y45280374D01*
X80449621Y42481173D01*
X80402499Y42442501D01*
X80248168Y42254448D01*
X80204428Y42172616D01*
X80133489Y42039898D01*
X80062870Y41807101D01*
X80039025Y41564999D01*
X80045001Y41504324D01*
X80045001Y40829467D01*
X80028815Y40816184D01*
X79975000Y40750610D01*
X79975000Y46904499D01*
X80041185Y46958815D01*
X80120537Y47055506D01*
X80179502Y47165820D01*
X80215812Y47285518D01*
X80228072Y47410000D01*
X80228072Y49110000D01*
X80215812Y49234482D01*
X80179502Y49354180D01*
X80120537Y49464494D01*
X80041185Y49561185D01*
X79944494Y49640537D01*
X79834180Y49699502D01*
X79714482Y49735812D01*
X79590000Y49748072D01*
X77890000Y49748072D01*
X77765518Y49735812D01*
X77645820Y49699502D01*
X77535506Y49640537D01*
X77438815Y49561185D01*
X77359463Y49464494D01*
X77300498Y49354180D01*
X77279607Y49285313D01*
X77255134Y49315134D01*
X77029014Y49500706D01*
X76771034Y49638599D01*
X76491111Y49723513D01*
X76272950Y49745000D01*
X76127050Y49745000D01*
X75908889Y49723513D01*
X75628966Y49638599D01*
X75370986Y49500706D01*
X75144866Y49315134D01*
X74959294Y49089014D01*
X74930000Y49034209D01*
X74900706Y49089014D01*
X74715134Y49315134D01*
X74489014Y49500706D01*
X74231034Y49638599D01*
X73951111Y49723513D01*
X73732950Y49745000D01*
X73587050Y49745000D01*
X73368889Y49723513D01*
X73088966Y49638599D01*
X72830986Y49500706D01*
X72604866Y49315134D01*
X72419294Y49089014D01*
X72390000Y49034209D01*
X72360706Y49089014D01*
X72175134Y49315134D01*
X71949014Y49500706D01*
X71691034Y49638599D01*
X71411111Y49723513D01*
X71192950Y49745000D01*
X71047050Y49745000D01*
X70828889Y49723513D01*
X70548966Y49638599D01*
X70290986Y49500706D01*
X70064866Y49315134D01*
X69879294Y49089014D01*
X69850000Y49034209D01*
X69820706Y49089014D01*
X69635134Y49315134D01*
X69409014Y49500706D01*
X69151034Y49638599D01*
X68871111Y49723513D01*
X68652950Y49745000D01*
X68507050Y49745000D01*
X68288889Y49723513D01*
X68008966Y49638599D01*
X67750986Y49500706D01*
X67524866Y49315134D01*
X67339294Y49089014D01*
X67310000Y49034209D01*
X67280706Y49089014D01*
X67095134Y49315134D01*
X66869014Y49500706D01*
X66611034Y49638599D01*
X66331111Y49723513D01*
X66112950Y49745000D01*
X65967050Y49745000D01*
X65748889Y49723513D01*
X65468966Y49638599D01*
X65210986Y49500706D01*
X64984866Y49315134D01*
X64799294Y49089014D01*
X64661401Y48831034D01*
X64576487Y48551111D01*
X64547815Y48260000D01*
X64576487Y47968889D01*
X64661401Y47688966D01*
X64799294Y47430986D01*
X64805000Y47424033D01*
X64805001Y40298623D01*
X64770000Y40233141D01*
X64735000Y40298622D01*
X64735000Y46294336D01*
X64740975Y46355000D01*
X64717130Y46597102D01*
X64660378Y46784188D01*
X64646511Y46829901D01*
X64531833Y47044449D01*
X64377502Y47232502D01*
X64330381Y47271173D01*
X63059395Y48542159D01*
X63058513Y48551111D01*
X62973599Y48831034D01*
X62835706Y49089014D01*
X62650134Y49315134D01*
X62424014Y49500706D01*
X62166034Y49638599D01*
X61886111Y49723513D01*
X61667950Y49745000D01*
X61522050Y49745000D01*
X61303889Y49723513D01*
X61023966Y49638599D01*
X60765986Y49500706D01*
X60539866Y49315134D01*
X60354294Y49089014D01*
X60325000Y49034209D01*
X60295706Y49089014D01*
X60110134Y49315134D01*
X59884014Y49500706D01*
X59626034Y49638599D01*
X59346111Y49723513D01*
X59127950Y49745000D01*
X58982050Y49745000D01*
X58763889Y49723513D01*
X58483966Y49638599D01*
X58225986Y49500706D01*
X57999866Y49315134D01*
X57975393Y49285313D01*
X57954502Y49354180D01*
X57895537Y49464494D01*
X57816185Y49561185D01*
X57719494Y49640537D01*
X57609180Y49699502D01*
X57489482Y49735812D01*
X57365000Y49748072D01*
X55665000Y49748072D01*
X55540518Y49735812D01*
X55420820Y49699502D01*
X55310506Y49640537D01*
X55213815Y49561185D01*
X55213001Y49560193D01*
X55192130Y49772102D01*
X55121976Y50003368D01*
X55121511Y50004901D01*
X55006833Y50219449D01*
X54852502Y50407502D01*
X54805380Y50446174D01*
X54155294Y51096260D01*
X87415000Y51096260D01*
X87415000Y50803740D01*
X87472068Y50516842D01*
X87584010Y50246589D01*
X87746525Y50003368D01*
X87953368Y49796525D01*
X88196589Y49634010D01*
X88466842Y49522068D01*
X88753740Y49465000D01*
X89046260Y49465000D01*
X89333158Y49522068D01*
X89603411Y49634010D01*
X89846632Y49796525D01*
X90053475Y50003368D01*
X90215990Y50246589D01*
X90327932Y50516842D01*
X90385000Y50803740D01*
X90385000Y51096260D01*
X91915000Y51096260D01*
X91915000Y50803740D01*
X91972068Y50516842D01*
X92084010Y50246589D01*
X92246525Y50003368D01*
X92453368Y49796525D01*
X92696589Y49634010D01*
X92966842Y49522068D01*
X93253740Y49465000D01*
X93546260Y49465000D01*
X93833158Y49522068D01*
X94103411Y49634010D01*
X94346632Y49796525D01*
X94553475Y50003368D01*
X94715990Y50246589D01*
X94827932Y50516842D01*
X94885000Y50803740D01*
X94885000Y51096260D01*
X94827932Y51383158D01*
X94715990Y51653411D01*
X94553475Y51896632D01*
X94346632Y52103475D01*
X94103411Y52265990D01*
X93833158Y52377932D01*
X93546260Y52435000D01*
X93253740Y52435000D01*
X92966842Y52377932D01*
X92696589Y52265990D01*
X92453368Y52103475D01*
X92246525Y51896632D01*
X92084010Y51653411D01*
X91972068Y51383158D01*
X91915000Y51096260D01*
X90385000Y51096260D01*
X90327932Y51383158D01*
X90215990Y51653411D01*
X90053475Y51896632D01*
X89846632Y52103475D01*
X89603411Y52265990D01*
X89333158Y52377932D01*
X89046260Y52435000D01*
X88753740Y52435000D01*
X88466842Y52377932D01*
X88196589Y52265990D01*
X87953368Y52103475D01*
X87746525Y51896632D01*
X87584010Y51653411D01*
X87472068Y51383158D01*
X87415000Y51096260D01*
X54155294Y51096260D01*
X52986178Y52265375D01*
X52947502Y52312502D01*
X52759449Y52466833D01*
X52544901Y52581511D01*
X52312102Y52652130D01*
X52130665Y52670000D01*
X52070000Y52675975D01*
X52009335Y52670000D01*
X28635665Y52670000D01*
X28575000Y52675975D01*
X28514335Y52670000D01*
X28332898Y52652130D01*
X28100099Y52581511D01*
X27885551Y52466833D01*
X27697498Y52312502D01*
X27658826Y52265380D01*
X26387841Y50994395D01*
X26378889Y50993513D01*
X26098966Y50908599D01*
X25840986Y50770706D01*
X25834033Y50765000D01*
X22323623Y50765000D01*
X22141808Y50862182D01*
X21871309Y50944236D01*
X21660492Y50965000D01*
X21519508Y50965000D01*
X21308691Y50944236D01*
X21038192Y50862182D01*
X20856377Y50765000D01*
X18475665Y50765000D01*
X18415000Y50770975D01*
X18354335Y50765000D01*
X14960664Y50765000D01*
X14899999Y50770975D01*
X14657897Y50747130D01*
X14597907Y50728932D01*
X14425099Y50676511D01*
X14210551Y50561833D01*
X14022498Y50407502D01*
X13983827Y50360381D01*
X11213447Y47590000D01*
X10570039Y47590000D01*
X10458735Y47681345D01*
X10182949Y47828755D01*
X9883704Y47919530D01*
X9650486Y47942500D01*
X9399514Y47942500D01*
X9166296Y47919530D01*
X8867051Y47828755D01*
X8591265Y47681345D01*
X8349537Y47482963D01*
X8151155Y47241235D01*
X8003745Y46965449D01*
X7912970Y46666204D01*
X7882319Y46355000D01*
X2667000Y46355000D01*
X2667000Y54185279D01*
X4215000Y54185279D01*
X4215000Y53764721D01*
X4297047Y53352244D01*
X4457988Y52963698D01*
X4691637Y52614017D01*
X4989017Y52316637D01*
X5338698Y52082988D01*
X5727244Y51922047D01*
X6139721Y51840000D01*
X6560279Y51840000D01*
X6972756Y51922047D01*
X7361302Y52082988D01*
X7710983Y52316637D01*
X8008363Y52614017D01*
X8242012Y52963698D01*
X8402953Y53352244D01*
X8485000Y53764721D01*
X8485000Y54185279D01*
X95655000Y54185279D01*
X95655000Y53764721D01*
X95737047Y53352244D01*
X95897988Y52963698D01*
X96131637Y52614017D01*
X96429017Y52316637D01*
X96778698Y52082988D01*
X97167244Y51922047D01*
X97579721Y51840000D01*
X98000279Y51840000D01*
X98412756Y51922047D01*
X98801302Y52082988D01*
X99150983Y52316637D01*
X99448363Y52614017D01*
X99682012Y52963698D01*
X99842953Y53352244D01*
X99925000Y53764721D01*
X99925000Y54185279D01*
X99842953Y54597756D01*
X99682012Y54986302D01*
X99448363Y55335983D01*
X99150983Y55633363D01*
X98801302Y55867012D01*
X98412756Y56027953D01*
X98000279Y56110000D01*
X97579721Y56110000D01*
X97167244Y56027953D01*
X96778698Y55867012D01*
X96429017Y55633363D01*
X96131637Y55335983D01*
X95897988Y54986302D01*
X95737047Y54597756D01*
X95655000Y54185279D01*
X8485000Y54185279D01*
X8402953Y54597756D01*
X8242012Y54986302D01*
X8008363Y55335983D01*
X7710983Y55633363D01*
X7361302Y55867012D01*
X6972756Y56027953D01*
X6560279Y56110000D01*
X6139721Y56110000D01*
X5727244Y56027953D01*
X5338698Y55867012D01*
X4989017Y55633363D01*
X4691637Y55335983D01*
X4457988Y54986302D01*
X4297047Y54597756D01*
X4215000Y54185279D01*
X2667000Y54185279D01*
X2667000Y57658000D01*
X102108000Y57658000D01*
X102108000Y3302000D01*
X102108000Y3302000D01*
G37*
X102108000Y3302000D02*
X2667000Y3302000D01*
X2667000Y7195279D01*
X4215000Y7195279D01*
X4215000Y6774721D01*
X4297047Y6362244D01*
X4457988Y5973698D01*
X4691637Y5624017D01*
X4989017Y5326637D01*
X5338698Y5092988D01*
X5727244Y4932047D01*
X6139721Y4850000D01*
X6560279Y4850000D01*
X6972756Y4932047D01*
X7361302Y5092988D01*
X7710983Y5326637D01*
X8008363Y5624017D01*
X8242012Y5973698D01*
X8402953Y6362244D01*
X8485000Y6774721D01*
X8485000Y7195279D01*
X8402953Y7607756D01*
X8242012Y7996302D01*
X8008363Y8345983D01*
X7710983Y8643363D01*
X7361302Y8877012D01*
X6972756Y9037953D01*
X6560279Y9120000D01*
X6139721Y9120000D01*
X5727244Y9037953D01*
X5338698Y8877012D01*
X4989017Y8643363D01*
X4691637Y8345983D01*
X4457988Y7996302D01*
X4297047Y7607756D01*
X4215000Y7195279D01*
X2667000Y7195279D01*
X2667000Y39865000D01*
X4373541Y39865000D01*
X4380001Y39799411D01*
X4380000Y14035579D01*
X4373541Y13970000D01*
X4380000Y13904422D01*
X4399317Y13708295D01*
X4475653Y13456647D01*
X4599618Y13224726D01*
X4766445Y13021445D01*
X4817392Y12979634D01*
X11074639Y6722386D01*
X11116445Y6671445D01*
X11319725Y6504618D01*
X11551646Y6380653D01*
X11803294Y6304317D01*
X12064999Y6278541D01*
X12130578Y6285000D01*
X19060019Y6285000D01*
X19115506Y6239463D01*
X19225820Y6180498D01*
X19345518Y6144188D01*
X19470000Y6131928D01*
X21170000Y6131928D01*
X21294482Y6144188D01*
X21414180Y6180498D01*
X21524494Y6239463D01*
X21621185Y6318815D01*
X21700537Y6415506D01*
X21759502Y6525820D01*
X21795812Y6645518D01*
X21808072Y6770000D01*
X21808072Y7493000D01*
X21923032Y7493000D01*
X21923076Y7343023D01*
X21995114Y7165560D01*
X22100389Y7005561D01*
X22234856Y6869175D01*
X22393347Y6761642D01*
X22569771Y6687096D01*
X22583024Y6683084D01*
X22733000Y6683320D01*
X22733000Y7493000D01*
X22987000Y7493000D01*
X22987000Y6683320D01*
X23136976Y6683084D01*
X23150229Y6687096D01*
X23326653Y6761642D01*
X23485144Y6869175D01*
X23619611Y7005561D01*
X23724886Y7165560D01*
X23736949Y7195279D01*
X95655000Y7195279D01*
X95655000Y6774721D01*
X95737047Y6362244D01*
X95897988Y5973698D01*
X96131637Y5624017D01*
X96429017Y5326637D01*
X96778698Y5092988D01*
X97167244Y4932047D01*
X97579721Y4850000D01*
X98000279Y4850000D01*
X98412756Y4932047D01*
X98801302Y5092988D01*
X99150983Y5326637D01*
X99448363Y5624017D01*
X99682012Y5973698D01*
X99842953Y6362244D01*
X99925000Y6774721D01*
X99925000Y7195279D01*
X99842953Y7607756D01*
X99682012Y7996302D01*
X99448363Y8345983D01*
X99150983Y8643363D01*
X98801302Y8877012D01*
X98412756Y9037953D01*
X98000279Y9120000D01*
X97579721Y9120000D01*
X97167244Y9037953D01*
X96778698Y8877012D01*
X96429017Y8643363D01*
X96131637Y8345983D01*
X95897988Y7996302D01*
X95737047Y7607756D01*
X95655000Y7195279D01*
X23736949Y7195279D01*
X23796924Y7343023D01*
X23796968Y7493000D01*
X22987000Y7493000D01*
X22733000Y7493000D01*
X21923032Y7493000D01*
X21808072Y7493000D01*
X21808072Y7747000D01*
X21923032Y7747000D01*
X22733000Y7747000D01*
X22733000Y8556680D01*
X22987000Y8556680D01*
X22987000Y7747000D01*
X23796968Y7747000D01*
X23796924Y7896977D01*
X23724886Y8074440D01*
X23619611Y8234439D01*
X23485144Y8370825D01*
X23326653Y8478358D01*
X23150229Y8552904D01*
X23136976Y8556916D01*
X22987000Y8556680D01*
X22733000Y8556680D01*
X22583024Y8556916D01*
X22569771Y8552904D01*
X22393347Y8478358D01*
X22234856Y8370825D01*
X22100389Y8234439D01*
X21995114Y8074440D01*
X21923076Y7896977D01*
X21923032Y7747000D01*
X21808072Y7747000D01*
X21808072Y8470000D01*
X21795812Y8594482D01*
X21759502Y8714180D01*
X21700537Y8824494D01*
X21621185Y8921185D01*
X21524494Y9000537D01*
X21414180Y9059502D01*
X21294482Y9095812D01*
X21170000Y9108072D01*
X19470000Y9108072D01*
X19345518Y9095812D01*
X19225820Y9059502D01*
X19115506Y9000537D01*
X19060019Y8955000D01*
X12617975Y8955000D01*
X9960910Y11612065D01*
X11851671Y11612065D01*
X12066650Y11412942D01*
X12397500Y11247885D01*
X12754193Y11150545D01*
X13123023Y11124664D01*
X13489815Y11171234D01*
X13840474Y11288467D01*
X14073350Y11412942D01*
X14288329Y11612065D01*
X13070000Y12830395D01*
X11851671Y11612065D01*
X9960910Y11612065D01*
X8615998Y12956977D01*
X11184664Y12956977D01*
X11231234Y12590185D01*
X11348467Y12239526D01*
X11472942Y12006650D01*
X11672065Y11791671D01*
X12890395Y13010000D01*
X13249605Y13010000D01*
X14467935Y11791671D01*
X14667058Y12006650D01*
X14832115Y12337500D01*
X14929455Y12694193D01*
X14955336Y13063023D01*
X14908766Y13429815D01*
X14791533Y13780474D01*
X14667058Y14013350D01*
X14467935Y14228329D01*
X13249605Y13010000D01*
X12890395Y13010000D01*
X11672065Y14228329D01*
X11472942Y14013350D01*
X11307885Y13682500D01*
X11210545Y13325807D01*
X11184664Y12956977D01*
X8615998Y12956977D01*
X7165040Y14407935D01*
X11851671Y14407935D01*
X13070000Y13189605D01*
X14288329Y14407935D01*
X14073350Y14607058D01*
X13742500Y14772115D01*
X13385807Y14869455D01*
X13016977Y14895336D01*
X12650185Y14848766D01*
X12299526Y14731533D01*
X12066650Y14607058D01*
X11851671Y14407935D01*
X7165040Y14407935D01*
X7050000Y14522974D01*
X7050000Y17691316D01*
X14802286Y17691316D01*
X14838374Y17502278D01*
X14910648Y17323913D01*
X14917791Y17310549D01*
X15024492Y17204097D01*
X15600395Y17780000D01*
X15024492Y18355903D01*
X14917791Y18249451D01*
X14842772Y18072222D01*
X14803771Y17883762D01*
X14802286Y17691316D01*
X7050000Y17691316D01*
X7050000Y20426260D01*
X14295000Y20426260D01*
X14295000Y20133740D01*
X14352068Y19846842D01*
X14464010Y19576589D01*
X14626525Y19333368D01*
X14833368Y19126525D01*
X15076589Y18964010D01*
X15346842Y18852068D01*
X15633740Y18795000D01*
X15926260Y18795000D01*
X16213158Y18852068D01*
X16361529Y18913525D01*
X16340498Y18874180D01*
X16304188Y18754482D01*
X16291928Y18630000D01*
X16291928Y18599633D01*
X16249451Y18642209D01*
X16072222Y18717228D01*
X15883762Y18756229D01*
X15691316Y18757714D01*
X15502278Y18721626D01*
X15323913Y18649352D01*
X15310549Y18642209D01*
X15204097Y18535508D01*
X15780000Y17959605D01*
X15794143Y17973747D01*
X15973748Y17794142D01*
X15959605Y17780000D01*
X15973748Y17765857D01*
X15794143Y17586252D01*
X15780000Y17600395D01*
X15204097Y17024492D01*
X15310549Y16917791D01*
X15487778Y16842772D01*
X15676238Y16803771D01*
X15868684Y16802286D01*
X16057722Y16838374D01*
X16236087Y16910648D01*
X16249451Y16917791D01*
X16291928Y16960367D01*
X16291928Y16930000D01*
X16304188Y16805518D01*
X16340498Y16685820D01*
X16399463Y16575506D01*
X16478815Y16478815D01*
X16575506Y16399463D01*
X16685820Y16340498D01*
X16805518Y16304188D01*
X16930000Y16291928D01*
X18630000Y16291928D01*
X18754482Y16304188D01*
X18874180Y16340498D01*
X18984494Y16399463D01*
X19081185Y16478815D01*
X19135501Y16545000D01*
X24674703Y16545000D01*
X24731181Y16476181D01*
X25010596Y16246871D01*
X25329378Y16076479D01*
X25675277Y15971552D01*
X25944861Y15945000D01*
X26125139Y15945000D01*
X26394723Y15971552D01*
X26740622Y16076479D01*
X27059404Y16246871D01*
X27338819Y16476181D01*
X27568129Y16755596D01*
X27738521Y17074378D01*
X27843448Y17420277D01*
X27878878Y17780000D01*
X27843448Y18139723D01*
X27738521Y18485622D01*
X27568129Y18804404D01*
X27338819Y19083819D01*
X27059404Y19313129D01*
X26740622Y19483521D01*
X26394723Y19588448D01*
X26125139Y19615000D01*
X25944861Y19615000D01*
X25675277Y19588448D01*
X25329378Y19483521D01*
X25010596Y19313129D01*
X24731181Y19083819D01*
X24674703Y19015000D01*
X19135501Y19015000D01*
X19081185Y19081185D01*
X19003426Y19145000D01*
X22764249Y19145000D01*
X22820000Y19139509D01*
X22875751Y19145000D01*
X22875752Y19145000D01*
X23042499Y19161423D01*
X23256447Y19226324D01*
X23453623Y19331716D01*
X23626449Y19473551D01*
X23661996Y19516865D01*
X29680133Y25535000D01*
X32239608Y25535000D01*
X32218899Y25523931D01*
X32000392Y25344607D01*
X31821068Y25126100D01*
X31687818Y24876807D01*
X31605764Y24606308D01*
X31578057Y24324999D01*
X31605764Y24043690D01*
X31687818Y23773191D01*
X31785000Y23591376D01*
X31785001Y16075968D01*
X31779294Y16069014D01*
X31641401Y15811034D01*
X31556487Y15531111D01*
X31527815Y15240000D01*
X31556487Y14948889D01*
X31641401Y14668966D01*
X31779294Y14410986D01*
X31964866Y14184866D01*
X32190986Y13999294D01*
X32448966Y13861401D01*
X32728889Y13776487D01*
X32947050Y13755000D01*
X33092950Y13755000D01*
X33311111Y13776487D01*
X33591034Y13861401D01*
X33849014Y13999294D01*
X34075134Y14184866D01*
X34099607Y14214687D01*
X34120498Y14145820D01*
X34179463Y14035506D01*
X34258815Y13938815D01*
X34355506Y13859463D01*
X34465820Y13800498D01*
X34585518Y13764188D01*
X34710000Y13751928D01*
X36410000Y13751928D01*
X36534482Y13764188D01*
X36654180Y13800498D01*
X36764494Y13859463D01*
X36861185Y13938815D01*
X36940537Y14035506D01*
X36999502Y14145820D01*
X37035812Y14265518D01*
X37048072Y14390000D01*
X37048072Y16090000D01*
X37035812Y16214482D01*
X36999502Y16334180D01*
X36940537Y16444494D01*
X36861185Y16541185D01*
X36795000Y16595501D01*
X36795000Y23591376D01*
X36830000Y23656857D01*
X36901068Y23523898D01*
X37080392Y23305391D01*
X37298899Y23126067D01*
X37548192Y22992817D01*
X37818691Y22910763D01*
X38029508Y22889999D01*
X38170492Y22889999D01*
X38381309Y22910763D01*
X38651808Y22992817D01*
X38901101Y23126067D01*
X39119608Y23305391D01*
X39298932Y23523898D01*
X39370000Y23656857D01*
X39441068Y23523898D01*
X39620392Y23305391D01*
X39838899Y23126067D01*
X40088192Y22992817D01*
X40358691Y22910763D01*
X40569508Y22889999D01*
X40710492Y22889999D01*
X40921309Y22910763D01*
X41191808Y22992817D01*
X41441101Y23126067D01*
X41659608Y23305391D01*
X41838932Y23523898D01*
X41910000Y23656857D01*
X41945001Y23591375D01*
X41945000Y20831554D01*
X39809621Y18696174D01*
X39762499Y18657502D01*
X39608168Y18469449D01*
X39529266Y18321833D01*
X39493489Y18254899D01*
X39422870Y18022102D01*
X39399025Y17780000D01*
X39405001Y17719325D01*
X39405000Y16075967D01*
X39399294Y16069014D01*
X39261401Y15811034D01*
X39176487Y15531111D01*
X39147815Y15240000D01*
X39176487Y14948889D01*
X39261401Y14668966D01*
X39399294Y14410986D01*
X39584866Y14184866D01*
X39810986Y13999294D01*
X40068966Y13861401D01*
X40348889Y13776487D01*
X40567050Y13755000D01*
X40712950Y13755000D01*
X40931111Y13776487D01*
X41211034Y13861401D01*
X41469014Y13999294D01*
X41695134Y14184866D01*
X41719607Y14214687D01*
X41740498Y14145820D01*
X41799463Y14035506D01*
X41878815Y13938815D01*
X41975506Y13859463D01*
X42085820Y13800498D01*
X42205518Y13764188D01*
X42330000Y13751928D01*
X44030000Y13751928D01*
X44154482Y13764188D01*
X44274180Y13800498D01*
X44384494Y13859463D01*
X44481185Y13938815D01*
X44560537Y14035506D01*
X44619502Y14145820D01*
X44655812Y14265518D01*
X44668072Y14390000D01*
X44668072Y16090000D01*
X44655812Y16214482D01*
X44619502Y16334180D01*
X44560537Y16444494D01*
X44481185Y16541185D01*
X44415000Y16595501D01*
X44415000Y16778447D01*
X46550381Y18913827D01*
X46597502Y18952498D01*
X46751833Y19140551D01*
X46866511Y19355099D01*
X46937130Y19587898D01*
X46955000Y19769335D01*
X46955000Y19769344D01*
X46960974Y19829999D01*
X46955000Y19890654D01*
X46955000Y23591376D01*
X46990000Y23656857D01*
X47025000Y23591376D01*
X47025001Y16075968D01*
X47019294Y16069014D01*
X46881401Y15811034D01*
X46796487Y15531111D01*
X46767815Y15240000D01*
X46796487Y14948889D01*
X46881401Y14668966D01*
X47019294Y14410986D01*
X47204866Y14184866D01*
X47430986Y13999294D01*
X47688966Y13861401D01*
X47968889Y13776487D01*
X48187050Y13755000D01*
X48332950Y13755000D01*
X48551111Y13776487D01*
X48831034Y13861401D01*
X49089014Y13999294D01*
X49315134Y14184866D01*
X49500706Y14410986D01*
X49530000Y14465791D01*
X49559294Y14410986D01*
X49744866Y14184866D01*
X49970986Y13999294D01*
X50228966Y13861401D01*
X50508889Y13776487D01*
X50727050Y13755000D01*
X50872950Y13755000D01*
X51091111Y13776487D01*
X51371034Y13861401D01*
X51629014Y13999294D01*
X51855134Y14184866D01*
X52040706Y14410986D01*
X52070000Y14465791D01*
X52099294Y14410986D01*
X52284866Y14184866D01*
X52510986Y13999294D01*
X52768966Y13861401D01*
X53048889Y13776487D01*
X53267050Y13755000D01*
X53412950Y13755000D01*
X53631111Y13776487D01*
X53911034Y13861401D01*
X54169014Y13999294D01*
X54395134Y14184866D01*
X54419607Y14214687D01*
X54440498Y14145820D01*
X54499463Y14035506D01*
X54578815Y13938815D01*
X54675506Y13859463D01*
X54785820Y13800498D01*
X54905518Y13764188D01*
X55030000Y13751928D01*
X56730000Y13751928D01*
X56854482Y13764188D01*
X56974180Y13800498D01*
X57084494Y13859463D01*
X57181185Y13938815D01*
X57260537Y14035506D01*
X57319502Y14145820D01*
X57355812Y14265518D01*
X57368072Y14390000D01*
X57368072Y16090000D01*
X57355812Y16214482D01*
X57319502Y16334180D01*
X57260537Y16444494D01*
X57181185Y16541185D01*
X57115000Y16595501D01*
X57115000Y23591376D01*
X57212182Y23773191D01*
X57294236Y24043690D01*
X57295439Y24055914D01*
X57532906Y24055914D01*
X57602447Y23888021D01*
X57703406Y23736921D01*
X57831903Y23608420D01*
X57983001Y23507457D01*
X58150916Y23437912D01*
X58293000Y23438803D01*
X58293000Y24197999D01*
X58547000Y24197999D01*
X58547000Y23438803D01*
X58689084Y23437912D01*
X58856999Y23507457D01*
X59008097Y23608420D01*
X59136594Y23736921D01*
X59237553Y23888021D01*
X59307094Y24055914D01*
X59306517Y24197999D01*
X58547000Y24197999D01*
X58293000Y24197999D01*
X57533483Y24197999D01*
X57532906Y24055914D01*
X57295439Y24055914D01*
X57321943Y24324999D01*
X57295440Y24594084D01*
X57532906Y24594084D01*
X57533483Y24451999D01*
X58293000Y24451999D01*
X58293000Y25211195D01*
X58547000Y25211195D01*
X58547000Y24451999D01*
X59306517Y24451999D01*
X59307094Y24594084D01*
X59237553Y24761977D01*
X59136594Y24913077D01*
X59008097Y25041578D01*
X58856999Y25142541D01*
X58689084Y25212086D01*
X58547000Y25211195D01*
X58293000Y25211195D01*
X58150916Y25212086D01*
X57983001Y25142541D01*
X57831903Y25041578D01*
X57703406Y24913077D01*
X57602447Y24761977D01*
X57532906Y24594084D01*
X57295440Y24594084D01*
X57294236Y24606308D01*
X57212182Y24876807D01*
X57078932Y25126100D01*
X56899608Y25344607D01*
X56681101Y25523931D01*
X56431808Y25657181D01*
X56161309Y25739235D01*
X55950492Y25759999D01*
X55809508Y25759999D01*
X55598691Y25739235D01*
X55328192Y25657181D01*
X55078899Y25523931D01*
X54860392Y25344607D01*
X54681068Y25126100D01*
X54610000Y24993141D01*
X54538932Y25126100D01*
X54359608Y25344607D01*
X54141101Y25523931D01*
X53891808Y25657181D01*
X53621309Y25739235D01*
X53410492Y25759999D01*
X53269508Y25759999D01*
X53058691Y25739235D01*
X52788192Y25657181D01*
X52538899Y25523931D01*
X52320392Y25344607D01*
X52141068Y25126100D01*
X52070000Y24993141D01*
X51998932Y25126100D01*
X51819608Y25344607D01*
X51601101Y25523931D01*
X51351808Y25657181D01*
X51081309Y25739235D01*
X50870492Y25759999D01*
X50729508Y25759999D01*
X50518691Y25739235D01*
X50248192Y25657181D01*
X49998899Y25523931D01*
X49780392Y25344607D01*
X49601068Y25126100D01*
X49530000Y24993141D01*
X49458932Y25126100D01*
X49279608Y25344607D01*
X49061101Y25523931D01*
X48811808Y25657181D01*
X48541309Y25739235D01*
X48330492Y25759999D01*
X48189508Y25759999D01*
X47978691Y25739235D01*
X47708192Y25657181D01*
X47458899Y25523931D01*
X47240392Y25344607D01*
X47061068Y25126100D01*
X46990000Y24993141D01*
X46918932Y25126100D01*
X46739608Y25344607D01*
X46521101Y25523931D01*
X46271808Y25657181D01*
X46001309Y25739235D01*
X45790492Y25759999D01*
X45649508Y25759999D01*
X45438691Y25739235D01*
X45168192Y25657181D01*
X44918899Y25523931D01*
X44700392Y25344607D01*
X44521068Y25126100D01*
X44450000Y24993141D01*
X44378932Y25126100D01*
X44199608Y25344607D01*
X43981101Y25523931D01*
X43731808Y25657181D01*
X43461309Y25739235D01*
X43250492Y25759999D01*
X43109508Y25759999D01*
X42898691Y25739235D01*
X42628192Y25657181D01*
X42378899Y25523931D01*
X42160392Y25344607D01*
X41981068Y25126100D01*
X41910000Y24993141D01*
X41838932Y25126100D01*
X41775000Y25204001D01*
X41775000Y25979259D01*
X41780490Y26035001D01*
X41775000Y26090743D01*
X41775000Y26090752D01*
X41758577Y26257499D01*
X41693676Y26471447D01*
X41588284Y26668623D01*
X41446449Y26841449D01*
X41403141Y26876991D01*
X38941996Y29338135D01*
X38906449Y29381449D01*
X38733623Y29523284D01*
X38536447Y29628676D01*
X38322499Y29693577D01*
X38155752Y29710000D01*
X38155751Y29710000D01*
X38100000Y29715491D01*
X38044249Y29710000D01*
X28630751Y29710000D01*
X28575000Y29715491D01*
X28519248Y29710000D01*
X28352501Y29693577D01*
X28138553Y29628676D01*
X27941377Y29523284D01*
X27768551Y29381449D01*
X27733009Y29338141D01*
X23024869Y24630000D01*
X16565751Y24630000D01*
X16510000Y24635491D01*
X16454248Y24630000D01*
X16287501Y24613577D01*
X16073553Y24548676D01*
X15876377Y24443284D01*
X15703551Y24301449D01*
X15668004Y24258135D01*
X15016865Y23606996D01*
X14973551Y23571449D01*
X14831716Y23398623D01*
X14763674Y23271323D01*
X14726324Y23201446D01*
X14661423Y22987498D01*
X14639509Y22765000D01*
X14645000Y22709248D01*
X14645001Y21245108D01*
X14626525Y21226632D01*
X14464010Y20983411D01*
X14352068Y20713158D01*
X14295000Y20426260D01*
X7050000Y20426260D01*
X7050000Y23652065D01*
X11851671Y23652065D01*
X12066650Y23452942D01*
X12397500Y23287885D01*
X12754193Y23190545D01*
X13123023Y23164664D01*
X13489815Y23211234D01*
X13840474Y23328467D01*
X14073350Y23452942D01*
X14288329Y23652065D01*
X13070000Y24870395D01*
X11851671Y23652065D01*
X7050000Y23652065D01*
X7050000Y24996977D01*
X11184664Y24996977D01*
X11231234Y24630185D01*
X11348467Y24279526D01*
X11472942Y24046650D01*
X11672065Y23831671D01*
X12890395Y25050000D01*
X13249605Y25050000D01*
X14467935Y23831671D01*
X14667058Y24046650D01*
X14832115Y24377500D01*
X14929455Y24734193D01*
X14955336Y25103023D01*
X14908766Y25469815D01*
X14791533Y25820474D01*
X14667058Y26053350D01*
X14467935Y26268329D01*
X13249605Y25050000D01*
X12890395Y25050000D01*
X11672065Y26268329D01*
X11472942Y26053350D01*
X11307885Y25722500D01*
X11210545Y25365807D01*
X11184664Y24996977D01*
X7050000Y24996977D01*
X7050000Y26447935D01*
X11851671Y26447935D01*
X13070000Y25229605D01*
X14288329Y26447935D01*
X14073350Y26647058D01*
X13742500Y26812115D01*
X13385807Y26909455D01*
X13016977Y26935336D01*
X12650185Y26888766D01*
X12299526Y26771533D01*
X12066650Y26647058D01*
X11851671Y26447935D01*
X7050000Y26447935D01*
X7050000Y31110358D01*
X37559963Y31110358D01*
X37660344Y31008801D01*
X37829001Y30938807D01*
X38008071Y30903061D01*
X38190674Y30902938D01*
X38369793Y30938441D01*
X38538543Y31008206D01*
X38539656Y31008801D01*
X38640037Y31110358D01*
X38100000Y31650395D01*
X37559963Y31110358D01*
X7050000Y31110358D01*
X7050000Y32755000D01*
X20562386Y32755000D01*
X20564838Y32730104D01*
X20572100Y32706164D01*
X20583893Y32684101D01*
X20599763Y32664763D01*
X20619101Y32648893D01*
X20641164Y32637100D01*
X20665104Y32629838D01*
X20690000Y32627386D01*
X21431250Y32628000D01*
X21463000Y32659750D01*
X21463000Y33528000D01*
X21717000Y33528000D01*
X21717000Y32659750D01*
X21748750Y32628000D01*
X22490000Y32627386D01*
X22514896Y32629838D01*
X22538836Y32637100D01*
X22560899Y32648893D01*
X22580237Y32664763D01*
X22596107Y32684101D01*
X22607900Y32706164D01*
X22615162Y32730104D01*
X22617614Y32755000D01*
X22617000Y33496250D01*
X22585250Y33528000D01*
X21717000Y33528000D01*
X21463000Y33528000D01*
X20594750Y33528000D01*
X20563000Y33496250D01*
X20562386Y32755000D01*
X7050000Y32755000D01*
X7050000Y33015358D01*
X15334963Y33015358D01*
X15435344Y32913801D01*
X15604001Y32843807D01*
X15783071Y32808061D01*
X15965674Y32807938D01*
X16144793Y32843441D01*
X16313543Y32913206D01*
X16314656Y32913801D01*
X16415037Y33015358D01*
X15875000Y33555395D01*
X15334963Y33015358D01*
X7050000Y33015358D01*
X7050000Y33644326D01*
X14947938Y33644326D01*
X14983441Y33465207D01*
X15053206Y33296457D01*
X15053801Y33295344D01*
X15155358Y33194963D01*
X15695395Y33735000D01*
X16054605Y33735000D01*
X16594642Y33194963D01*
X16696199Y33295344D01*
X16766193Y33464001D01*
X16801939Y33643071D01*
X16802062Y33825674D01*
X16766559Y34004793D01*
X16696794Y34173543D01*
X16696199Y34174656D01*
X16594642Y34275037D01*
X16054605Y33735000D01*
X15695395Y33735000D01*
X15155358Y34275037D01*
X15053801Y34174656D01*
X14983807Y34005999D01*
X14948061Y33826929D01*
X14947938Y33644326D01*
X7050000Y33644326D01*
X7050000Y34454642D01*
X15334963Y34454642D01*
X15875000Y33914605D01*
X16415037Y34454642D01*
X16314656Y34556199D01*
X16145999Y34626193D01*
X15966929Y34661939D01*
X15784326Y34662062D01*
X15605207Y34626559D01*
X15436457Y34556794D01*
X15435344Y34556199D01*
X15334963Y34454642D01*
X7050000Y34454642D01*
X7050000Y36346184D01*
X20055000Y36346184D01*
X20055000Y36043816D01*
X20113989Y35747257D01*
X20229701Y35467905D01*
X20397688Y35216495D01*
X20611495Y35002688D01*
X20862905Y34834701D01*
X21142257Y34718989D01*
X21327783Y34682086D01*
X20690000Y34682614D01*
X20665104Y34680162D01*
X20641164Y34672900D01*
X20619101Y34661107D01*
X20599763Y34645237D01*
X20583893Y34625899D01*
X20572100Y34603836D01*
X20564838Y34579896D01*
X20562386Y34555000D01*
X20563000Y33813750D01*
X20594750Y33782000D01*
X21463000Y33782000D01*
X21463000Y33802000D01*
X21717000Y33802000D01*
X21717000Y33782000D01*
X22585250Y33782000D01*
X22617000Y33813750D01*
X22617614Y34555000D01*
X22615162Y34579896D01*
X22607900Y34603836D01*
X22596107Y34625899D01*
X22580237Y34645237D01*
X22560899Y34661107D01*
X22538836Y34672900D01*
X22514896Y34680162D01*
X22490000Y34682614D01*
X21852217Y34682086D01*
X22037743Y34718989D01*
X22317095Y34834701D01*
X22568505Y35002688D01*
X22782312Y35216495D01*
X22950299Y35467905D01*
X23066011Y35747257D01*
X23125000Y36043816D01*
X23125000Y36346184D01*
X23066011Y36642743D01*
X22950299Y36922095D01*
X22825000Y37109618D01*
X22825000Y38635377D01*
X22861680Y38690273D01*
X22969853Y38951426D01*
X23025000Y39228665D01*
X23025000Y39511335D01*
X22969853Y39788574D01*
X22861680Y40049727D01*
X22704637Y40284759D01*
X22504759Y40484637D01*
X22269727Y40641680D01*
X22008574Y40749853D01*
X21731335Y40805000D01*
X21448665Y40805000D01*
X21171426Y40749853D01*
X20910273Y40641680D01*
X20675241Y40484637D01*
X20475363Y40284759D01*
X20318320Y40049727D01*
X20210147Y39788574D01*
X20155000Y39511335D01*
X20155000Y39228665D01*
X20210147Y38951426D01*
X20318320Y38690273D01*
X20355000Y38635377D01*
X20355001Y37109619D01*
X20229701Y36922095D01*
X20113989Y36642743D01*
X20055000Y36346184D01*
X7050000Y36346184D01*
X7050000Y39312026D01*
X7677975Y39940000D01*
X8017447Y39940000D01*
X8073815Y39871315D01*
X8170506Y39791963D01*
X8280820Y39732998D01*
X8400518Y39696688D01*
X8525000Y39684428D01*
X10525000Y39684428D01*
X10649482Y39696688D01*
X10769180Y39732998D01*
X10879494Y39791963D01*
X10976185Y39871315D01*
X11032553Y39940000D01*
X13904421Y39940000D01*
X13970000Y39933541D01*
X14035579Y39940000D01*
X14231706Y39959317D01*
X14483354Y40035653D01*
X14715275Y40159618D01*
X14918555Y40326445D01*
X14960365Y40377391D01*
X16865359Y42282383D01*
X16990382Y42434725D01*
X17114346Y42666645D01*
X17190683Y42918294D01*
X17216459Y43180000D01*
X17190683Y43441705D01*
X17114346Y43693354D01*
X16990382Y43925274D01*
X16823554Y44128554D01*
X16620274Y44295382D01*
X16388354Y44419346D01*
X16136705Y44495683D01*
X16129925Y44496351D01*
X16195104Y44523350D01*
X16271072Y44604323D01*
X15875000Y45000395D01*
X15478928Y44604323D01*
X15554896Y44523350D01*
X15626051Y44496939D01*
X15613294Y44495683D01*
X15361645Y44419346D01*
X15129725Y44295382D01*
X14977383Y44170359D01*
X13417026Y42610000D01*
X11032553Y42610000D01*
X10976185Y42678685D01*
X10879494Y42758037D01*
X10769180Y42817002D01*
X10649482Y42853312D01*
X10525000Y42865572D01*
X10073326Y42865572D01*
X10201876Y42940105D01*
X10360466Y43079701D01*
X10488775Y43247554D01*
X10581872Y43437214D01*
X10611438Y43521865D01*
X10612525Y43688000D01*
X9652000Y43688000D01*
X9652000Y43668000D01*
X9398000Y43668000D01*
X9398000Y43688000D01*
X8437475Y43688000D01*
X8438562Y43521865D01*
X8468128Y43437214D01*
X8561225Y43247554D01*
X8689534Y43079701D01*
X8848124Y42940105D01*
X8976674Y42865572D01*
X8525000Y42865572D01*
X8400518Y42853312D01*
X8280820Y42817002D01*
X8170506Y42758037D01*
X8073815Y42678685D01*
X8017447Y42610000D01*
X7190578Y42610000D01*
X7124999Y42616459D01*
X6925725Y42596832D01*
X6863294Y42590683D01*
X6611646Y42514347D01*
X6379725Y42390382D01*
X6176445Y42223555D01*
X6134641Y42172616D01*
X4817387Y40855361D01*
X4766446Y40813555D01*
X4689252Y40719493D01*
X4599618Y40610274D01*
X4475654Y40378354D01*
X4399317Y40126705D01*
X4373541Y39865000D01*
X2667000Y39865000D01*
X2667000Y46355000D01*
X7882319Y46355000D01*
X7912970Y46043796D01*
X8003745Y45744551D01*
X8151155Y45468765D01*
X8349537Y45227037D01*
X8591265Y45028655D01*
X8867051Y44881245D01*
X9086220Y44814761D01*
X9030901Y44795869D01*
X8848124Y44689895D01*
X8689534Y44550299D01*
X8561225Y44382446D01*
X8468128Y44192786D01*
X8438562Y44108135D01*
X8437475Y43942000D01*
X9398000Y43942000D01*
X9398000Y43962000D01*
X9652000Y43962000D01*
X9652000Y43942000D01*
X10612525Y43942000D01*
X10611438Y44108135D01*
X10581872Y44192786D01*
X10488775Y44382446D01*
X10360466Y44550299D01*
X10201876Y44689895D01*
X10019099Y44795869D01*
X9963780Y44814761D01*
X10182949Y44881245D01*
X10458735Y45028655D01*
X10570039Y45120000D01*
X11664335Y45120000D01*
X11725000Y45114025D01*
X11785665Y45120000D01*
X11967102Y45137870D01*
X12199901Y45208489D01*
X12229760Y45224449D01*
X15145835Y45224449D01*
X15151174Y45081342D01*
X15184329Y44942027D01*
X15218350Y44859896D01*
X15299323Y44783928D01*
X15695395Y45180000D01*
X16054605Y45180000D01*
X16450677Y44783928D01*
X16531650Y44859896D01*
X16581482Y44994152D01*
X16604165Y45135551D01*
X16598826Y45278658D01*
X16565671Y45417973D01*
X16531650Y45500104D01*
X16450677Y45576072D01*
X16054605Y45180000D01*
X15695395Y45180000D01*
X15299323Y45576072D01*
X15218350Y45500104D01*
X15168518Y45365848D01*
X15145835Y45224449D01*
X12229760Y45224449D01*
X12414449Y45323167D01*
X12602502Y45477498D01*
X12641178Y45524625D01*
X12872230Y45755677D01*
X15478928Y45755677D01*
X15875000Y45359605D01*
X16271072Y45755677D01*
X16195104Y45836650D01*
X16060848Y45886482D01*
X15919449Y45909165D01*
X15776342Y45903826D01*
X15637027Y45870671D01*
X15554896Y45836650D01*
X15478928Y45755677D01*
X12872230Y45755677D01*
X15411554Y48295000D01*
X17903447Y48295000D01*
X18450001Y47748445D01*
X18450000Y43056554D01*
X15521180Y40127734D01*
X15456426Y40114853D01*
X15195273Y40006680D01*
X14960241Y39849637D01*
X14760363Y39649759D01*
X14603320Y39414727D01*
X14495147Y39153574D01*
X14440000Y38876335D01*
X14440000Y38593665D01*
X14495147Y38316426D01*
X14603320Y38055273D01*
X14760363Y37820241D01*
X14960241Y37620363D01*
X15195273Y37463320D01*
X15456426Y37355147D01*
X15733665Y37300000D01*
X16016335Y37300000D01*
X16293574Y37355147D01*
X16554727Y37463320D01*
X16789759Y37620363D01*
X16989637Y37820241D01*
X17146680Y38055273D01*
X17254853Y38316426D01*
X17267734Y38381180D01*
X20196554Y41310000D01*
X23618447Y41310000D01*
X24800001Y40128445D01*
X24800000Y38221637D01*
X24800000Y37978363D01*
X24800001Y37978358D01*
X24800000Y34854625D01*
X24710518Y34845812D01*
X24590820Y34809502D01*
X24480506Y34750537D01*
X24383815Y34671185D01*
X24304463Y34574494D01*
X24245498Y34464180D01*
X24209188Y34344482D01*
X24196928Y34220000D01*
X24196928Y31820000D01*
X24209188Y31695518D01*
X24245498Y31575820D01*
X24304463Y31465506D01*
X24383815Y31368815D01*
X24480506Y31289463D01*
X24590820Y31230498D01*
X24710518Y31194188D01*
X24835000Y31181928D01*
X27235000Y31181928D01*
X27359482Y31194188D01*
X27479180Y31230498D01*
X27589494Y31289463D01*
X27686185Y31368815D01*
X27765537Y31465506D01*
X27824502Y31575820D01*
X27860812Y31695518D01*
X27865126Y31739326D01*
X37172938Y31739326D01*
X37208441Y31560207D01*
X37278206Y31391457D01*
X37278801Y31390344D01*
X37380358Y31289963D01*
X37920395Y31830000D01*
X38279605Y31830000D01*
X38819642Y31289963D01*
X38921199Y31390344D01*
X38991193Y31559001D01*
X39026939Y31738071D01*
X39027062Y31920674D01*
X38991559Y32099793D01*
X38921794Y32268543D01*
X38921199Y32269656D01*
X38819642Y32370037D01*
X38279605Y31830000D01*
X37920395Y31830000D01*
X37380358Y32370037D01*
X37278801Y32269656D01*
X37208807Y32100999D01*
X37173061Y31921929D01*
X37172938Y31739326D01*
X27865126Y31739326D01*
X27873072Y31820000D01*
X27873072Y32549642D01*
X37559963Y32549642D01*
X38100000Y32009605D01*
X38640037Y32549642D01*
X38539656Y32651199D01*
X38370999Y32721193D01*
X38191929Y32756939D01*
X38009326Y32757062D01*
X37830207Y32721559D01*
X37661457Y32651794D01*
X37660344Y32651199D01*
X37559963Y32549642D01*
X27873072Y32549642D01*
X27873072Y34220000D01*
X27860812Y34344482D01*
X27824502Y34464180D01*
X27765537Y34574494D01*
X27686185Y34671185D01*
X27589494Y34750537D01*
X27479180Y34809502D01*
X27359482Y34845812D01*
X27270000Y34854625D01*
X27270000Y37524323D01*
X27638928Y37524323D01*
X27714896Y37443350D01*
X27849152Y37393518D01*
X27990551Y37370835D01*
X28133658Y37376174D01*
X28272973Y37409329D01*
X28355104Y37443350D01*
X28431072Y37524323D01*
X28035000Y37920395D01*
X27638928Y37524323D01*
X27270000Y37524323D01*
X27270000Y38144449D01*
X27305835Y38144449D01*
X27311174Y38001342D01*
X27344329Y37862027D01*
X27378350Y37779896D01*
X27459323Y37703928D01*
X27855395Y38100000D01*
X28214605Y38100000D01*
X28610677Y37703928D01*
X28691650Y37779896D01*
X28741482Y37914152D01*
X28764165Y38055551D01*
X28758826Y38198658D01*
X28725671Y38337973D01*
X28691650Y38420104D01*
X28610677Y38496072D01*
X28214605Y38100000D01*
X27855395Y38100000D01*
X27459323Y38496072D01*
X27378350Y38420104D01*
X27328518Y38285848D01*
X27305835Y38144449D01*
X27270000Y38144449D01*
X27270000Y38675677D01*
X27638928Y38675677D01*
X28035000Y38279605D01*
X28431072Y38675677D01*
X28355104Y38756650D01*
X28220848Y38806482D01*
X28079449Y38829165D01*
X27936342Y38823826D01*
X27797027Y38790671D01*
X27714896Y38756650D01*
X27638928Y38675677D01*
X27270000Y38675677D01*
X27270000Y39564999D01*
X31578057Y39564999D01*
X31605764Y39283690D01*
X31687818Y39013191D01*
X31821068Y38763898D01*
X32000392Y38545391D01*
X32218899Y38366067D01*
X32468192Y38232817D01*
X32738691Y38150763D01*
X32949508Y38129999D01*
X33090492Y38129999D01*
X33301309Y38150763D01*
X33571808Y38232817D01*
X33821101Y38366067D01*
X34039608Y38545391D01*
X34218932Y38763898D01*
X34290000Y38896857D01*
X34361068Y38763898D01*
X34540392Y38545391D01*
X34758899Y38366067D01*
X35008192Y38232817D01*
X35278691Y38150763D01*
X35489508Y38129999D01*
X35630492Y38129999D01*
X35841309Y38150763D01*
X36111808Y38232817D01*
X36361101Y38366067D01*
X36579608Y38545391D01*
X36758932Y38763898D01*
X36830000Y38896857D01*
X36901068Y38763898D01*
X36965000Y38685996D01*
X36965001Y37714285D01*
X36828320Y37509727D01*
X36720147Y37248574D01*
X36665000Y36971335D01*
X36665000Y36688665D01*
X36720147Y36411426D01*
X36828320Y36150273D01*
X36985363Y35915241D01*
X37185241Y35715363D01*
X37420273Y35558320D01*
X37681426Y35450147D01*
X37958665Y35395000D01*
X38241335Y35395000D01*
X38518574Y35450147D01*
X38779727Y35558320D01*
X39014759Y35715363D01*
X39214637Y35915241D01*
X39371680Y36150273D01*
X39479853Y36411426D01*
X39535000Y36688665D01*
X39535000Y36971335D01*
X39479853Y37248574D01*
X39371680Y37509727D01*
X39235000Y37714284D01*
X39235000Y38685997D01*
X39298932Y38763898D01*
X39370000Y38896857D01*
X39441068Y38763898D01*
X39620392Y38545391D01*
X39838899Y38366067D01*
X40088192Y38232817D01*
X40358691Y38150763D01*
X40569508Y38129999D01*
X40710492Y38129999D01*
X40921309Y38150763D01*
X41191808Y38232817D01*
X41441101Y38366067D01*
X41659608Y38545391D01*
X41838932Y38763898D01*
X41910000Y38896857D01*
X41981068Y38763898D01*
X42160392Y38545391D01*
X42378899Y38366067D01*
X42628192Y38232817D01*
X42898691Y38150763D01*
X43109508Y38129999D01*
X43250492Y38129999D01*
X43461309Y38150763D01*
X43731808Y38232817D01*
X43981101Y38366067D01*
X44199608Y38545391D01*
X44378932Y38763898D01*
X44450000Y38896857D01*
X44521068Y38763898D01*
X44700392Y38545391D01*
X44918899Y38366067D01*
X45168192Y38232817D01*
X45438691Y38150763D01*
X45649508Y38129999D01*
X45790492Y38129999D01*
X46001309Y38150763D01*
X46271808Y38232817D01*
X46521101Y38366067D01*
X46739608Y38545391D01*
X46918932Y38763898D01*
X46990000Y38896857D01*
X47061068Y38763898D01*
X47125000Y38685996D01*
X47125001Y37300133D01*
X46226865Y36401996D01*
X46183551Y36366449D01*
X46041716Y36193623D01*
X45950812Y36023551D01*
X45936324Y35996446D01*
X45871423Y35782498D01*
X45849509Y35560000D01*
X45855000Y35504248D01*
X45855001Y29900761D01*
X45849509Y29845000D01*
X45871423Y29622502D01*
X45936324Y29408554D01*
X45966908Y29351335D01*
X46041717Y29211377D01*
X46183552Y29038551D01*
X46226860Y29003009D01*
X46783008Y28446860D01*
X46818551Y28403551D01*
X46904642Y28332898D01*
X46991377Y28261716D01*
X47188553Y28156324D01*
X47402501Y28091423D01*
X47625000Y28069509D01*
X47680752Y28075000D01*
X48735714Y28075000D01*
X48873957Y27982629D01*
X49126011Y27878225D01*
X49393589Y27825000D01*
X49666411Y27825000D01*
X49933989Y27878225D01*
X50186043Y27982629D01*
X50324286Y28075000D01*
X53725716Y28075000D01*
X53930273Y27938320D01*
X54191426Y27830147D01*
X54468665Y27775000D01*
X54751335Y27775000D01*
X55028574Y27830147D01*
X55289727Y27938320D01*
X55524759Y28095363D01*
X55724637Y28295241D01*
X55855009Y28490358D01*
X56569963Y28490358D01*
X56670344Y28388801D01*
X56839001Y28318807D01*
X57018071Y28283061D01*
X57200674Y28282938D01*
X57379793Y28318441D01*
X57548543Y28388206D01*
X57549656Y28388801D01*
X57650037Y28490358D01*
X57110000Y29030395D01*
X56569963Y28490358D01*
X55855009Y28490358D01*
X55881680Y28530273D01*
X55989853Y28791426D01*
X56045000Y29068665D01*
X56045000Y29119326D01*
X56182938Y29119326D01*
X56218441Y28940207D01*
X56288206Y28771457D01*
X56288801Y28770344D01*
X56390358Y28669963D01*
X56930395Y29210000D01*
X57289605Y29210000D01*
X57829642Y28669963D01*
X57931199Y28770344D01*
X58001193Y28939001D01*
X58036939Y29118071D01*
X58037062Y29300674D01*
X58001559Y29479793D01*
X57931794Y29648543D01*
X57931199Y29649656D01*
X57829642Y29750037D01*
X57289605Y29210000D01*
X56930395Y29210000D01*
X56390358Y29750037D01*
X56288801Y29649656D01*
X56218807Y29480999D01*
X56183061Y29301929D01*
X56182938Y29119326D01*
X56045000Y29119326D01*
X56045000Y29351335D01*
X55989853Y29628574D01*
X55881680Y29889727D01*
X55855010Y29929642D01*
X56569963Y29929642D01*
X57110000Y29389605D01*
X57650037Y29929642D01*
X57549656Y30031199D01*
X57380999Y30101193D01*
X57201929Y30136939D01*
X57019326Y30137062D01*
X56840207Y30101559D01*
X56671457Y30031794D01*
X56670344Y30031199D01*
X56569963Y29929642D01*
X55855010Y29929642D01*
X55724637Y30124759D01*
X55524759Y30324637D01*
X55289727Y30481680D01*
X55028574Y30589853D01*
X54751335Y30645000D01*
X54468665Y30645000D01*
X54191426Y30589853D01*
X53930273Y30481680D01*
X53725716Y30345000D01*
X50324286Y30345000D01*
X50186043Y30437371D01*
X49933989Y30541775D01*
X49666411Y30595000D01*
X49393589Y30595000D01*
X49126011Y30541775D01*
X48873957Y30437371D01*
X48735714Y30345000D01*
X48125000Y30345000D01*
X48125000Y35089869D01*
X49023140Y35988008D01*
X49066449Y36023551D01*
X49208284Y36196377D01*
X49313676Y36393553D01*
X49372509Y36587498D01*
X49378577Y36607500D01*
X49382048Y36642743D01*
X49395000Y36774248D01*
X49395000Y36774255D01*
X49400490Y36829999D01*
X49395000Y36885743D01*
X49395000Y38685997D01*
X49458932Y38763898D01*
X49530000Y38896857D01*
X49601068Y38763898D01*
X49665000Y38685996D01*
X49665001Y35830132D01*
X49501855Y35666986D01*
X49458552Y35631448D01*
X49423014Y35588145D01*
X49289081Y35454212D01*
X49126011Y35421775D01*
X48873957Y35317371D01*
X48647114Y35165799D01*
X48454201Y34972886D01*
X48302629Y34746043D01*
X48198225Y34493989D01*
X48145000Y34226411D01*
X48145000Y33953589D01*
X48198225Y33686011D01*
X48302629Y33433957D01*
X48454201Y33207114D01*
X48647114Y33014201D01*
X48873957Y32862629D01*
X49126011Y32758225D01*
X49393589Y32705000D01*
X49666411Y32705000D01*
X49933989Y32758225D01*
X50186043Y32862629D01*
X50412886Y33014201D01*
X50571829Y33173144D01*
X50577501Y33171423D01*
X50744248Y33155000D01*
X50744257Y33155000D01*
X50799999Y33149510D01*
X50855741Y33155000D01*
X53725716Y33155000D01*
X53930273Y33018320D01*
X54191426Y32910147D01*
X54468665Y32855000D01*
X54751335Y32855000D01*
X55028574Y32910147D01*
X55289727Y33018320D01*
X55524759Y33175363D01*
X55724637Y33375241D01*
X55855009Y33570358D01*
X56569963Y33570358D01*
X56670344Y33468801D01*
X56839001Y33398807D01*
X57018071Y33363061D01*
X57200674Y33362938D01*
X57379793Y33398441D01*
X57548543Y33468206D01*
X57549656Y33468801D01*
X57650037Y33570358D01*
X57110000Y34110395D01*
X56569963Y33570358D01*
X55855009Y33570358D01*
X55881680Y33610273D01*
X55989853Y33871426D01*
X56045000Y34148665D01*
X56045000Y34199326D01*
X56182938Y34199326D01*
X56218441Y34020207D01*
X56288206Y33851457D01*
X56288801Y33850344D01*
X56390358Y33749963D01*
X56930395Y34290000D01*
X57289605Y34290000D01*
X57829642Y33749963D01*
X57931199Y33850344D01*
X58001193Y34019001D01*
X58036939Y34198071D01*
X58037062Y34380674D01*
X58001559Y34559793D01*
X57931794Y34728543D01*
X57931199Y34729656D01*
X57829642Y34830037D01*
X57289605Y34290000D01*
X56930395Y34290000D01*
X56390358Y34830037D01*
X56288801Y34729656D01*
X56218807Y34560999D01*
X56183061Y34381929D01*
X56182938Y34199326D01*
X56045000Y34199326D01*
X56045000Y34431335D01*
X55989853Y34708574D01*
X55881680Y34969727D01*
X55855010Y35009642D01*
X56569963Y35009642D01*
X57110000Y34469605D01*
X57650037Y35009642D01*
X57549656Y35111199D01*
X57380999Y35181193D01*
X57201929Y35216939D01*
X57019326Y35217062D01*
X56840207Y35181559D01*
X56671457Y35111794D01*
X56670344Y35111199D01*
X56569963Y35009642D01*
X55855010Y35009642D01*
X55724637Y35204759D01*
X55524759Y35404637D01*
X55289727Y35561680D01*
X55028574Y35669853D01*
X54751335Y35725000D01*
X54468665Y35725000D01*
X54191426Y35669853D01*
X53930273Y35561680D01*
X53725716Y35425000D01*
X51935000Y35425000D01*
X51935000Y38685997D01*
X51998932Y38763898D01*
X52132182Y39013191D01*
X52214236Y39283690D01*
X52215439Y39295914D01*
X52452906Y39295914D01*
X52522447Y39128021D01*
X52623406Y38976921D01*
X52751903Y38848420D01*
X52903001Y38747457D01*
X53070916Y38677912D01*
X53213000Y38678803D01*
X53213000Y39437999D01*
X53467000Y39437999D01*
X53467000Y38678803D01*
X53609084Y38677912D01*
X53776999Y38747457D01*
X53928097Y38848420D01*
X54056594Y38976921D01*
X54157553Y39128021D01*
X54227094Y39295914D01*
X54226517Y39437999D01*
X53467000Y39437999D01*
X53213000Y39437999D01*
X52453483Y39437999D01*
X52452906Y39295914D01*
X52215439Y39295914D01*
X52241943Y39564999D01*
X52215440Y39834084D01*
X52452906Y39834084D01*
X52453483Y39691999D01*
X53213000Y39691999D01*
X53213000Y40451195D01*
X53467000Y40451195D01*
X53467000Y39691999D01*
X54226517Y39691999D01*
X54227094Y39834084D01*
X54157553Y40001977D01*
X54056594Y40153077D01*
X53928097Y40281578D01*
X53776999Y40382541D01*
X53609084Y40452086D01*
X53467000Y40451195D01*
X53213000Y40451195D01*
X53070916Y40452086D01*
X52903001Y40382541D01*
X52751903Y40281578D01*
X52623406Y40153077D01*
X52522447Y40001977D01*
X52452906Y39834084D01*
X52215440Y39834084D01*
X52214236Y39846308D01*
X52132182Y40116807D01*
X51998932Y40366100D01*
X51819608Y40584607D01*
X51601101Y40763931D01*
X51351808Y40897181D01*
X51081309Y40979235D01*
X50870492Y40999999D01*
X50729508Y40999999D01*
X50518691Y40979235D01*
X50248192Y40897181D01*
X49998899Y40763931D01*
X49780392Y40584607D01*
X49601068Y40366100D01*
X49530000Y40233141D01*
X49458932Y40366100D01*
X49279608Y40584607D01*
X49061101Y40763931D01*
X48811808Y40897181D01*
X48541309Y40979235D01*
X48330492Y40999999D01*
X48189508Y40999999D01*
X47978691Y40979235D01*
X47708192Y40897181D01*
X47458899Y40763931D01*
X47240392Y40584607D01*
X47061068Y40366100D01*
X46990000Y40233141D01*
X46955000Y40298622D01*
X46955000Y40763447D01*
X51630381Y45438827D01*
X51677502Y45477498D01*
X51831833Y45665551D01*
X51946511Y45880099D01*
X52017130Y46112898D01*
X52035000Y46294335D01*
X52035000Y46294336D01*
X52040975Y46355000D01*
X52035000Y46415665D01*
X52035000Y47424033D01*
X52040706Y47430986D01*
X52178599Y47688966D01*
X52263513Y47968889D01*
X52292185Y48260000D01*
X52263513Y48551111D01*
X52178599Y48831034D01*
X52040706Y49089014D01*
X51855134Y49315134D01*
X51629014Y49500706D01*
X51371034Y49638599D01*
X51091111Y49723513D01*
X50872950Y49745000D01*
X50727050Y49745000D01*
X50508889Y49723513D01*
X50228966Y49638599D01*
X49970986Y49500706D01*
X49744866Y49315134D01*
X49559294Y49089014D01*
X49530000Y49034209D01*
X49500706Y49089014D01*
X49315134Y49315134D01*
X49089014Y49500706D01*
X48831034Y49638599D01*
X48551111Y49723513D01*
X48332950Y49745000D01*
X48187050Y49745000D01*
X47968889Y49723513D01*
X47688966Y49638599D01*
X47430986Y49500706D01*
X47204866Y49315134D01*
X47180393Y49285313D01*
X47159502Y49354180D01*
X47100537Y49464494D01*
X47021185Y49561185D01*
X46924494Y49640537D01*
X46814180Y49699502D01*
X46694482Y49735812D01*
X46570000Y49748072D01*
X44870000Y49748072D01*
X44745518Y49735812D01*
X44625820Y49699502D01*
X44515506Y49640537D01*
X44418815Y49561185D01*
X44339463Y49464494D01*
X44280498Y49354180D01*
X44244188Y49234482D01*
X44231928Y49110000D01*
X44231928Y47883482D01*
X39809621Y43461174D01*
X39762499Y43422502D01*
X39608168Y43234449D01*
X39494648Y43022068D01*
X39493489Y43019899D01*
X39422870Y42787102D01*
X39399025Y42545000D01*
X39405001Y42484325D01*
X39405000Y40298622D01*
X39370000Y40233141D01*
X39298932Y40366100D01*
X39119608Y40584607D01*
X38901101Y40763931D01*
X38651808Y40897181D01*
X38381309Y40979235D01*
X38170492Y40999999D01*
X38029508Y40999999D01*
X37818691Y40979235D01*
X37548192Y40897181D01*
X37298899Y40763931D01*
X37080392Y40584607D01*
X36901068Y40366100D01*
X36830000Y40233141D01*
X36795000Y40298622D01*
X36795000Y40763447D01*
X41470381Y45438827D01*
X41517502Y45477498D01*
X41671833Y45665551D01*
X41786511Y45880099D01*
X41857130Y46112898D01*
X41875000Y46294335D01*
X41875000Y46294336D01*
X41880975Y46355000D01*
X41875000Y46415665D01*
X41875000Y47424033D01*
X41880706Y47430986D01*
X42018599Y47688966D01*
X42103513Y47968889D01*
X42132185Y48260000D01*
X42103513Y48551111D01*
X42018599Y48831034D01*
X41880706Y49089014D01*
X41695134Y49315134D01*
X41469014Y49500706D01*
X41211034Y49638599D01*
X40931111Y49723513D01*
X40712950Y49745000D01*
X40567050Y49745000D01*
X40348889Y49723513D01*
X40068966Y49638599D01*
X39810986Y49500706D01*
X39584866Y49315134D01*
X39560393Y49285313D01*
X39539502Y49354180D01*
X39480537Y49464494D01*
X39401185Y49561185D01*
X39304494Y49640537D01*
X39194180Y49699502D01*
X39074482Y49735812D01*
X38950000Y49748072D01*
X37250000Y49748072D01*
X37125518Y49735812D01*
X37005820Y49699502D01*
X36895506Y49640537D01*
X36798815Y49561185D01*
X36719463Y49464494D01*
X36660498Y49354180D01*
X36624188Y49234482D01*
X36611928Y49110000D01*
X36611928Y47410000D01*
X36624188Y47285518D01*
X36629955Y47266508D01*
X32189621Y42826174D01*
X32142499Y42787502D01*
X31988168Y42599449D01*
X31879091Y42395379D01*
X31873489Y42384899D01*
X31802870Y42152102D01*
X31779025Y41910000D01*
X31785001Y41849325D01*
X31785000Y40298622D01*
X31687818Y40116807D01*
X31605764Y39846308D01*
X31578057Y39564999D01*
X27270000Y39564999D01*
X27270000Y40579335D01*
X27275975Y40640000D01*
X27252130Y40882102D01*
X27189034Y41090100D01*
X27181511Y41114901D01*
X27066833Y41329449D01*
X26912502Y41517502D01*
X26865380Y41556174D01*
X25046178Y43375375D01*
X25007502Y43422502D01*
X24819449Y43576833D01*
X24604901Y43691511D01*
X24372102Y43762130D01*
X24190665Y43780000D01*
X24130000Y43785975D01*
X24069335Y43780000D01*
X20920000Y43780000D01*
X20920000Y48199336D01*
X20925769Y48257909D01*
X21038192Y48197818D01*
X21308691Y48115764D01*
X21519508Y48095000D01*
X21660492Y48095000D01*
X21871309Y48115764D01*
X22141808Y48197818D01*
X22323623Y48295000D01*
X25373464Y48295000D01*
X25368815Y48291185D01*
X25289463Y48194494D01*
X25230498Y48084180D01*
X25194188Y47964482D01*
X25181928Y47840000D01*
X25181928Y46140000D01*
X25194188Y46015518D01*
X25230498Y45895820D01*
X25289463Y45785506D01*
X25368815Y45688815D01*
X25465506Y45609463D01*
X25575820Y45550498D01*
X25695518Y45514188D01*
X25820000Y45501928D01*
X27520000Y45501928D01*
X27644482Y45514188D01*
X27764180Y45550498D01*
X27874494Y45609463D01*
X27971185Y45688815D01*
X28050537Y45785506D01*
X28109502Y45895820D01*
X28145812Y46015518D01*
X28158072Y46140000D01*
X31407386Y46140000D01*
X31409838Y46115104D01*
X31417100Y46091164D01*
X31428893Y46069101D01*
X31444763Y46049763D01*
X31464101Y46033893D01*
X31486164Y46022100D01*
X31510104Y46014838D01*
X31535000Y46012386D01*
X32226250Y46013000D01*
X32258000Y46044750D01*
X32258000Y46863000D01*
X32512000Y46863000D01*
X32512000Y46044750D01*
X32543750Y46013000D01*
X33235000Y46012386D01*
X33259896Y46014838D01*
X33283836Y46022100D01*
X33305899Y46033893D01*
X33325237Y46049763D01*
X33341107Y46069101D01*
X33352900Y46091164D01*
X33360162Y46115104D01*
X33362614Y46140000D01*
X33362000Y46831250D01*
X33330250Y46863000D01*
X32512000Y46863000D01*
X32258000Y46863000D01*
X31439750Y46863000D01*
X31408000Y46831250D01*
X31407386Y46140000D01*
X28158072Y46140000D01*
X28158072Y47840000D01*
X31407386Y47840000D01*
X31408000Y47148750D01*
X31439750Y47117000D01*
X32258000Y47117000D01*
X32258000Y47935250D01*
X32512000Y47935250D01*
X32512000Y47117000D01*
X33330250Y47117000D01*
X33362000Y47148750D01*
X33362614Y47840000D01*
X33360162Y47864896D01*
X33352900Y47888836D01*
X33341107Y47910899D01*
X33325237Y47930237D01*
X33305899Y47946107D01*
X33283836Y47957900D01*
X33259896Y47965162D01*
X33235000Y47967614D01*
X32543750Y47967000D01*
X32512000Y47935250D01*
X32258000Y47935250D01*
X32226250Y47967000D01*
X31535000Y47967614D01*
X31510104Y47965162D01*
X31486164Y47957900D01*
X31464101Y47946107D01*
X31444763Y47930237D01*
X31428893Y47910899D01*
X31417100Y47888836D01*
X31409838Y47864896D01*
X31407386Y47840000D01*
X28158072Y47840000D01*
X28145812Y47964482D01*
X28109502Y48084180D01*
X28050537Y48194494D01*
X27971185Y48291185D01*
X27905000Y48345501D01*
X27905000Y48694033D01*
X27910706Y48700986D01*
X28048599Y48958966D01*
X28133513Y49238889D01*
X28134395Y49247841D01*
X28139578Y49253024D01*
X31448084Y49253024D01*
X31452096Y49239771D01*
X31526642Y49063347D01*
X31634175Y48904856D01*
X31770561Y48770389D01*
X31930560Y48665114D01*
X32108023Y48593076D01*
X32258000Y48593032D01*
X32258000Y49403000D01*
X32512000Y49403000D01*
X32512000Y48593032D01*
X32661977Y48593076D01*
X32839440Y48665114D01*
X32999439Y48770389D01*
X33135825Y48904856D01*
X33243358Y49063347D01*
X33317904Y49239771D01*
X33321916Y49253024D01*
X33321680Y49403000D01*
X32512000Y49403000D01*
X32258000Y49403000D01*
X31448320Y49403000D01*
X31448084Y49253024D01*
X28139578Y49253024D01*
X29086554Y50200000D01*
X31679671Y50200000D01*
X31634175Y50155144D01*
X31526642Y49996653D01*
X31452096Y49820229D01*
X31448084Y49806976D01*
X31448320Y49657000D01*
X32258000Y49657000D01*
X32258000Y49677000D01*
X32512000Y49677000D01*
X32512000Y49657000D01*
X33321680Y49657000D01*
X33321916Y49806976D01*
X33317904Y49820229D01*
X33243358Y49996653D01*
X33135825Y50155144D01*
X33090329Y50200000D01*
X51558447Y50200000D01*
X52740001Y49018445D01*
X52740000Y44510665D01*
X52734025Y44450000D01*
X52757870Y44207898D01*
X52769722Y44168827D01*
X52828489Y43975100D01*
X52943167Y43760552D01*
X53097498Y43572498D01*
X53144625Y43533822D01*
X54645001Y42033445D01*
X54645000Y40298622D01*
X54547818Y40116807D01*
X54465764Y39846308D01*
X54438057Y39564999D01*
X54465764Y39283690D01*
X54547818Y39013191D01*
X54645000Y38831376D01*
X54645001Y37525675D01*
X54639025Y37465000D01*
X54662870Y37222898D01*
X54731669Y36996101D01*
X54733490Y36990099D01*
X54848168Y36775551D01*
X55002499Y36587498D01*
X55049622Y36548825D01*
X55598817Y35999630D01*
X55637498Y35952498D01*
X55825551Y35798167D01*
X56040099Y35683489D01*
X56172940Y35643192D01*
X56272898Y35612870D01*
X56515000Y35589025D01*
X56575665Y35595000D01*
X60925296Y35595000D01*
X60958320Y35515273D01*
X60995001Y35460376D01*
X60995000Y33754623D01*
X60958320Y33699727D01*
X60850147Y33438574D01*
X60795000Y33161335D01*
X60795000Y32878665D01*
X60850147Y32601426D01*
X60958320Y32340273D01*
X60995001Y32285376D01*
X60995000Y29944623D01*
X60958320Y29889727D01*
X60850147Y29628574D01*
X60837266Y29563820D01*
X60129621Y28856174D01*
X60082499Y28817502D01*
X59928168Y28629449D01*
X59853823Y28490358D01*
X59813489Y28414899D01*
X59742870Y28182102D01*
X59719025Y27940000D01*
X59725001Y27879325D01*
X59725000Y25058622D01*
X59627818Y24876807D01*
X59545764Y24606308D01*
X59518057Y24324999D01*
X59545764Y24043690D01*
X59627818Y23773191D01*
X59725000Y23591376D01*
X59725001Y14030675D01*
X59719025Y13970000D01*
X59742870Y13727898D01*
X59813489Y13495101D01*
X59813490Y13495099D01*
X59928168Y13280551D01*
X60082499Y13092498D01*
X60129621Y13053826D01*
X61948826Y11234620D01*
X61987498Y11187498D01*
X62175551Y11033167D01*
X62390099Y10918489D01*
X62510588Y10881939D01*
X62622898Y10847870D01*
X62865000Y10824025D01*
X62925665Y10830000D01*
X81854335Y10830000D01*
X81915000Y10824025D01*
X81975665Y10830000D01*
X82157102Y10847870D01*
X82389901Y10918489D01*
X82604449Y11033167D01*
X82792502Y11187498D01*
X82831178Y11234625D01*
X86042500Y14445946D01*
X86713826Y13774620D01*
X86752498Y13727498D01*
X86940551Y13573167D01*
X87155099Y13458489D01*
X87387897Y13387870D01*
X87629999Y13364025D01*
X87690664Y13370000D01*
X92509033Y13370000D01*
X92515986Y13364294D01*
X92570791Y13335000D01*
X92515986Y13305706D01*
X92509033Y13300000D01*
X86231967Y13300000D01*
X86114405Y13348696D01*
X85856486Y13400000D01*
X85593514Y13400000D01*
X85335595Y13348696D01*
X85092641Y13248061D01*
X84873987Y13101962D01*
X84688038Y12916013D01*
X84541939Y12697359D01*
X84441304Y12454405D01*
X84390000Y12196486D01*
X84390000Y11933514D01*
X84441304Y11675595D01*
X84541939Y11432641D01*
X84688038Y11213987D01*
X84873987Y11028038D01*
X85092641Y10881939D01*
X85335595Y10781304D01*
X85593514Y10730000D01*
X85856486Y10730000D01*
X86114405Y10781304D01*
X86231967Y10830000D01*
X92509033Y10830000D01*
X92515986Y10824294D01*
X92773966Y10686401D01*
X93053889Y10601487D01*
X93272050Y10580000D01*
X93417950Y10580000D01*
X93636111Y10601487D01*
X93916034Y10686401D01*
X94174014Y10824294D01*
X94400134Y11009866D01*
X94585706Y11235986D01*
X94723599Y11493966D01*
X94808513Y11773889D01*
X94837185Y12065000D01*
X94808513Y12356111D01*
X94723599Y12636034D01*
X94585706Y12894014D01*
X94400134Y13120134D01*
X94174014Y13305706D01*
X94119209Y13335000D01*
X94174014Y13364294D01*
X94400134Y13549866D01*
X94585706Y13775986D01*
X94723599Y14033966D01*
X94808513Y14313889D01*
X94837185Y14605000D01*
X94808513Y14896111D01*
X94723599Y15176034D01*
X94585706Y15434014D01*
X94400134Y15660134D01*
X94174014Y15845706D01*
X93916034Y15983599D01*
X93636111Y16068513D01*
X93417950Y16090000D01*
X93272050Y16090000D01*
X93053889Y16068513D01*
X92773966Y15983599D01*
X92515986Y15845706D01*
X92509033Y15840000D01*
X88141554Y15840000D01*
X87113530Y16868024D01*
X92408084Y16868024D01*
X92412096Y16854771D01*
X92486642Y16678347D01*
X92594175Y16519856D01*
X92730561Y16385389D01*
X92890560Y16280114D01*
X93068023Y16208076D01*
X93218000Y16208032D01*
X93218000Y17018000D01*
X93472000Y17018000D01*
X93472000Y16208032D01*
X93621977Y16208076D01*
X93799440Y16280114D01*
X93959439Y16385389D01*
X94095825Y16519856D01*
X94203358Y16678347D01*
X94277904Y16854771D01*
X94281916Y16868024D01*
X94281680Y17018000D01*
X93472000Y17018000D01*
X93218000Y17018000D01*
X92408320Y17018000D01*
X92408084Y16868024D01*
X87113530Y16868024D01*
X86958668Y17022885D01*
X86920001Y17070001D01*
X86872885Y17108668D01*
X86559577Y17421976D01*
X92408084Y17421976D01*
X92408320Y17272000D01*
X93218000Y17272000D01*
X93472000Y17272000D01*
X94281680Y17272000D01*
X94281916Y17421976D01*
X94277904Y17435229D01*
X94203358Y17611653D01*
X94095825Y17770144D01*
X93959439Y17904611D01*
X93799440Y18009886D01*
X93621977Y18081924D01*
X93472000Y18081968D01*
X93472000Y17272000D01*
X93218000Y17272000D01*
X93218000Y18081968D01*
X93068023Y18081924D01*
X92890560Y18009886D01*
X92730561Y17904611D01*
X92594175Y17770144D01*
X92486642Y17611653D01*
X92412096Y17435229D01*
X92408084Y17421976D01*
X86559577Y17421976D01*
X85055000Y18926553D01*
X85055000Y19585377D01*
X85091680Y19640273D01*
X85199853Y19901426D01*
X85255000Y20178665D01*
X85255000Y20461335D01*
X85199853Y20738574D01*
X85091680Y20999727D01*
X84934637Y21234759D01*
X84734759Y21434637D01*
X84499727Y21591680D01*
X84419285Y21625000D01*
X84578447Y21625000D01*
X87348826Y18854620D01*
X87387498Y18807498D01*
X87575551Y18653167D01*
X87695553Y18589025D01*
X87790099Y18538489D01*
X88022897Y18467870D01*
X88264999Y18444025D01*
X88325664Y18450000D01*
X92509033Y18450000D01*
X92515986Y18444294D01*
X92773966Y18306401D01*
X93053889Y18221487D01*
X93272050Y18200000D01*
X93417950Y18200000D01*
X93636111Y18221487D01*
X93916034Y18306401D01*
X94174014Y18444294D01*
X94400134Y18629866D01*
X94585706Y18855986D01*
X94723599Y19113966D01*
X94808513Y19393889D01*
X94837185Y19685000D01*
X94808513Y19976111D01*
X94723599Y20256034D01*
X94585706Y20514014D01*
X94400134Y20740134D01*
X94174014Y20925706D01*
X94119209Y20955000D01*
X94174014Y20984294D01*
X94400134Y21169866D01*
X94585706Y21395986D01*
X94723599Y21653966D01*
X94808513Y21933889D01*
X94837185Y22225000D01*
X94808513Y22516111D01*
X94723599Y22796034D01*
X94585706Y23054014D01*
X94400134Y23280134D01*
X94370313Y23304607D01*
X94439180Y23325498D01*
X94549494Y23384463D01*
X94646185Y23463815D01*
X94725537Y23560506D01*
X94784502Y23670820D01*
X94820812Y23790518D01*
X94833072Y23915000D01*
X94833072Y25615000D01*
X94820812Y25739482D01*
X94784502Y25859180D01*
X94725537Y25969494D01*
X94646185Y26066185D01*
X94549494Y26145537D01*
X94439180Y26204502D01*
X94319482Y26240812D01*
X94195000Y26253072D01*
X92495000Y26253072D01*
X92370518Y26240812D01*
X92250820Y26204502D01*
X92140506Y26145537D01*
X92043815Y26066185D01*
X91964463Y25969494D01*
X91905498Y25859180D01*
X91869188Y25739482D01*
X91856928Y25615000D01*
X91856928Y23915000D01*
X91869188Y23790518D01*
X91905498Y23670820D01*
X91964463Y23560506D01*
X92043815Y23463815D01*
X92048464Y23460000D01*
X89411554Y23460000D01*
X85531553Y27340000D01*
X86934335Y27340000D01*
X86995000Y27334025D01*
X87055665Y27340000D01*
X87237102Y27357870D01*
X87469901Y27428489D01*
X87684449Y27543167D01*
X87872502Y27697498D01*
X87911178Y27744625D01*
X89730381Y29563827D01*
X89777502Y29602498D01*
X89931833Y29790551D01*
X90046511Y30005099D01*
X90117130Y30237898D01*
X90135000Y30419335D01*
X90135000Y30419336D01*
X90140975Y30480000D01*
X90135000Y30540665D01*
X90135000Y31560379D01*
X90215990Y31681589D01*
X90327932Y31951842D01*
X90385000Y32238740D01*
X90385000Y32531260D01*
X90327932Y32818158D01*
X90215990Y33088411D01*
X90053475Y33331632D01*
X89846632Y33538475D01*
X89603411Y33700990D01*
X89333158Y33812932D01*
X89046260Y33870000D01*
X88753740Y33870000D01*
X88466842Y33812932D01*
X88196589Y33700990D01*
X87953368Y33538475D01*
X87746525Y33331632D01*
X87584010Y33088411D01*
X87472068Y32818158D01*
X87415000Y32531260D01*
X87415000Y32238740D01*
X87472068Y31951842D01*
X87584010Y31681589D01*
X87665001Y31560378D01*
X87665000Y30991554D01*
X86483447Y29810000D01*
X81244285Y29810000D01*
X81324727Y29843320D01*
X81379623Y29880000D01*
X82489335Y29880000D01*
X82550000Y29874025D01*
X82610665Y29880000D01*
X82792102Y29897870D01*
X83024901Y29968489D01*
X83239449Y30083167D01*
X83427502Y30237498D01*
X83466178Y30284625D01*
X87506554Y34325000D01*
X91563447Y34325000D01*
X92165000Y33723446D01*
X92165001Y33209622D01*
X92084010Y33088411D01*
X91972068Y32818158D01*
X91915000Y32531260D01*
X91915000Y32238740D01*
X91972068Y31951842D01*
X92084010Y31681589D01*
X92246525Y31438368D01*
X92453368Y31231525D01*
X92696589Y31069010D01*
X92966842Y30957068D01*
X93253740Y30900000D01*
X93546260Y30900000D01*
X93833158Y30957068D01*
X94103411Y31069010D01*
X94346632Y31231525D01*
X94553475Y31438368D01*
X94715990Y31681589D01*
X94827932Y31951842D01*
X94885000Y32238740D01*
X94885000Y32531260D01*
X94827932Y32818158D01*
X94715990Y33088411D01*
X94635000Y33209621D01*
X94635000Y34174335D01*
X94640975Y34235000D01*
X94617130Y34477103D01*
X94561648Y34660000D01*
X94546511Y34709901D01*
X94431833Y34924449D01*
X94277502Y35112502D01*
X94230381Y35151173D01*
X92991178Y36390375D01*
X92952502Y36437502D01*
X92764449Y36591833D01*
X92549901Y36706511D01*
X92317102Y36777130D01*
X92135665Y36795000D01*
X92075000Y36800975D01*
X92014335Y36795000D01*
X87055662Y36795000D01*
X86994999Y36800975D01*
X86934336Y36795000D01*
X86934335Y36795000D01*
X86752898Y36777130D01*
X86520099Y36706511D01*
X86305551Y36591833D01*
X86117498Y36437502D01*
X86078826Y36390380D01*
X82038447Y32350000D01*
X81379623Y32350000D01*
X81324727Y32386680D01*
X81063574Y32494853D01*
X80786335Y32550000D01*
X80503665Y32550000D01*
X80226426Y32494853D01*
X79965273Y32386680D01*
X79730241Y32229637D01*
X79530363Y32029759D01*
X79373320Y31794727D01*
X79265147Y31533574D01*
X79210000Y31256335D01*
X79210000Y30973665D01*
X79265147Y30696426D01*
X79373320Y30435273D01*
X79530363Y30200241D01*
X79730241Y30000363D01*
X79965273Y29843320D01*
X80045715Y29810000D01*
X76260654Y29810000D01*
X76199999Y29815974D01*
X76139344Y29810000D01*
X76139335Y29810000D01*
X75957898Y29792130D01*
X75725099Y29721511D01*
X75510551Y29606833D01*
X75322498Y29452502D01*
X75283826Y29405380D01*
X72829621Y26951174D01*
X72782499Y26912502D01*
X72628168Y26724449D01*
X72586802Y26647058D01*
X72513489Y26509899D01*
X72442870Y26277102D01*
X72419025Y26035000D01*
X72425000Y25974335D01*
X72425000Y25058622D01*
X72390000Y24993141D01*
X72318932Y25126100D01*
X72139608Y25344607D01*
X71921101Y25523931D01*
X71671808Y25657181D01*
X71401309Y25739235D01*
X71190492Y25759999D01*
X71049508Y25759999D01*
X70838691Y25739235D01*
X70568192Y25657181D01*
X70318899Y25523931D01*
X70100392Y25344607D01*
X69921068Y25126100D01*
X69850000Y24993141D01*
X69778932Y25126100D01*
X69599608Y25344607D01*
X69381101Y25523931D01*
X69131808Y25657181D01*
X68861309Y25739235D01*
X68650492Y25759999D01*
X68509508Y25759999D01*
X68298691Y25739235D01*
X68028192Y25657181D01*
X67778899Y25523931D01*
X67560392Y25344607D01*
X67381068Y25126100D01*
X67310000Y24993141D01*
X67238932Y25126100D01*
X67059608Y25344607D01*
X66841101Y25523931D01*
X66591808Y25657181D01*
X66321309Y25739235D01*
X66110492Y25759999D01*
X65969508Y25759999D01*
X65758691Y25739235D01*
X65488192Y25657181D01*
X65238899Y25523931D01*
X65020392Y25344607D01*
X64841068Y25126100D01*
X64770000Y24993141D01*
X64698932Y25126100D01*
X64519608Y25344607D01*
X64301101Y25523931D01*
X64051808Y25657181D01*
X63781309Y25739235D01*
X63570492Y25759999D01*
X63429508Y25759999D01*
X63218691Y25739235D01*
X62948192Y25657181D01*
X62698899Y25523931D01*
X62480392Y25344607D01*
X62301068Y25126100D01*
X62230000Y24993141D01*
X62195000Y25058622D01*
X62195000Y27428447D01*
X62583820Y27817266D01*
X62648574Y27830147D01*
X62909727Y27938320D01*
X63144759Y28095363D01*
X63344637Y28295241D01*
X63475009Y28490358D01*
X66689963Y28490358D01*
X66790344Y28388801D01*
X66959001Y28318807D01*
X67138071Y28283061D01*
X67320674Y28282938D01*
X67499793Y28318441D01*
X67668543Y28388206D01*
X67669656Y28388801D01*
X67770037Y28490358D01*
X67230000Y29030395D01*
X66689963Y28490358D01*
X63475009Y28490358D01*
X63501680Y28530273D01*
X63609853Y28791426D01*
X63665000Y29068665D01*
X63665000Y29119326D01*
X66302938Y29119326D01*
X66338441Y28940207D01*
X66408206Y28771457D01*
X66408801Y28770344D01*
X66510358Y28669963D01*
X67050395Y29210000D01*
X67409605Y29210000D01*
X67949642Y28669963D01*
X68051199Y28770344D01*
X68121193Y28939001D01*
X68156939Y29118071D01*
X68157062Y29300674D01*
X68121559Y29479793D01*
X68051794Y29648543D01*
X68051199Y29649656D01*
X67949642Y29750037D01*
X67409605Y29210000D01*
X67050395Y29210000D01*
X66510358Y29750037D01*
X66408801Y29649656D01*
X66338807Y29480999D01*
X66303061Y29301929D01*
X66302938Y29119326D01*
X63665000Y29119326D01*
X63665000Y29351335D01*
X63609853Y29628574D01*
X63501680Y29889727D01*
X63475010Y29929642D01*
X66689963Y29929642D01*
X67230000Y29389605D01*
X67770037Y29929642D01*
X67669656Y30031199D01*
X67500999Y30101193D01*
X67321929Y30136939D01*
X67139326Y30137062D01*
X66960207Y30101559D01*
X66791457Y30031794D01*
X66790344Y30031199D01*
X66689963Y29929642D01*
X63475010Y29929642D01*
X63465000Y29944623D01*
X63465000Y30845916D01*
X69597913Y30845916D01*
X69667458Y30678001D01*
X69768421Y30526903D01*
X69896922Y30398406D01*
X70048022Y30297447D01*
X70215915Y30227906D01*
X70358000Y30228483D01*
X70358000Y30988000D01*
X70612000Y30988000D01*
X70612000Y30228483D01*
X70754085Y30227906D01*
X70921978Y30297447D01*
X71073078Y30398406D01*
X71201579Y30526903D01*
X71302542Y30678001D01*
X71372087Y30845916D01*
X71371196Y30988000D01*
X70612000Y30988000D01*
X70358000Y30988000D01*
X69598804Y30988000D01*
X69597913Y30845916D01*
X63465000Y30845916D01*
X63465000Y31384084D01*
X69597913Y31384084D01*
X69598804Y31242000D01*
X70358000Y31242000D01*
X70358000Y32001517D01*
X70612000Y32001517D01*
X70612000Y31242000D01*
X71371196Y31242000D01*
X71372087Y31384084D01*
X71302542Y31551999D01*
X71201579Y31703097D01*
X71073078Y31831594D01*
X70921978Y31932553D01*
X70754085Y32002094D01*
X70612000Y32001517D01*
X70358000Y32001517D01*
X70215915Y32002094D01*
X70048022Y31932553D01*
X69896922Y31831594D01*
X69768421Y31703097D01*
X69667458Y31551999D01*
X69597913Y31384084D01*
X63465000Y31384084D01*
X63465000Y32285377D01*
X63475009Y32300358D01*
X66689963Y32300358D01*
X66790344Y32198801D01*
X66959001Y32128807D01*
X67138071Y32093061D01*
X67320674Y32092938D01*
X67499793Y32128441D01*
X67668543Y32198206D01*
X67669656Y32198801D01*
X67770037Y32300358D01*
X67230000Y32840395D01*
X66689963Y32300358D01*
X63475009Y32300358D01*
X63501680Y32340273D01*
X63609853Y32601426D01*
X63665000Y32878665D01*
X63665000Y32929326D01*
X66302938Y32929326D01*
X66338441Y32750207D01*
X66408206Y32581457D01*
X66408801Y32580344D01*
X66510358Y32479963D01*
X67050395Y33020000D01*
X67409605Y33020000D01*
X67949642Y32479963D01*
X68051199Y32580344D01*
X68121193Y32749001D01*
X68156939Y32928071D01*
X68157062Y33110674D01*
X68121559Y33289793D01*
X68051794Y33458543D01*
X68051199Y33459656D01*
X67949642Y33560037D01*
X67409605Y33020000D01*
X67050395Y33020000D01*
X66510358Y33560037D01*
X66408801Y33459656D01*
X66338807Y33290999D01*
X66303061Y33111929D01*
X66302938Y32929326D01*
X63665000Y32929326D01*
X63665000Y33161335D01*
X63609853Y33438574D01*
X63501680Y33699727D01*
X63475010Y33739642D01*
X66689963Y33739642D01*
X67230000Y33199605D01*
X67770037Y33739642D01*
X67669656Y33841199D01*
X67500999Y33911193D01*
X67321929Y33946939D01*
X67139326Y33947062D01*
X66960207Y33911559D01*
X66791457Y33841794D01*
X66790344Y33841199D01*
X66689963Y33739642D01*
X63475010Y33739642D01*
X63465000Y33754623D01*
X63465000Y35460377D01*
X63501680Y35515273D01*
X63609853Y35776426D01*
X63665000Y36053665D01*
X63665000Y36336335D01*
X63609853Y36613574D01*
X63501680Y36874727D01*
X63344637Y37109759D01*
X63144759Y37309637D01*
X62909727Y37466680D01*
X62648574Y37574853D01*
X62583819Y37587734D01*
X62511179Y37660374D01*
X62472502Y37707502D01*
X62284449Y37861833D01*
X62069901Y37976511D01*
X61837102Y38047130D01*
X61655665Y38065000D01*
X61595000Y38070975D01*
X61534335Y38065000D01*
X57115000Y38065000D01*
X57115000Y38831376D01*
X57150000Y38896857D01*
X57221068Y38763898D01*
X57400392Y38545391D01*
X57618899Y38366067D01*
X57868192Y38232817D01*
X58138691Y38150763D01*
X58349508Y38129999D01*
X58490492Y38129999D01*
X58701309Y38150763D01*
X58971808Y38232817D01*
X59221101Y38366067D01*
X59439608Y38545391D01*
X59618932Y38763898D01*
X59690000Y38896857D01*
X59761068Y38763898D01*
X59940392Y38545391D01*
X60158899Y38366067D01*
X60408192Y38232817D01*
X60678691Y38150763D01*
X60889508Y38129999D01*
X61030492Y38129999D01*
X61241309Y38150763D01*
X61511808Y38232817D01*
X61761101Y38366067D01*
X61979608Y38545391D01*
X62158932Y38763898D01*
X62230000Y38896857D01*
X62301068Y38763898D01*
X62480392Y38545391D01*
X62698899Y38366067D01*
X62948192Y38232817D01*
X63218691Y38150763D01*
X63429508Y38129999D01*
X63570492Y38129999D01*
X63781309Y38150763D01*
X64051808Y38232817D01*
X64301101Y38366067D01*
X64519608Y38545391D01*
X64698932Y38763898D01*
X64770000Y38896857D01*
X64841068Y38763898D01*
X65020392Y38545391D01*
X65238899Y38366067D01*
X65488192Y38232817D01*
X65758691Y38150763D01*
X65969508Y38129999D01*
X66110492Y38129999D01*
X66321309Y38150763D01*
X66591808Y38232817D01*
X66841101Y38366067D01*
X67059608Y38545391D01*
X67238932Y38763898D01*
X67310000Y38896857D01*
X67381068Y38763898D01*
X67560392Y38545391D01*
X67778899Y38366067D01*
X68028192Y38232817D01*
X68298691Y38150763D01*
X68509508Y38129999D01*
X68650492Y38129999D01*
X68861309Y38150763D01*
X69131808Y38232817D01*
X69381101Y38366067D01*
X69599608Y38545391D01*
X69778932Y38763898D01*
X69850000Y38896857D01*
X69921068Y38763898D01*
X70100392Y38545391D01*
X70318899Y38366067D01*
X70568192Y38232817D01*
X70838691Y38150763D01*
X71049508Y38129999D01*
X71190492Y38129999D01*
X71401309Y38150763D01*
X71671808Y38232817D01*
X71921101Y38366067D01*
X72139608Y38545391D01*
X72318932Y38763898D01*
X72390000Y38896857D01*
X72461068Y38763898D01*
X72640392Y38545391D01*
X72858899Y38366067D01*
X73108192Y38232817D01*
X73378691Y38150763D01*
X73589508Y38129999D01*
X73730492Y38129999D01*
X73941309Y38150763D01*
X74211808Y38232817D01*
X74461101Y38366067D01*
X74679608Y38545391D01*
X74858932Y38763898D01*
X74930000Y38896857D01*
X75001068Y38763898D01*
X75180392Y38545391D01*
X75398899Y38366067D01*
X75648192Y38232817D01*
X75918691Y38150763D01*
X76129508Y38129999D01*
X76270492Y38129999D01*
X76481309Y38150763D01*
X76751808Y38232817D01*
X77001101Y38366067D01*
X77219608Y38545391D01*
X77398932Y38763898D01*
X77470000Y38896857D01*
X77541068Y38763898D01*
X77720392Y38545391D01*
X77938899Y38366067D01*
X78188192Y38232817D01*
X78458691Y38150763D01*
X78669508Y38129999D01*
X78810492Y38129999D01*
X79021309Y38150763D01*
X79291808Y38232817D01*
X79541101Y38366067D01*
X79759608Y38545391D01*
X79852419Y38658481D01*
X79854188Y38640517D01*
X79890498Y38520819D01*
X79949463Y38410505D01*
X80028815Y38313814D01*
X80045000Y38300531D01*
X80045000Y38076553D01*
X79398448Y37430000D01*
X73123623Y37430000D01*
X72941808Y37527182D01*
X72671309Y37609236D01*
X72460492Y37630000D01*
X72319508Y37630000D01*
X72108691Y37609236D01*
X71838192Y37527182D01*
X71588899Y37393932D01*
X71370392Y37214608D01*
X71191068Y36996101D01*
X71057818Y36746808D01*
X70975764Y36476309D01*
X70948057Y36195000D01*
X70975764Y35913691D01*
X71057818Y35643192D01*
X71191068Y35393899D01*
X71370392Y35175392D01*
X71588899Y34996068D01*
X71838192Y34862818D01*
X72108691Y34780764D01*
X72319508Y34760000D01*
X72460492Y34760000D01*
X72671309Y34780764D01*
X72941808Y34862818D01*
X73123623Y34960000D01*
X79849336Y34960000D01*
X79910001Y34954025D01*
X79970666Y34960000D01*
X80152103Y34977870D01*
X80384902Y35048489D01*
X80599450Y35163167D01*
X80787503Y35317498D01*
X80826179Y35364625D01*
X82110381Y36648826D01*
X82157502Y36687497D01*
X82311833Y36875550D01*
X82426511Y37090098D01*
X82467989Y37226833D01*
X82497130Y37322896D01*
X82520975Y37564998D01*
X82515000Y37625663D01*
X82515000Y38300531D01*
X82531185Y38313814D01*
X82610537Y38410505D01*
X82669502Y38520819D01*
X82705812Y38640517D01*
X82718072Y38764999D01*
X82718072Y39031260D01*
X87415000Y39031260D01*
X87415000Y38738740D01*
X87472068Y38451842D01*
X87584010Y38181589D01*
X87746525Y37938368D01*
X87953368Y37731525D01*
X88196589Y37569010D01*
X88466842Y37457068D01*
X88753740Y37400000D01*
X89046260Y37400000D01*
X89333158Y37457068D01*
X89603411Y37569010D01*
X89846632Y37731525D01*
X90053475Y37938368D01*
X90215990Y38181589D01*
X90327932Y38451842D01*
X90385000Y38738740D01*
X90385000Y39031260D01*
X91915000Y39031260D01*
X91915000Y38738740D01*
X91972068Y38451842D01*
X92084010Y38181589D01*
X92246525Y37938368D01*
X92453368Y37731525D01*
X92696589Y37569010D01*
X92966842Y37457068D01*
X93253740Y37400000D01*
X93546260Y37400000D01*
X93833158Y37457068D01*
X94103411Y37569010D01*
X94346632Y37731525D01*
X94553475Y37938368D01*
X94715990Y38181589D01*
X94827932Y38451842D01*
X94885000Y38738740D01*
X94885000Y39031260D01*
X94827932Y39318158D01*
X94715990Y39588411D01*
X94553475Y39831632D01*
X94346632Y40038475D01*
X94103411Y40200990D01*
X93833158Y40312932D01*
X93546260Y40370000D01*
X93253740Y40370000D01*
X92966842Y40312932D01*
X92696589Y40200990D01*
X92453368Y40038475D01*
X92246525Y39831632D01*
X92084010Y39588411D01*
X91972068Y39318158D01*
X91915000Y39031260D01*
X90385000Y39031260D01*
X90327932Y39318158D01*
X90215990Y39588411D01*
X90053475Y39831632D01*
X89846632Y40038475D01*
X89603411Y40200990D01*
X89333158Y40312932D01*
X89046260Y40370000D01*
X88753740Y40370000D01*
X88466842Y40312932D01*
X88196589Y40200990D01*
X87953368Y40038475D01*
X87746525Y39831632D01*
X87584010Y39588411D01*
X87472068Y39318158D01*
X87415000Y39031260D01*
X82718072Y39031260D01*
X82718072Y40364999D01*
X82705812Y40489481D01*
X82669502Y40609179D01*
X82610537Y40719493D01*
X82531185Y40816184D01*
X82515000Y40829467D01*
X82515000Y41053446D01*
X84676554Y43215000D01*
X85218033Y43215000D01*
X85335595Y43166304D01*
X85593514Y43115000D01*
X85856486Y43115000D01*
X86114405Y43166304D01*
X86231967Y43215000D01*
X88075379Y43215000D01*
X88196589Y43134010D01*
X88466842Y43022068D01*
X88753740Y42965000D01*
X89046260Y42965000D01*
X89333158Y43022068D01*
X89603411Y43134010D01*
X89846632Y43296525D01*
X90053475Y43503368D01*
X90181179Y43694492D01*
X92824097Y43694492D01*
X92930549Y43587791D01*
X93107778Y43512772D01*
X93296238Y43473771D01*
X93488684Y43472286D01*
X93677722Y43508374D01*
X93856087Y43580648D01*
X93869451Y43587791D01*
X93975903Y43694492D01*
X93400000Y44270395D01*
X92824097Y43694492D01*
X90181179Y43694492D01*
X90215990Y43746589D01*
X90327932Y44016842D01*
X90385000Y44303740D01*
X90385000Y44361316D01*
X92422286Y44361316D01*
X92458374Y44172278D01*
X92530648Y43993913D01*
X92537791Y43980549D01*
X92644492Y43874097D01*
X93220395Y44450000D01*
X93579605Y44450000D01*
X94155508Y43874097D01*
X94262209Y43980549D01*
X94337228Y44157778D01*
X94376229Y44346238D01*
X94377714Y44538684D01*
X94341626Y44727722D01*
X94269352Y44906087D01*
X94262209Y44919451D01*
X94155508Y45025903D01*
X93579605Y44450000D01*
X93220395Y44450000D01*
X92644492Y45025903D01*
X92537791Y44919451D01*
X92462772Y44742222D01*
X92423771Y44553762D01*
X92422286Y44361316D01*
X90385000Y44361316D01*
X90385000Y44596260D01*
X90327932Y44883158D01*
X90215990Y45153411D01*
X90181180Y45205508D01*
X92824097Y45205508D01*
X93400000Y44629605D01*
X93975903Y45205508D01*
X93869451Y45312209D01*
X93692222Y45387228D01*
X93503762Y45426229D01*
X93311316Y45427714D01*
X93122278Y45391626D01*
X92943913Y45319352D01*
X92930549Y45312209D01*
X92824097Y45205508D01*
X90181180Y45205508D01*
X90053475Y45396632D01*
X89846632Y45603475D01*
X89603411Y45765990D01*
X89333158Y45877932D01*
X89046260Y45935000D01*
X88753740Y45935000D01*
X88466842Y45877932D01*
X88196589Y45765990D01*
X88075379Y45685000D01*
X86231967Y45685000D01*
X86114405Y45733696D01*
X85856486Y45785000D01*
X85593514Y45785000D01*
X85335595Y45733696D01*
X85218033Y45685000D01*
X84225666Y45685000D01*
X84165001Y45690975D01*
X84104336Y45685000D01*
X83922899Y45667130D01*
X83690100Y45596511D01*
X83475552Y45481833D01*
X83287499Y45327502D01*
X83248822Y45280374D01*
X80449621Y42481173D01*
X80402499Y42442501D01*
X80248168Y42254448D01*
X80204428Y42172616D01*
X80133489Y42039898D01*
X80062870Y41807101D01*
X80039025Y41564999D01*
X80045001Y41504324D01*
X80045001Y40829467D01*
X80028815Y40816184D01*
X79975000Y40750610D01*
X79975000Y46904499D01*
X80041185Y46958815D01*
X80120537Y47055506D01*
X80179502Y47165820D01*
X80215812Y47285518D01*
X80228072Y47410000D01*
X80228072Y49110000D01*
X80215812Y49234482D01*
X80179502Y49354180D01*
X80120537Y49464494D01*
X80041185Y49561185D01*
X79944494Y49640537D01*
X79834180Y49699502D01*
X79714482Y49735812D01*
X79590000Y49748072D01*
X77890000Y49748072D01*
X77765518Y49735812D01*
X77645820Y49699502D01*
X77535506Y49640537D01*
X77438815Y49561185D01*
X77359463Y49464494D01*
X77300498Y49354180D01*
X77279607Y49285313D01*
X77255134Y49315134D01*
X77029014Y49500706D01*
X76771034Y49638599D01*
X76491111Y49723513D01*
X76272950Y49745000D01*
X76127050Y49745000D01*
X75908889Y49723513D01*
X75628966Y49638599D01*
X75370986Y49500706D01*
X75144866Y49315134D01*
X74959294Y49089014D01*
X74930000Y49034209D01*
X74900706Y49089014D01*
X74715134Y49315134D01*
X74489014Y49500706D01*
X74231034Y49638599D01*
X73951111Y49723513D01*
X73732950Y49745000D01*
X73587050Y49745000D01*
X73368889Y49723513D01*
X73088966Y49638599D01*
X72830986Y49500706D01*
X72604866Y49315134D01*
X72419294Y49089014D01*
X72390000Y49034209D01*
X72360706Y49089014D01*
X72175134Y49315134D01*
X71949014Y49500706D01*
X71691034Y49638599D01*
X71411111Y49723513D01*
X71192950Y49745000D01*
X71047050Y49745000D01*
X70828889Y49723513D01*
X70548966Y49638599D01*
X70290986Y49500706D01*
X70064866Y49315134D01*
X69879294Y49089014D01*
X69850000Y49034209D01*
X69820706Y49089014D01*
X69635134Y49315134D01*
X69409014Y49500706D01*
X69151034Y49638599D01*
X68871111Y49723513D01*
X68652950Y49745000D01*
X68507050Y49745000D01*
X68288889Y49723513D01*
X68008966Y49638599D01*
X67750986Y49500706D01*
X67524866Y49315134D01*
X67339294Y49089014D01*
X67310000Y49034209D01*
X67280706Y49089014D01*
X67095134Y49315134D01*
X66869014Y49500706D01*
X66611034Y49638599D01*
X66331111Y49723513D01*
X66112950Y49745000D01*
X65967050Y49745000D01*
X65748889Y49723513D01*
X65468966Y49638599D01*
X65210986Y49500706D01*
X64984866Y49315134D01*
X64799294Y49089014D01*
X64661401Y48831034D01*
X64576487Y48551111D01*
X64547815Y48260000D01*
X64576487Y47968889D01*
X64661401Y47688966D01*
X64799294Y47430986D01*
X64805000Y47424033D01*
X64805001Y40298623D01*
X64770000Y40233141D01*
X64735000Y40298622D01*
X64735000Y46294336D01*
X64740975Y46355000D01*
X64717130Y46597102D01*
X64660378Y46784188D01*
X64646511Y46829901D01*
X64531833Y47044449D01*
X64377502Y47232502D01*
X64330381Y47271173D01*
X63059395Y48542159D01*
X63058513Y48551111D01*
X62973599Y48831034D01*
X62835706Y49089014D01*
X62650134Y49315134D01*
X62424014Y49500706D01*
X62166034Y49638599D01*
X61886111Y49723513D01*
X61667950Y49745000D01*
X61522050Y49745000D01*
X61303889Y49723513D01*
X61023966Y49638599D01*
X60765986Y49500706D01*
X60539866Y49315134D01*
X60354294Y49089014D01*
X60325000Y49034209D01*
X60295706Y49089014D01*
X60110134Y49315134D01*
X59884014Y49500706D01*
X59626034Y49638599D01*
X59346111Y49723513D01*
X59127950Y49745000D01*
X58982050Y49745000D01*
X58763889Y49723513D01*
X58483966Y49638599D01*
X58225986Y49500706D01*
X57999866Y49315134D01*
X57975393Y49285313D01*
X57954502Y49354180D01*
X57895537Y49464494D01*
X57816185Y49561185D01*
X57719494Y49640537D01*
X57609180Y49699502D01*
X57489482Y49735812D01*
X57365000Y49748072D01*
X55665000Y49748072D01*
X55540518Y49735812D01*
X55420820Y49699502D01*
X55310506Y49640537D01*
X55213815Y49561185D01*
X55213001Y49560193D01*
X55192130Y49772102D01*
X55121976Y50003368D01*
X55121511Y50004901D01*
X55006833Y50219449D01*
X54852502Y50407502D01*
X54805380Y50446174D01*
X54155294Y51096260D01*
X87415000Y51096260D01*
X87415000Y50803740D01*
X87472068Y50516842D01*
X87584010Y50246589D01*
X87746525Y50003368D01*
X87953368Y49796525D01*
X88196589Y49634010D01*
X88466842Y49522068D01*
X88753740Y49465000D01*
X89046260Y49465000D01*
X89333158Y49522068D01*
X89603411Y49634010D01*
X89846632Y49796525D01*
X90053475Y50003368D01*
X90215990Y50246589D01*
X90327932Y50516842D01*
X90385000Y50803740D01*
X90385000Y51096260D01*
X91915000Y51096260D01*
X91915000Y50803740D01*
X91972068Y50516842D01*
X92084010Y50246589D01*
X92246525Y50003368D01*
X92453368Y49796525D01*
X92696589Y49634010D01*
X92966842Y49522068D01*
X93253740Y49465000D01*
X93546260Y49465000D01*
X93833158Y49522068D01*
X94103411Y49634010D01*
X94346632Y49796525D01*
X94553475Y50003368D01*
X94715990Y50246589D01*
X94827932Y50516842D01*
X94885000Y50803740D01*
X94885000Y51096260D01*
X94827932Y51383158D01*
X94715990Y51653411D01*
X94553475Y51896632D01*
X94346632Y52103475D01*
X94103411Y52265990D01*
X93833158Y52377932D01*
X93546260Y52435000D01*
X93253740Y52435000D01*
X92966842Y52377932D01*
X92696589Y52265990D01*
X92453368Y52103475D01*
X92246525Y51896632D01*
X92084010Y51653411D01*
X91972068Y51383158D01*
X91915000Y51096260D01*
X90385000Y51096260D01*
X90327932Y51383158D01*
X90215990Y51653411D01*
X90053475Y51896632D01*
X89846632Y52103475D01*
X89603411Y52265990D01*
X89333158Y52377932D01*
X89046260Y52435000D01*
X88753740Y52435000D01*
X88466842Y52377932D01*
X88196589Y52265990D01*
X87953368Y52103475D01*
X87746525Y51896632D01*
X87584010Y51653411D01*
X87472068Y51383158D01*
X87415000Y51096260D01*
X54155294Y51096260D01*
X52986178Y52265375D01*
X52947502Y52312502D01*
X52759449Y52466833D01*
X52544901Y52581511D01*
X52312102Y52652130D01*
X52130665Y52670000D01*
X52070000Y52675975D01*
X52009335Y52670000D01*
X28635665Y52670000D01*
X28575000Y52675975D01*
X28514335Y52670000D01*
X28332898Y52652130D01*
X28100099Y52581511D01*
X27885551Y52466833D01*
X27697498Y52312502D01*
X27658826Y52265380D01*
X26387841Y50994395D01*
X26378889Y50993513D01*
X26098966Y50908599D01*
X25840986Y50770706D01*
X25834033Y50765000D01*
X22323623Y50765000D01*
X22141808Y50862182D01*
X21871309Y50944236D01*
X21660492Y50965000D01*
X21519508Y50965000D01*
X21308691Y50944236D01*
X21038192Y50862182D01*
X20856377Y50765000D01*
X18475665Y50765000D01*
X18415000Y50770975D01*
X18354335Y50765000D01*
X14960664Y50765000D01*
X14899999Y50770975D01*
X14657897Y50747130D01*
X14597907Y50728932D01*
X14425099Y50676511D01*
X14210551Y50561833D01*
X14022498Y50407502D01*
X13983827Y50360381D01*
X11213447Y47590000D01*
X10570039Y47590000D01*
X10458735Y47681345D01*
X10182949Y47828755D01*
X9883704Y47919530D01*
X9650486Y47942500D01*
X9399514Y47942500D01*
X9166296Y47919530D01*
X8867051Y47828755D01*
X8591265Y47681345D01*
X8349537Y47482963D01*
X8151155Y47241235D01*
X8003745Y46965449D01*
X7912970Y46666204D01*
X7882319Y46355000D01*
X2667000Y46355000D01*
X2667000Y54185279D01*
X4215000Y54185279D01*
X4215000Y53764721D01*
X4297047Y53352244D01*
X4457988Y52963698D01*
X4691637Y52614017D01*
X4989017Y52316637D01*
X5338698Y52082988D01*
X5727244Y51922047D01*
X6139721Y51840000D01*
X6560279Y51840000D01*
X6972756Y51922047D01*
X7361302Y52082988D01*
X7710983Y52316637D01*
X8008363Y52614017D01*
X8242012Y52963698D01*
X8402953Y53352244D01*
X8485000Y53764721D01*
X8485000Y54185279D01*
X95655000Y54185279D01*
X95655000Y53764721D01*
X95737047Y53352244D01*
X95897988Y52963698D01*
X96131637Y52614017D01*
X96429017Y52316637D01*
X96778698Y52082988D01*
X97167244Y51922047D01*
X97579721Y51840000D01*
X98000279Y51840000D01*
X98412756Y51922047D01*
X98801302Y52082988D01*
X99150983Y52316637D01*
X99448363Y52614017D01*
X99682012Y52963698D01*
X99842953Y53352244D01*
X99925000Y53764721D01*
X99925000Y54185279D01*
X99842953Y54597756D01*
X99682012Y54986302D01*
X99448363Y55335983D01*
X99150983Y55633363D01*
X98801302Y55867012D01*
X98412756Y56027953D01*
X98000279Y56110000D01*
X97579721Y56110000D01*
X97167244Y56027953D01*
X96778698Y55867012D01*
X96429017Y55633363D01*
X96131637Y55335983D01*
X95897988Y54986302D01*
X95737047Y54597756D01*
X95655000Y54185279D01*
X8485000Y54185279D01*
X8402953Y54597756D01*
X8242012Y54986302D01*
X8008363Y55335983D01*
X7710983Y55633363D01*
X7361302Y55867012D01*
X6972756Y56027953D01*
X6560279Y56110000D01*
X6139721Y56110000D01*
X5727244Y56027953D01*
X5338698Y55867012D01*
X4989017Y55633363D01*
X4691637Y55335983D01*
X4457988Y54986302D01*
X4297047Y54597756D01*
X4215000Y54185279D01*
X2667000Y54185279D01*
X2667000Y57658000D01*
X102108000Y57658000D01*
X102108000Y3302000D01*
M02*
