M48
; DRILL file {KiCad (5.1.2)-2} date 14/1/2020 07:35:20
; FORMAT={-:-/ absolute / inch / decimal}
; #@! TF.CreationDate,2020-01-14T07:35:20-06:00
; #@! TF.GenerationSoftware,Kicad,Pcbnew,(5.1.2)-2
; #@! TF.FileFunction,Plated,1,2,PTH
FMAT,2
INCH
T1C0.0236
T2C0.0315
T3C0.0354
T4C0.0362
T5C0.0394
T6C0.0433
T7C0.0472
T8C0.0917
%
G90
G05
T1
X0.625Y1.7787
X0.625Y1.7
X1.025Y1.5
X1.1037Y1.5
T2
X3.375Y1.75
X3.375Y0.475
X0.85Y1.95
X0.85Y1.55
X2.45Y1.3
X2.6469Y1.3
X0.625Y1.525
X0.625Y1.3281
X2.9Y0.8
X3.3Y0.8
X2.775Y1.225
X3.175Y1.225
X2.45Y1.425
X2.85Y1.425
X1.5Y1.45
X1.5Y1.2531
X1.95Y1.3421
X1.95Y1.15
X1.3Y1.5577
X1.3Y0.9577
X1.4Y1.5577
X1.4Y0.9577
X1.5Y1.5577
X1.5Y0.9577
X1.6Y1.5577
X1.6Y0.9577
X1.7Y1.5577
X1.7Y0.9577
X1.8Y1.5577
X1.8Y0.9577
X1.9Y1.5577
X1.9Y0.9577
X2.0Y1.5577
X2.0Y0.9577
X2.1Y1.5577
X2.1Y0.9577
X2.2Y1.5577
X2.2Y0.9577
X2.3Y1.5577
X2.3Y0.9577
X2.4Y1.5577
X2.4Y0.9577
X2.5Y1.5577
X2.5Y0.9577
X2.6Y1.5577
X2.6Y0.9577
X2.7Y1.5577
X2.7Y0.9577
X2.8Y1.5577
X2.8Y0.9577
X2.9Y1.5577
X2.9Y0.9577
X3.0Y1.5577
X3.0Y0.9577
X3.1Y1.5577
X3.1Y0.9577
X3.2Y1.5577
X3.2Y0.9577
X2.45Y1.15
X2.6469Y1.15
X2.15Y1.15
X2.2484Y1.15
X2.15Y1.35
X2.2484Y1.35
T3
X0.85Y1.425
X0.85Y1.325
T4
X0.6213Y0.7984
X0.6213Y0.7
X0.7Y0.7984
X0.7Y0.7
T5
X3.5Y2.0059
X3.5Y1.75
X3.6772Y2.0059
X3.6772Y1.75
X1.6Y0.6
X1.7Y0.6
X1.9Y0.6
X2.0Y0.6
X2.1Y0.6
X2.2Y0.6
X2.225Y1.9
X2.325Y1.9
X2.425Y1.9
X1.275Y1.95
X1.275Y1.85
X3.675Y0.975
X3.675Y0.875
X3.675Y0.775
X3.675Y0.675
X3.675Y0.575
X3.675Y0.475
X1.5Y1.9
X1.6Y1.9
X2.6Y1.9
X2.7Y1.9
X2.8Y1.9
X2.9Y1.9
X3.0Y1.9
X3.1Y1.9
X1.3Y0.6
X1.4Y0.6
X1.05Y1.95
X1.05Y1.85
X3.5Y1.5309
X3.5Y1.275
X3.6772Y1.5309
X3.6772Y1.275
X2.5Y0.6
X2.6Y0.6
X2.7Y0.6
X2.8Y0.6
X2.9Y0.6
X3.0Y0.6
X3.1Y0.6
X3.2Y0.6
X0.8Y0.3
X0.9Y0.3
X1.8Y1.9
X1.9Y1.9
X2.0Y1.9
T6
X0.375Y1.825
X0.375Y1.725
X0.375Y1.625
T7
X1.025Y1.3
X1.025Y0.7
T8
X0.5146Y0.9862
X0.5146Y0.5122
T0
M30
